<?xml version="1.0" encoding="UTF-8" standalone="no"?>
<!DOCTYPE svg PUBLIC "-//W3C//DTD SVG 1.1//EN"
 "http://www.w3.org/Graphics/SVG/1.1/DTD/svg11.dtd">
<!-- Generated by graphviz version 2.38.0 (20140413.2041)
 -->
<!-- Title: libOmexMeta Pages: 1 -->
<svg width="5388pt" height="433pt"
 viewBox="0.00 0.00 5388.00 433.00" xmlns="http://www.w3.org/2000/svg" xmlns:xlink="http://www.w3.org/1999/xlink">
<g id="graph0" class="graph" transform="scale(1 1) rotate(0) translate(4 429)">
<title>libOmexMeta</title>
<polygon fill="white" stroke="none" points="-4,4 -4,-429 5384,-429 5384,4 -4,4"/>
<g id="clust1" class="cluster"><title>clusterLegend</title>
<polygon fill="none" stroke="black" points="8,-158 8,-417 521,-417 521,-158 8,-158"/>
<text text-anchor="middle" x="264.5" y="-401.8" font-family="Times New Roman,serif" font-size="14.00">Legend</text>
</g>
<!-- legendNode0 -->
<g id="node1" class="node"><title>legendNode0</title>
<polygon fill="none" stroke="black" points="274.982,-350.049 277.619,-350.148 280.228,-350.295 282.8,-350.491 285.323,-350.735 287.788,-351.027 290.184,-351.364 292.503,-351.748 294.736,-352.176 296.874,-352.647 298.909,-353.161 300.836,-353.715 302.646,-354.308 304.335,-354.939 305.898,-355.605 307.329,-356.306 308.626,-357.039 309.787,-357.801 310.807,-358.592 311.688,-359.408 312.427,-360.248 313.025,-361.109 313.483,-361.989 313.803,-362.886 313.986,-363.797 314.035,-364.719 313.954,-365.65 313.746,-366.587 313.415,-367.529 312.966,-368.471 312.404,-369.413 311.734,-370.35 310.961,-371.281 310.092,-372.203 309.131,-373.114 308.085,-374.011 306.959,-374.891 305.76,-375.752 304.493,-376.592 303.164,-377.408 301.778,-378.199 300.34,-378.961 298.857,-379.694 297.331,-380.395 295.769,-381.061 294.174,-381.692 292.55,-382.285 290.901,-382.839 289.23,-383.353 287.541,-383.824 285.836,-384.252 284.118,-384.636 282.389,-384.973 280.651,-385.265 278.905,-385.509 277.154,-385.705 275.399,-385.852 273.64,-385.951 271.88,-386 270.12,-386 268.36,-385.951 266.601,-385.852 264.846,-385.705 263.095,-385.509 261.349,-385.265 259.611,-384.973 257.882,-384.636 256.164,-384.252 254.459,-383.824 252.77,-383.353 251.099,-382.839 249.45,-382.285 247.826,-381.692 246.231,-381.061 244.669,-380.395 243.143,-379.694 241.66,-378.961 240.222,-378.199 238.836,-377.408 237.507,-376.592 236.24,-375.752 235.041,-374.891 233.915,-374.011 232.869,-373.114 231.908,-372.203 231.039,-371.281 230.266,-370.35 229.596,-369.413 229.034,-368.471 228.585,-367.529 228.254,-366.587 228.046,-365.65 227.965,-364.719 228.014,-363.797 228.197,-362.886 228.517,-361.989 228.975,-361.109 229.573,-360.248 230.312,-359.408 231.193,-358.592 232.213,-357.801 233.374,-357.039 234.671,-356.306 236.102,-355.605 237.665,-354.939 239.354,-354.308 241.164,-353.715 243.091,-353.161 245.126,-352.647 247.264,-352.176 249.497,-351.748 251.816,-351.364 254.212,-351.027 256.677,-350.735 259.2,-350.491 261.772,-350.295 264.381,-350.148 267.018,-350.049 269.671,-350 272.329,-350 274.982,-350.049"/>
<text text-anchor="middle" x="271" y="-364.9" font-family="Times New Roman,serif" font-size="12.00">Executable</text>
</g>
<!-- legendNode1 -->
<g id="node2" class="node"><title>legendNode1</title>
<polygon fill="none" stroke="black" points="119.944,-275.544 119.944,-290.456 89.5158,-301 46.4842,-301 16.0562,-290.456 16.0562,-275.544 46.4842,-265 89.5158,-265 119.944,-275.544"/>
<text text-anchor="middle" x="68" y="-279.9" font-family="Times New Roman,serif" font-size="12.00">Static Library</text>
</g>
<!-- legendNode0&#45;&gt;legendNode1 -->
<g id="edge1" class="edge"><title>legendNode0&#45;&gt;legendNode1</title>
<path fill="none" stroke="black" d="M239.412,-354.11C210.633,-342.364 166.956,-324.529 129,-309 122.952,-306.526 116.568,-303.911 110.298,-301.343"/>
<polygon fill="black" stroke="black" points="111.185,-297.924 100.604,-297.371 108.53,-304.401 111.185,-297.924"/>
</g>
<!-- legendNode2 -->
<g id="node3" class="node"><title>legendNode2</title>
<polygon fill="none" stroke="black" points="255.763,-275.544 255.763,-290.456 222.512,-301 175.488,-301 142.237,-290.456 142.237,-275.544 175.488,-265 222.512,-265 255.763,-275.544"/>
<polygon fill="none" stroke="black" points="259.772,-272.618 259.772,-293.382 223.134,-305 174.866,-305 138.228,-293.382 138.228,-272.618 174.866,-261 223.134,-261 259.772,-272.618"/>
<text text-anchor="middle" x="199" y="-279.9" font-family="Times New Roman,serif" font-size="12.00">Shared Library</text>
</g>
<!-- legendNode0&#45;&gt;legendNode2 -->
<g id="edge2" class="edge"><title>legendNode0&#45;&gt;legendNode2</title>
<path fill="none" stroke="black" d="M256.775,-350.602C247.408,-339.804 234.891,-325.374 223.902,-312.707"/>
<polygon fill="black" stroke="black" points="226.496,-310.356 217.3,-305.095 221.209,-314.943 226.496,-310.356"/>
</g>
<!-- legendNode3 -->
<g id="node4" class="node"><title>legendNode3</title>
<polygon fill="none" stroke="black" points="402.754,-275.544 402.754,-290.456 368.337,-301 319.663,-301 285.246,-290.456 285.246,-275.544 319.663,-265 368.337,-265 402.754,-275.544"/>
<polygon fill="none" stroke="black" points="406.762,-272.588 406.762,-293.412 368.938,-305 319.062,-305 281.238,-293.412 281.238,-272.588 319.062,-261 368.938,-261 406.762,-272.588"/>
<polygon fill="none" stroke="black" points="410.77,-269.632 410.77,-296.368 369.539,-309 318.461,-309 277.23,-296.368 277.23,-269.632 318.461,-257 369.539,-257 410.77,-269.632"/>
<text text-anchor="middle" x="344" y="-279.9" font-family="Times New Roman,serif" font-size="12.00">Module Library</text>
</g>
<!-- legendNode0&#45;&gt;legendNode3 -->
<!-- legendNode7 -->
<g id="node8" class="node"><title>legendNode7</title>
<polygon fill="none" stroke="black" points="513,-301 429,-301 429,-265 513,-265 513,-301"/>
<text text-anchor="middle" x="471" y="-279.9" font-family="Times New Roman,serif" font-size="12.00">Custom Target</text>
</g>
<!-- legendNode0&#45;&gt;legendNode7 -->
<!-- legendNode4 -->
<g id="node5" class="node"><title>legendNode4</title>
<polygon fill="none" stroke="black" points="156.007,-189.562 86,-202 15.993,-189.562 42.7333,-169.438 129.267,-169.438 156.007,-189.562"/>
<text text-anchor="middle" x="86" y="-180.9" font-family="Times New Roman,serif" font-size="12.00">Interface Library</text>
</g>
<!-- legendNode1&#45;&gt;legendNode4 -->
<g id="edge4" class="edge"><title>legendNode1&#45;&gt;legendNode4</title>
<path fill="none" stroke="black" stroke-dasharray="5,2" d="M71.218,-264.658C73.9648,-249.857 77.9575,-228.34 81.1011,-211.4"/>
<polygon fill="black" stroke="black" points="84.5466,-212.015 82.93,-201.544 77.6641,-210.738 84.5466,-212.015"/>
<text text-anchor="middle" x="103.5" y="-227.8" font-family="Times New Roman,serif" font-size="14.00">Interface</text>
</g>
<!-- legendNode5 -->
<g id="node6" class="node"><title>legendNode5</title>
<polygon fill="none" stroke="black" points="293.918,-184 263.959,-202 204.041,-202 174.082,-184 204.041,-166 263.959,-166 293.918,-184"/>
<text text-anchor="middle" x="234" y="-180.9" font-family="Times New Roman,serif" font-size="12.00">Object Library</text>
</g>
<!-- legendNode2&#45;&gt;legendNode5 -->
<g id="edge5" class="edge"><title>legendNode2&#45;&gt;legendNode5</title>
<path fill="none" stroke="black" stroke-dasharray="1,5" d="M206.594,-260.952C211.806,-246.509 218.765,-227.222 224.367,-211.698"/>
<polygon fill="black" stroke="black" points="227.718,-212.723 227.82,-202.129 221.133,-210.347 227.718,-212.723"/>
<text text-anchor="middle" x="239.5" y="-227.8" font-family="Times New Roman,serif" font-size="14.00">Private</text>
</g>
<!-- legendNode6 -->
<g id="node7" class="node"><title>legendNode6</title>
<polygon fill="none" stroke="black" points="444.051,-179.995 430.969,-195.223 378,-202 325.031,-195.223 311.949,-179.995 348.604,-167.783 407.396,-167.783 444.051,-179.995"/>
<text text-anchor="middle" x="378" y="-180.9" font-family="Times New Roman,serif" font-size="12.00">Unknown Library</text>
</g>
<!-- legendNode3&#45;&gt;legendNode6 -->
<g id="edge6" class="edge"><title>legendNode3&#45;&gt;legendNode6</title>
<path fill="none" stroke="black" d="M352.844,-256.768C357.784,-242.674 363.928,-225.146 368.908,-210.94"/>
<polygon fill="black" stroke="black" points="372.289,-211.875 372.294,-201.28 365.683,-209.559 372.289,-211.875"/>
</g>
<!-- node0 -->
<g id="node9" class="node"><title>node0</title>
<polygon fill="none" stroke="black" points="3282.13,-176.544 3282.13,-191.456 3255.7,-202 3218.3,-202 3191.87,-191.456 3191.87,-176.544 3218.3,-166 3255.7,-166 3282.13,-176.544"/>
<polygon fill="none" stroke="black" points="3286.12,-173.829 3286.12,-194.171 3256.46,-206 3217.54,-206 3187.88,-194.171 3187.88,-173.829 3217.54,-162 3256.46,-162 3286.12,-173.829"/>
<text text-anchor="middle" x="3237" y="-180.9" font-family="Times New Roman,serif" font-size="12.00">OmexMeta</text>
</g>
<!-- node1 -->
<g id="node10" class="node"><title>node1</title>
<polygon fill="none" stroke="black" points="4502.81,-98.9946 4453.92,-114.223 4256,-121 4058.08,-114.223 4009.19,-98.9946 4146.16,-86.7826 4365.84,-86.7826 4502.81,-98.9946"/>
<text text-anchor="middle" x="4256" y="-99.9" font-family="Times New Roman,serif" font-size="12.00">D:/libOmexMeta/cmake&#45;build&#45;release&#45;visual&#45;studio/lib/redland&#45;combined.lib</text>
</g>
<!-- node0&#45;&gt;node1 -->
<g id="edge8" class="edge"><title>node0&#45;&gt;node1</title>
<path fill="none" stroke="black" d="M3286.17,-181.96C3405.3,-179.105 3718.71,-169.58 3979,-144 4040.1,-137.995 4108.37,-128.173 4161.84,-119.765"/>
<polygon fill="black" stroke="black" points="4162.66,-123.179 4171.99,-118.158 4161.57,-116.265 4162.66,-123.179"/>
</g>
<!-- node2 -->
<g id="node11" class="node"><title>node2</title>
<polygon fill="none" stroke="black" points="1873.63,-17.9946 1841.81,-33.2228 1713,-40 1584.19,-33.2228 1552.37,-17.9946 1641.51,-5.78256 1784.49,-5.78256 1873.63,-17.9946"/>
<text text-anchor="middle" x="1713" y="-18.9" font-family="Times New Roman,serif" font-size="12.00">D:/vcpkg/installed/x64&#45;windows/lib/libcharset.lib</text>
</g>
<!-- node0&#45;&gt;node2 -->
<g id="edge9" class="edge"><title>node0&#45;&gt;node2</title>
<path fill="none" stroke="black" d="M3187.86,-178.444C3104.86,-170.796 2931.63,-155.032 2785,-143 2732.14,-138.662 2594.36,-148.877 2547,-125 2523.93,-113.368 2532.17,-92.4409 2509,-81 2493.36,-73.2749 1899.37,-45.5904 1882,-44 1859.69,-41.9575 1835.77,-39.2839 1813.16,-36.5319"/>
<polygon fill="black" stroke="black" points="1813.57,-33.056 1803.22,-35.3068 1812.72,-40.0035 1813.57,-33.056"/>
</g>
<!-- node3 -->
<g id="node12" class="node"><title>node3</title>
<polygon fill="none" stroke="black" points="2208.53,-17.9946 2177.13,-33.2228 2050,-40 1922.87,-33.2228 1891.47,-17.9946 1979.45,-5.78256 2120.55,-5.78256 2208.53,-17.9946"/>
<text text-anchor="middle" x="2050" y="-18.9" font-family="Times New Roman,serif" font-size="12.00">D:/vcpkg/installed/x64&#45;windows/lib/libcrypto.lib</text>
</g>
<!-- node0&#45;&gt;node3 -->
<g id="edge10" class="edge"><title>node0&#45;&gt;node3</title>
<path fill="none" stroke="black" d="M3187.76,-177.824C3112.3,-169.948 2963.48,-154.643 2837,-143 2741.95,-134.251 2714.06,-153.603 2623,-125 2585.76,-113.303 2584.07,-93.2118 2547,-81 2406.82,-34.8232 2363.55,-61.4294 2217,-44 2196.68,-41.583 2174.97,-38.9166 2154.17,-36.3183"/>
<polygon fill="black" stroke="black" points="2154.39,-32.8192 2144.04,-35.0496 2153.52,-39.765 2154.39,-32.8192"/>
</g>
<!-- node4 -->
<g id="node13" class="node"><title>node4</title>
<polygon fill="none" stroke="black" points="2525.76,-17.9946 2496.1,-33.2228 2376,-40 2255.9,-33.2228 2226.24,-17.9946 2309.35,-5.78256 2442.65,-5.78256 2525.76,-17.9946"/>
<text text-anchor="middle" x="2376" y="-18.9" font-family="Times New Roman,serif" font-size="12.00">D:/vcpkg/installed/x64&#45;windows/lib/libcurl.lib</text>
</g>
<!-- node0&#45;&gt;node4 -->
<g id="edge11" class="edge"><title>node0&#45;&gt;node4</title>
<path fill="none" stroke="black" d="M3187.78,-176.611C3124.49,-168.461 3011.12,-154.095 2914,-143 2837.63,-134.276 2816.85,-142.464 2742,-125 2687.09,-112.188 2677,-97.254 2623,-81 2566.47,-63.9839 2501.44,-48.8886 2452.3,-38.3662"/>
<polygon fill="black" stroke="black" points="2452.88,-34.9128 2442.37,-36.2575 2451.43,-41.7599 2452.88,-34.9128"/>
</g>
<!-- node5 -->
<g id="node14" class="node"><title>node5</title>
<polygon fill="none" stroke="black" points="2854.2,-17.9946 2823.46,-33.2228 2699,-40 2574.54,-33.2228 2543.8,-17.9946 2629.93,-5.78256 2768.07,-5.78256 2854.2,-17.9946"/>
<text text-anchor="middle" x="2699" y="-18.9" font-family="Times New Roman,serif" font-size="12.00">D:/vcpkg/installed/x64&#45;windows/lib/libdb48.lib</text>
</g>
<!-- node0&#45;&gt;node5 -->
<g id="edge12" class="edge"><title>node0&#45;&gt;node5</title>
<path fill="none" stroke="black" d="M3199,-169.354C3141.28,-148.86 3027.87,-109.502 2930,-81 2876.37,-65.3818 2815.02,-50.0964 2769.03,-39.1414"/>
<polygon fill="black" stroke="black" points="2769.7,-35.7035 2759.16,-36.8015 2768.08,-42.5146 2769.7,-35.7035"/>
</g>
<!-- node6 -->
<g id="node15" class="node"><title>node6</title>
<polygon fill="none" stroke="black" points="3182.2,-17.9946 3151.46,-33.2228 3027,-40 2902.54,-33.2228 2871.8,-17.9946 2957.93,-5.78256 3096.07,-5.78256 3182.2,-17.9946"/>
<text text-anchor="middle" x="3027" y="-18.9" font-family="Times New Roman,serif" font-size="12.00">D:/vcpkg/installed/x64&#45;windows/lib/libiconv.lib</text>
</g>
<!-- node0&#45;&gt;node6 -->
<g id="edge13" class="edge"><title>node0&#45;&gt;node6</title>
<path fill="none" stroke="black" d="M3211.25,-164.375C3195.74,-153.089 3175.64,-138.341 3158,-125 3122.32,-98.0179 3081.75,-66.2617 3055.34,-45.4376"/>
<polygon fill="black" stroke="black" points="3057.3,-42.5288 3047.28,-39.0805 3052.97,-48.0234 3057.3,-42.5288"/>
</g>
<!-- node7 -->
<g id="node16" class="node"><title>node7</title>
<polygon fill="none" stroke="black" points="3493.8,-17.9946 3464.72,-33.2228 3347,-40 3229.28,-33.2228 3200.2,-17.9946 3281.67,-5.78256 3412.33,-5.78256 3493.8,-17.9946"/>
<text text-anchor="middle" x="3347" y="-18.9" font-family="Times New Roman,serif" font-size="12.00">D:/vcpkg/installed/x64&#45;windows/lib/libpq.lib</text>
</g>
<!-- node0&#45;&gt;node7 -->
<g id="edge14" class="edge"><title>node0&#45;&gt;node7</title>
<path fill="none" stroke="black" d="M3268.23,-166.615C3284.58,-156.591 3303.71,-142.356 3316,-125 3331.9,-102.546 3339.79,-71.7704 3343.61,-49.9123"/>
<polygon fill="black" stroke="black" points="3347.08,-50.3963 3345.17,-39.9737 3340.16,-49.3078 3347.08,-50.3963"/>
</g>
<!-- node8 -->
<g id="node17" class="node"><title>node8</title>
<polygon fill="none" stroke="black" points="3804.43,-17.9946 3775.43,-33.2228 3658,-40 3540.57,-33.2228 3511.57,-17.9946 3592.83,-5.78256 3723.17,-5.78256 3804.43,-17.9946"/>
<text text-anchor="middle" x="3658" y="-18.9" font-family="Times New Roman,serif" font-size="12.00">D:/vcpkg/installed/x64&#45;windows/lib/libssl.lib</text>
</g>
<!-- node0&#45;&gt;node8 -->
<g id="edge15" class="edge"><title>node0&#45;&gt;node8</title>
<path fill="none" stroke="black" d="M3280.02,-171.232C3318.43,-160.371 3376.02,-143.211 3425,-125 3493.73,-99.4472 3571.34,-64.1262 3617.38,-42.4617"/>
<polygon fill="black" stroke="black" points="3618.89,-45.6211 3626.43,-38.1861 3615.9,-39.2914 3618.89,-45.6211"/>
</g>
<!-- node9 -->
<g id="node18" class="node"><title>node9</title>
<polygon fill="none" stroke="black" points="4128.1,-17.9946 4097.77,-33.2228 3975,-40 3852.23,-33.2228 3821.9,-17.9946 3906.87,-5.78256 4043.13,-5.78256 4128.1,-17.9946"/>
<text text-anchor="middle" x="3975" y="-18.9" font-family="Times New Roman,serif" font-size="12.00">D:/vcpkg/installed/x64&#45;windows/lib/libxml2.lib</text>
</g>
<!-- node0&#45;&gt;node9 -->
<g id="edge16" class="edge"><title>node0&#45;&gt;node9</title>
<path fill="none" stroke="black" d="M3283.73,-172.87C3408.7,-145.774 3751.39,-71.4802 3902.17,-38.7905"/>
<polygon fill="black" stroke="black" points="3903.22,-42.1436 3912.25,-36.6042 3901.74,-35.3025 3903.22,-42.1436"/>
</g>
<!-- node10 -->
<g id="node19" class="node"><title>node10</title>
<polygon fill="none" stroke="black" points="4443.9,-17.9946 4414.41,-33.2228 4295,-40 4175.59,-33.2228 4146.1,-17.9946 4228.73,-5.78256 4361.27,-5.78256 4443.9,-17.9946"/>
<text text-anchor="middle" x="4295" y="-18.9" font-family="Times New Roman,serif" font-size="12.00">D:/vcpkg/installed/x64&#45;windows/lib/libxslt.lib</text>
</g>
<!-- node0&#45;&gt;node10 -->
<g id="edge17" class="edge"><title>node0&#45;&gt;node10</title>
<path fill="none" stroke="black" d="M3286.28,-175.566C3359.2,-164.559 3500.16,-143.258 3620,-125 3802.69,-97.165 3848.26,-89.5036 4031,-62 4087.48,-53.4993 4150.79,-44.1416 4201.25,-36.7236"/>
<polygon fill="black" stroke="black" points="4201.78,-40.1834 4211.16,-35.2667 4200.76,-33.2578 4201.78,-40.1834"/>
</g>
<!-- node11 -->
<g id="node20" class="node"><title>node11</title>
<polygon fill="none" stroke="black" points="4751.7,-17.9946 4723.04,-33.2228 4607,-40 4490.96,-33.2228 4462.3,-17.9946 4542.6,-5.78256 4671.4,-5.78256 4751.7,-17.9946"/>
<text text-anchor="middle" x="4607" y="-18.9" font-family="Times New Roman,serif" font-size="12.00">D:/vcpkg/installed/x64&#45;windows/lib/lzma.lib</text>
</g>
<!-- node0&#45;&gt;node11 -->
<g id="edge18" class="edge"><title>node0&#45;&gt;node11</title>
<path fill="none" stroke="black" d="M3286.14,-182.95C3506.68,-182.434 4399.31,-177.116 4512,-125 4547.21,-108.715 4575.58,-72.8268 4591.86,-48.273"/>
<polygon fill="black" stroke="black" points="4594.85,-50.1026 4597.31,-39.7971 4588.96,-46.3198 4594.85,-50.1026"/>
</g>
<!-- node12 -->
<g id="node21" class="node"><title>node12</title>
<polygon fill="none" stroke="black" points="5059.7,-17.9946 5031.04,-33.2228 4915,-40 4798.96,-33.2228 4770.3,-17.9946 4850.6,-5.78256 4979.4,-5.78256 5059.7,-17.9946"/>
<text text-anchor="middle" x="4915" y="-18.9" font-family="Times New Roman,serif" font-size="12.00">D:/vcpkg/installed/x64&#45;windows/lib/pcre.lib</text>
</g>
<!-- node0&#45;&gt;node12 -->
<g id="edge19" class="edge"><title>node0&#45;&gt;node12</title>
<path fill="none" stroke="black" d="M3286.17,-182.31C3482.7,-179.41 4212.15,-167.281 4442,-144 4491.8,-138.956 4504.18,-136.025 4553,-125 4663.1,-100.138 4789.57,-62.342 4860.1,-40.4169"/>
<polygon fill="black" stroke="black" points="4861.17,-43.75 4869.68,-37.4315 4859.09,-37.0674 4861.17,-43.75"/>
</g>
<!-- node13 -->
<g id="node22" class="node"><title>node13</title>
<polygon fill="none" stroke="black" points="5380,-17.9946 5350.09,-33.2228 5229,-40 5107.91,-33.2228 5078,-17.9946 5161.8,-5.78256 5296.2,-5.78256 5380,-17.9946"/>
<text text-anchor="middle" x="5229" y="-18.9" font-family="Times New Roman,serif" font-size="12.00">D:/vcpkg/installed/x64&#45;windows/lib/sqlite3.lib</text>
</g>
<!-- node0&#45;&gt;node13 -->
<g id="edge20" class="edge"><title>node0&#45;&gt;node13</title>
<path fill="none" stroke="black" d="M3286.28,-182.618C3452.03,-181.078 4004.51,-173.884 4460,-144 4545.12,-138.415 4566.49,-136.643 4651,-125 4675.4,-121.638 4992.75,-65.1531 5146.55,-37.7203"/>
<polygon fill="black" stroke="black" points="5147.2,-41.1581 5156.43,-35.9563 5145.97,-34.2669 5147.2,-41.1581"/>
</g>
<!-- node14 -->
<g id="node23" class="node"><title>node14</title>
<polygon fill="none" stroke="black" points="1142.23,-17.9946 1114.06,-33.2228 1000,-40 885.939,-33.2228 857.768,-17.9946 936.701,-5.78256 1063.3,-5.78256 1142.23,-17.9946"/>
<text text-anchor="middle" x="1000" y="-18.9" font-family="Times New Roman,serif" font-size="12.00">D:/vcpkg/installed/x64&#45;windows/lib/yajl.lib</text>
</g>
<!-- node0&#45;&gt;node14 -->
<g id="edge21" class="edge"><title>node0&#45;&gt;node14</title>
<path fill="none" stroke="black" d="M3187.82,-178.475C3126.04,-172.932 3016.76,-163.59 2923,-158 2553.59,-135.977 2459.64,-157.499 2091,-125 1947.56,-112.354 1913.24,-95.8032 1770,-81 1649.46,-68.5424 1618.96,-69.3704 1498,-62 1344.3,-52.6345 1305.3,-58.5503 1152,-44 1131.72,-42.0747 1109.98,-39.4254 1089.48,-36.6565"/>
<polygon fill="black" stroke="black" points="1089.91,-33.1825 1079.53,-35.2902 1088.96,-40.1175 1089.91,-33.1825"/>
</g>
<!-- node15 -->
<g id="node24" class="node"><title>node15</title>
<polygon fill="none" stroke="black" points="1443.37,-17.9946 1415.37,-33.2228 1302,-40 1188.63,-33.2228 1160.63,-17.9946 1239.09,-5.78256 1364.91,-5.78256 1443.37,-17.9946"/>
<text text-anchor="middle" x="1302" y="-18.9" font-family="Times New Roman,serif" font-size="12.00">D:/vcpkg/installed/x64&#45;windows/lib/zlib.lib</text>
</g>
<!-- node0&#45;&gt;node15 -->
<g id="edge22" class="edge"><title>node0&#45;&gt;node15</title>
<path fill="none" stroke="black" d="M3187.81,-178.739C3126.01,-173.466 3016.71,-164.402 2923,-158 2806.19,-150.02 2776.95,-148.47 2660,-143 2605.25,-140.439 2219.67,-140.182 2167,-125 2129.5,-114.19 2128.39,-92.2117 2091,-81 2022.98,-60.6024 1523.67,-50.9517 1453,-44 1433.06,-42.0382 1411.7,-39.4001 1391.52,-36.6573"/>
<polygon fill="black" stroke="black" points="1391.78,-33.1609 1381.4,-35.2609 1390.83,-40.0952 1391.78,-33.1609"/>
</g>
<!-- node16 -->
<g id="node25" class="node"><title>node16</title>
<polygon fill="none" stroke="black" points="3302.93,-95.5442 3302.93,-110.456 3264.31,-121 3209.69,-121 3171.07,-110.456 3171.07,-95.5442 3209.69,-85 3264.31,-85 3302.93,-95.5442"/>
<polygon fill="none" stroke="black" points="3306.93,-92.4894 3306.93,-113.511 3264.85,-125 3209.15,-125 3167.07,-113.511 3167.07,-92.4894 3209.15,-81 3264.85,-81 3306.93,-92.4894"/>
<text text-anchor="middle" x="3237" y="-99.9" font-family="Times New Roman,serif" font-size="12.00">redland&#45;combined</text>
</g>
<!-- node0&#45;&gt;node16 -->
<g id="edge38" class="edge"><title>node0&#45;&gt;node16</title>
<path fill="none" stroke="black" d="M3237,-161.829C3237,-153.683 3237,-144.199 3237,-135.297"/>
<polygon fill="black" stroke="black" points="3240.5,-135.229 3237,-125.229 3233.5,-135.229 3240.5,-135.229"/>
</g>
<!-- node17 -->
<g id="node26" class="node"><title>node17</title>
<polygon fill="none" stroke="black" points="1534.43,-17.9946 1527.21,-33.2228 1498,-40 1468.79,-33.2228 1461.57,-17.9946 1481.79,-5.78256 1514.21,-5.78256 1534.43,-17.9946"/>
<text text-anchor="middle" x="1498" y="-18.9" font-family="Times New Roman,serif" font-size="12.00">ws2_32</text>
</g>
<!-- node0&#45;&gt;node17 -->
<g id="edge56" class="edge"><title>node0&#45;&gt;node17</title>
<path fill="none" stroke="black" d="M3187.61,-178.709C3100.61,-171.19 2914.36,-155.267 2757,-143 2646.82,-134.411 2618.96,-136.055 2509,-125 2356.52,-109.669 2319.58,-95.3706 2167,-81 2026.48,-67.765 1990.89,-70.3528 1850,-62 1781.78,-57.9556 1609.26,-60.7482 1543,-44 1538.33,-42.8208 1533.57,-41.1575 1528.96,-39.2774"/>
<polygon fill="black" stroke="black" points="1530.37,-36.0765 1519.82,-35.1992 1527.52,-42.4694 1530.37,-36.0765"/>
</g>
<!-- node18 -->
<g id="node27" class="node"><title>node18</title>
<polygon fill="none" stroke="black" points="2920.74,-95.5442 2920.74,-110.456 2871.1,-121 2800.9,-121 2751.26,-110.456 2751.26,-95.5442 2800.9,-85 2871.1,-85 2920.74,-95.5442"/>
<text text-anchor="middle" x="2836" y="-99.9" font-family="Times New Roman,serif" font-size="12.00">redland&#45;combined&#45;static</text>
</g>
<!-- node0&#45;&gt;node18 -->
<g id="edge55" class="edge"><title>node0&#45;&gt;node18</title>
<path fill="none" stroke="black" d="M3188.63,-173.471C3118.21,-159.598 2987.06,-133.761 2906.07,-117.805"/>
<polygon fill="black" stroke="black" points="2906.45,-114.313 2895.97,-115.814 2905.1,-121.181 2906.45,-114.313"/>
</g>
<!-- node16&#45;&gt;node2 -->
<g id="edge23" class="edge"><title>node16&#45;&gt;node2</title>
<path fill="none" stroke="black" d="M3166.93,-96.5476C3104.73,-91.8651 3011.36,-85.2209 2930,-81 2691.5,-68.6272 2631.67,-70.4258 2393,-62 2165.89,-53.9822 2108.54,-62.0291 1882,-44 1859.02,-42.1713 1834.37,-39.5088 1811.18,-36.6899"/>
<polygon fill="black" stroke="black" points="1811.35,-33.1843 1801,-35.4303 1810.49,-40.1313 1811.35,-33.1843"/>
</g>
<!-- node16&#45;&gt;node3 -->
<g id="edge24" class="edge"><title>node16&#45;&gt;node3</title>
<path fill="none" stroke="black" d="M3166.91,-96.8763C3104.7,-92.4071 3011.32,-85.8912 2930,-81 2613.26,-61.9496 2533.07,-72.0361 2217,-44 2194.79,-42.0297 2170.98,-39.3681 2148.5,-36.6022"/>
<polygon fill="black" stroke="black" points="2148.63,-33.0916 2138.27,-35.3262 2147.76,-40.0377 2148.63,-33.0916"/>
</g>
<!-- node16&#45;&gt;node4 -->
<g id="edge25" class="edge"><title>node16&#45;&gt;node4</title>
<path fill="none" stroke="black" d="M3166.82,-96.3982C3001.47,-83.1714 2596.67,-50.6162 2535,-44 2514.66,-41.8176 2492.89,-39.1581 2472.2,-36.475"/>
<polygon fill="black" stroke="black" points="2472.51,-32.9856 2462.14,-35.158 2471.6,-39.9264 2472.51,-32.9856"/>
</g>
<!-- node16&#45;&gt;node5 -->
<g id="edge26" class="edge"><title>node16&#45;&gt;node5</title>
<path fill="none" stroke="black" d="M3181.48,-88.5437C3143.98,-79.8767 3093.25,-68.9671 3048,-62 2966.35,-49.428 2945.09,-53.2473 2863,-44 2842.53,-41.6943 2820.65,-39.0312 2799.76,-36.3923"/>
<polygon fill="black" stroke="black" points="2799.96,-32.8891 2789.6,-35.1004 2799.07,-39.8332 2799.96,-32.8891"/>
</g>
<!-- node16&#45;&gt;node6 -->
<g id="edge27" class="edge"><title>node16&#45;&gt;node6</title>
<path fill="none" stroke="black" d="M3192.72,-85.3427C3158.62,-72.5153 3111.51,-54.7911 3076.23,-41.5192"/>
<polygon fill="black" stroke="black" points="3077.2,-38.1469 3066.61,-37.9017 3074.74,-44.6987 3077.2,-38.1469"/>
</g>
<!-- node16&#45;&gt;node7 -->
<g id="edge28" class="edge"><title>node16&#45;&gt;node7</title>
<path fill="none" stroke="black" d="M3265.9,-81.2437C3281.48,-70.0577 3300.69,-56.2609 3316.5,-44.9036"/>
<polygon fill="black" stroke="black" points="3318.81,-47.5531 3324.89,-38.877 3314.73,-41.8675 3318.81,-47.5531"/>
</g>
<!-- node16&#45;&gt;node8 -->
<g id="edge29" class="edge"><title>node16&#45;&gt;node8</title>
<path fill="none" stroke="black" d="M3294.03,-88.816C3330.3,-80.6287 3378.29,-70.1506 3421,-62 3468.88,-52.8623 3522.45,-43.938 3566.53,-36.9374"/>
<polygon fill="black" stroke="black" points="3567.32,-40.356 3576.65,-35.3373 3566.23,-33.4419 3567.32,-40.356"/>
</g>
<!-- node16&#45;&gt;node9 -->
<g id="edge30" class="edge"><title>node16&#45;&gt;node9</title>
<path fill="none" stroke="black" d="M3306.94,-92.8106C3375.03,-84.0735 3481.49,-70.9695 3574,-62 3680.03,-51.7199 3707.03,-54.8509 3813,-44 3833.95,-41.8552 3856.37,-39.1882 3877.65,-36.4823"/>
<polygon fill="black" stroke="black" points="3878.19,-39.9416 3887.66,-35.1957 3877.3,-32.9987 3878.19,-39.9416"/>
</g>
<!-- node16&#45;&gt;node10 -->
<g id="edge31" class="edge"><title>node16&#45;&gt;node10</title>
<path fill="none" stroke="black" d="M3307.07,-95.3414C3401.15,-86.6002 3573.53,-71.2806 3721,-62 3905.7,-50.3766 3952.65,-60.2072 4137,-44 4158.3,-42.1276 4181.13,-39.4725 4202.64,-36.6778"/>
<polygon fill="black" stroke="black" points="4203.29,-40.1224 4212.74,-35.342 4202.37,-33.1828 4203.29,-40.1224"/>
</g>
<!-- node16&#45;&gt;node11 -->
<g id="edge32" class="edge"><title>node16&#45;&gt;node11</title>
<path fill="none" stroke="black" d="M3307.1,-95.9884C3412.93,-87.1377 3619.86,-70.7104 3796,-62 4087.75,-47.572 4161.86,-67.7687 4453,-44 4474.13,-42.2751 4496.79,-39.6314 4518.06,-36.795"/>
<polygon fill="black" stroke="black" points="4518.61,-40.2525 4528.04,-35.4359 4517.66,-33.3164 4518.61,-40.2525"/>
</g>
<!-- node16&#45;&gt;node12 -->
<g id="edge33" class="edge"><title>node16&#45;&gt;node12</title>
<path fill="none" stroke="black" d="M3307.11,-98.0059C3448.25,-90.0878 3776.79,-72.2797 4053,-62 4367.55,-50.2935 4447.25,-69.303 4761,-44 4782.13,-42.296 4804.79,-39.6602 4826.06,-36.8251"/>
<polygon fill="black" stroke="black" points="4826.61,-40.2825 4836.05,-35.466 4825.67,-33.3465 4826.61,-40.2825"/>
</g>
<!-- node16&#45;&gt;node13 -->
<g id="edge34" class="edge"><title>node16&#45;&gt;node13</title>
<path fill="none" stroke="black" d="M3307.1,-98.254C3457.81,-90.3342 3823.93,-71.8144 4131,-62 4547.75,-48.6801 4653.2,-75.179 5069,-44 5091.17,-42.3377 5114.96,-39.6884 5137.25,-36.8237"/>
<polygon fill="black" stroke="black" points="5137.91,-40.2668 5147.37,-35.495 5137,-33.3263 5137.91,-40.2668"/>
</g>
<!-- node16&#45;&gt;node14 -->
<g id="edge35" class="edge"><title>node16&#45;&gt;node14</title>
<path fill="none" stroke="black" d="M3166.94,-96.2571C3104.75,-91.3861 3011.39,-84.6285 2930,-81 2732.6,-72.1995 1348.98,-59.6035 1152,-44 1130.91,-42.3293 1108.27,-39.674 1087.08,-36.8058"/>
<polygon fill="black" stroke="black" points="1087.52,-33.3331 1077.14,-35.4301 1086.56,-40.2671 1087.52,-33.3331"/>
</g>
<!-- node16&#45;&gt;node15 -->
<g id="edge36" class="edge"><title>node16&#45;&gt;node15</title>
<path fill="none" stroke="black" d="M3166.94,-96.3417C3104.75,-91.5255 3011.38,-84.801 2930,-81 2766.02,-73.3411 1616.62,-57.3834 1453,-44 1432.26,-42.3033 1410.01,-39.6676 1389.14,-36.8299"/>
<polygon fill="black" stroke="black" points="1389.41,-33.3331 1379.02,-35.4238 1388.44,-40.2665 1389.41,-33.3331"/>
</g>
<!-- node16&#45;&gt;node17 -->
<g id="edge37" class="edge"><title>node16&#45;&gt;node17</title>
<path fill="none" stroke="black" d="M3166.94,-96.3743C3104.74,-91.5793 3011.38,-84.8674 2930,-81 2613.8,-65.9729 2534.44,-70.4415 2218,-62 2143,-59.9993 1616.02,-61.2244 1543,-44 1538.22,-42.8718 1533.33,-41.2049 1528.63,-39.2952"/>
<polygon fill="black" stroke="black" points="1529.88,-36.0196 1519.32,-35.1288 1527.02,-42.4088 1529.88,-36.0196"/>
</g>
<!-- node18&#45;&gt;node2 -->
<g id="edge39" class="edge"><title>node18&#45;&gt;node2</title>
<path fill="none" stroke="black" d="M2752.79,-95.0976C2646.28,-86.4398 2456.01,-71.5717 2293,-62 2110.47,-51.2825 2064.2,-59.2855 1882,-44 1859.29,-42.0945 1834.93,-39.4323 1811.97,-36.6419"/>
<polygon fill="black" stroke="black" points="1812.24,-33.1481 1801.89,-35.3967 1811.38,-40.0954 1812.24,-33.1481"/>
</g>
<!-- node18&#45;&gt;node3 -->
<g id="edge40" class="edge"><title>node18&#45;&gt;node3</title>
<path fill="none" stroke="black" d="M2759.61,-93.723C2680.45,-85.2647 2553.14,-71.9896 2443,-62 2342.65,-52.8979 2317.24,-54.2885 2217,-44 2195.57,-41.8007 2172.64,-39.1269 2150.84,-36.4341"/>
<polygon fill="black" stroke="black" points="2151.28,-32.9609 2140.92,-35.1972 2150.41,-39.9072 2151.28,-32.9609"/>
</g>
<!-- node18&#45;&gt;node4 -->
<g id="edge41" class="edge"><title>node18&#45;&gt;node4</title>
<path fill="none" stroke="black" d="M2782.58,-88.8586C2747.12,-80.4334 2699.46,-69.6771 2657,-62 2639.15,-58.7724 2548.79,-46.3441 2475.28,-36.3734"/>
<polygon fill="black" stroke="black" points="2475.41,-32.8589 2465.03,-34.984 2474.47,-39.7954 2475.41,-32.8589"/>
</g>
<!-- node18&#45;&gt;node5 -->
<g id="edge42" class="edge"><title>node18&#45;&gt;node5</title>
<path fill="none" stroke="black" d="M2806.27,-84.8582C2785.38,-72.813 2757.32,-56.6319 2735.14,-43.8403"/>
<polygon fill="black" stroke="black" points="2736.75,-40.7293 2726.34,-38.7659 2733.26,-46.7934 2736.75,-40.7293"/>
</g>
<!-- node18&#45;&gt;node6 -->
<g id="edge43" class="edge"><title>node18&#45;&gt;node6</title>
<path fill="none" stroke="black" d="M2875.11,-85.8225C2905.91,-73.0859 2948.89,-55.3089 2981.27,-41.9147"/>
<polygon fill="black" stroke="black" points="2982.62,-45.1417 2990.53,-38.0853 2979.95,-38.6732 2982.62,-45.1417"/>
</g>
<!-- node18&#45;&gt;node7 -->
<g id="edge44" class="edge"><title>node18&#45;&gt;node7</title>
<path fill="none" stroke="black" d="M2892.15,-89.3846C2906.11,-86.4422 2921.07,-83.4548 2935,-81 2965.25,-75.6683 3137.23,-51.811 3249.22,-36.4035"/>
<polygon fill="black" stroke="black" points="3249.76,-39.8622 3259.19,-35.0323 3248.8,-32.9275 3249.76,-39.8622"/>
</g>
<!-- node18&#45;&gt;node8 -->
<g id="edge45" class="edge"><title>node18&#45;&gt;node8</title>
<path fill="none" stroke="black" d="M2920.62,-95.9477C3047.39,-86.5857 3294.05,-67.2264 3503,-44 3522.63,-41.8185 3543.61,-39.1821 3563.59,-36.525"/>
<polygon fill="black" stroke="black" points="3564.18,-39.9778 3573.62,-35.1787 3563.25,-33.04 3564.18,-39.9778"/>
</g>
<!-- node18&#45;&gt;node9 -->
<g id="edge46" class="edge"><title>node18&#45;&gt;node9</title>
<path fill="none" stroke="black" d="M2919.92,-95.2655C3029.39,-86.6497 3226.92,-71.6857 3396,-62 3581.2,-51.3906 3628.18,-59.9384 3813,-44 3834.81,-42.1194 3858.19,-39.464 3880.22,-36.6719"/>
<polygon fill="black" stroke="black" points="3880.76,-40.1309 3890.23,-35.3817 3879.87,-33.1883 3880.76,-40.1309"/>
</g>
<!-- node18&#45;&gt;node10 -->
<g id="edge47" class="edge"><title>node18&#45;&gt;node10</title>
<path fill="none" stroke="black" d="M2920.73,-96.1765C2985.65,-91.7863 3077.47,-85.7334 3158,-81 3319.28,-71.5207 3359.58,-68.582 3521,-62 3794.67,-50.841 3864,-66.0724 4137,-44 4158.55,-42.2578 4181.66,-39.6231 4203.37,-36.8029"/>
<polygon fill="black" stroke="black" points="4204.12,-40.2348 4213.57,-35.4518 4203.2,-33.2954 4204.12,-40.2348"/>
</g>
<!-- node18&#45;&gt;node11 -->
<g id="edge48" class="edge"><title>node18&#45;&gt;node11</title>
<path fill="none" stroke="black" d="M2920.71,-95.7835C2985.62,-91.1875 3077.43,-85.0491 3158,-81 3396.96,-68.991 3456.84,-69.0661 3696,-62 4032.39,-52.0609 4117.53,-70.7773 4453,-44 4474.25,-42.3041 4497.04,-39.6554 4518.41,-36.8034"/>
<polygon fill="black" stroke="black" points="4519.01,-40.2545 4528.44,-35.436 4518.06,-33.3186 4519.01,-40.2545"/>
</g>
<!-- node18&#45;&gt;node12 -->
<g id="edge49" class="edge"><title>node18&#45;&gt;node12</title>
<path fill="none" stroke="black" d="M2920.7,-95.5772C2985.6,-90.873 3077.41,-84.6897 3158,-81 3477.78,-66.3587 3557.98,-69.4843 3878,-62 4270.42,-52.8226 4369.67,-74.5684 4761,-44 4782.25,-42.3401 4805.05,-39.7052 4826.42,-36.8551"/>
<polygon fill="black" stroke="black" points="4827.01,-40.3061 4836.45,-35.4877 4826.07,-33.3703 4827.01,-40.3061"/>
</g>
<!-- node18&#45;&gt;node13 -->
<g id="edge50" class="edge"><title>node18&#45;&gt;node13</title>
<path fill="none" stroke="black" d="M2920.35,-95.4568C2985.28,-90.6732 3077.26,-84.4427 3158,-81 3577.7,-63.1039 3682.99,-70.1354 4103,-62 4532.33,-53.6841 4640.79,-75.9903 5069,-44 5091.17,-42.3439 5114.97,-39.6969 5137.25,-36.8325"/>
<polygon fill="black" stroke="black" points="5137.92,-40.2756 5147.37,-35.5038 5137,-33.3351 5137.92,-40.2756"/>
</g>
<!-- node18&#45;&gt;node14 -->
<g id="edge51" class="edge"><title>node18&#45;&gt;node14</title>
<path fill="none" stroke="black" d="M2751.27,-98.4719C2573.26,-91.1232 2147.36,-73.8736 1790,-62 1506.49,-52.58 1434.7,-67.446 1152,-44 1131.24,-42.2781 1108.98,-39.6485 1088.07,-36.8265"/>
<polygon fill="black" stroke="black" points="1088.31,-33.3268 1077.93,-35.4288 1087.36,-40.2613 1088.31,-33.3268"/>
</g>
<!-- node18&#45;&gt;node15 -->
<g id="edge52" class="edge"><title>node18&#45;&gt;node15</title>
<path fill="none" stroke="black" d="M2751.1,-98.0161C2591.62,-90.5777 2236.32,-74.2248 1937,-62 1721.92,-53.2158 1667.43,-62.8497 1453,-44 1432.49,-42.1974 1410.51,-39.5519 1389.84,-36.742"/>
<polygon fill="black" stroke="black" points="1390.2,-33.258 1379.81,-35.3523 1389.24,-40.1918 1390.2,-33.258"/>
</g>
<!-- node18&#45;&gt;node17 -->
<g id="edge54" class="edge"><title>node18&#45;&gt;node17</title>
<path fill="none" stroke="black" d="M2751.33,-96.1909C2685.33,-91.7522 2591.36,-85.63 2509,-81 2333.96,-71.1597 2290.18,-68.9795 2115,-62 2051.46,-59.4685 1604.85,-58.7466 1543,-44 1538.22,-42.8603 1533.34,-41.1871 1528.64,-39.2744"/>
<polygon fill="black" stroke="black" points="1529.88,-35.9989 1519.33,-35.1062 1527.02,-42.3876 1529.88,-35.9989"/>
</g>
<!-- node19 -->
<g id="node28" class="node"><title>node19</title>
<polygon fill="none" stroke="black" points="818.126,-17.9946 812.159,-33.2228 788,-40 763.841,-33.2228 757.874,-17.9946 774.593,-5.78256 801.407,-5.78256 818.126,-17.9946"/>
<text text-anchor="middle" x="788" y="-18.9" font-family="Times New Roman,serif" font-size="12.00">libucrt</text>
</g>
<!-- node18&#45;&gt;node19 -->
<g id="edge53" class="edge"><title>node18&#45;&gt;node19</title>
<path fill="none" stroke="black" d="M2751.22,-99.5677C2372.63,-88.7014 854.943,-45.0837 849,-44 839.954,-42.3504 830.436,-39.5989 821.679,-36.622"/>
<polygon fill="black" stroke="black" points="822.776,-33.2973 812.182,-33.2119 820.411,-39.8855 822.776,-33.2973"/>
</g>
<!-- node20 -->
<g id="node29" class="node"><title>node20</title>
<polygon fill="none" stroke="black" points="2913.93,-176.544 2913.93,-191.456 2876.48,-202 2823.52,-202 2786.07,-191.456 2786.07,-176.544 2823.52,-166 2876.48,-166 2913.93,-176.544"/>
<text text-anchor="middle" x="2850" y="-180.9" font-family="Times New Roman,serif" font-size="12.00">OmexMeta&#45;static</text>
</g>
<!-- node20&#45;&gt;node2 -->
<g id="edge57" class="edge"><title>node20&#45;&gt;node2</title>
<path fill="none" stroke="black" d="M2785.69,-178.011C2690.61,-170.066 2507.14,-152.563 2353,-125 2235.96,-104.07 2210.35,-81.1088 2093,-62 2000.11,-46.8739 1975.61,-53.8048 1882,-44 1860.45,-41.743 1837.39,-39.0575 1815.45,-36.3738"/>
<polygon fill="black" stroke="black" points="1815.82,-32.8919 1805.46,-35.1423 1814.96,-39.8393 1815.82,-32.8919"/>
</g>
<!-- node20&#45;&gt;node3 -->
<g id="edge58" class="edge"><title>node20&#45;&gt;node3</title>
<path fill="none" stroke="black" d="M2797.07,-173.415C2736.52,-162.322 2634.43,-143.234 2547,-125 2422.56,-99.0466 2392.6,-87.1997 2268,-62 2225.01,-53.3051 2177.04,-44.6147 2137.07,-37.6515"/>
<polygon fill="black" stroke="black" points="2137.54,-34.1807 2127.09,-35.9194 2136.34,-41.0776 2137.54,-34.1807"/>
</g>
<!-- node20&#45;&gt;node4 -->
<g id="edge59" class="edge"><title>node20&#45;&gt;node4</title>
<path fill="none" stroke="black" d="M2810.4,-169.634C2725.22,-140.879 2524.54,-73.1386 2428.71,-40.794"/>
<polygon fill="black" stroke="black" points="2429.82,-37.4719 2419.22,-37.5898 2427.58,-44.1042 2429.82,-37.4719"/>
</g>
<!-- node20&#45;&gt;node5 -->
<g id="edge60" class="edge"><title>node20&#45;&gt;node5</title>
<path fill="none" stroke="black" d="M2810.8,-169.549C2788.18,-160.097 2760.62,-145.46 2742,-125 2722.57,-103.653 2711.14,-72.2395 2705.01,-49.9226"/>
<polygon fill="black" stroke="black" points="2708.36,-48.897 2702.48,-40.0801 2701.57,-50.6361 2708.36,-48.897"/>
</g>
<!-- node20&#45;&gt;node6 -->
<g id="edge61" class="edge"><title>node20&#45;&gt;node6</title>
<path fill="none" stroke="black" d="M2852.28,-165.821C2854.18,-157.88 2857.65,-148.919 2864,-143 2886.24,-122.271 2903.9,-140.59 2930,-125 2963.11,-105.223 2992.27,-71.0595 3009.76,-47.7674"/>
<polygon fill="black" stroke="black" points="3012.78,-49.5597 3015.87,-39.4254 3007.14,-45.4209 3012.78,-49.5597"/>
</g>
<!-- node20&#45;&gt;node7 -->
<g id="edge62" class="edge"><title>node20&#45;&gt;node7</title>
<path fill="none" stroke="black" d="M2880.97,-167.212C2897.12,-159.333 2917.35,-150.014 2936,-143 3054.84,-98.3071 3198.06,-59.8327 3280.23,-39.1749"/>
<polygon fill="black" stroke="black" points="3281.09,-42.5676 3289.94,-36.7447 3279.39,-35.7769 3281.09,-42.5676"/>
</g>
<!-- node20&#45;&gt;node8 -->
<g id="edge63" class="edge"><title>node20&#45;&gt;node8</title>
<path fill="none" stroke="black" d="M2902.83,-173.215C2954.08,-164.072 3034.11,-150.708 3104,-143 3229.27,-129.182 3263.78,-151.488 3387,-125 3431.29,-115.478 3547.56,-68.7989 3612.49,-42.0071"/>
<polygon fill="black" stroke="black" points="3614.16,-45.1023 3622.07,-38.046 3611.49,-38.6338 3614.16,-45.1023"/>
</g>
<!-- node20&#45;&gt;node9 -->
<g id="edge64" class="edge"><title>node20&#45;&gt;node9</title>
<path fill="none" stroke="black" d="M2914.04,-177.941C3048.92,-167.12 3358.45,-141.384 3463,-125 3552.92,-110.909 3573.8,-99.0974 3663,-81 3740.26,-65.3239 3828.63,-49.051 3891.55,-37.7463"/>
<polygon fill="black" stroke="black" points="3892.2,-41.1858 3901.43,-35.9755 3890.97,-34.2958 3892.2,-41.1858"/>
</g>
<!-- node20&#45;&gt;node10 -->
<g id="edge65" class="edge"><title>node20&#45;&gt;node10</title>
<path fill="none" stroke="black" d="M2914.25,-178.126C3041.42,-168.475 3316.69,-147.552 3360,-144 3456.49,-136.087 3481.07,-138.037 3577,-125 3683.59,-110.514 3708.63,-97.014 3815,-81 3887.12,-70.1422 3905.54,-70.3244 3978,-62 4048.65,-53.8829 4066.41,-52.6854 4137,-44 4156.38,-41.6149 4177.09,-38.9488 4196.91,-36.3379"/>
<polygon fill="black" stroke="black" points="4197.42,-39.8015 4206.87,-35.021 4196.5,-32.8619 4197.42,-39.8015"/>
</g>
<!-- node20&#45;&gt;node11 -->
<g id="edge66" class="edge"><title>node20&#45;&gt;node11</title>
<path fill="none" stroke="black" d="M2913.98,-177.876C2980.26,-172.63 3086.85,-164.364 3179,-158 3414.89,-141.708 3476.21,-160.398 3710,-125 3791.85,-112.607 3809.4,-94.9949 3891,-81 3973.34,-66.878 3994.69,-68.2271 4078,-62 4244.39,-49.5622 4286.84,-59.287 4453,-44 4473.55,-42.1092 4495.57,-39.4737 4516.34,-36.7073"/>
<polygon fill="black" stroke="black" points="4516.99,-40.1518 4526.43,-35.3414 4516.05,-33.2152 4516.99,-40.1518"/>
</g>
<!-- node20&#45;&gt;node12 -->
<g id="edge67" class="edge"><title>node20&#45;&gt;node12</title>
<path fill="none" stroke="black" d="M2913.94,-177.384C2980.2,-171.743 3086.78,-163.166 3179,-158 3351.29,-148.35 3394.72,-153.73 3567,-144 3676.93,-137.791 3705.65,-144.538 3814,-125 3883.63,-112.444 3897.64,-94.9702 3967,-81 4037.63,-66.7739 4056.14,-67.2514 4128,-62 4408.7,-41.487 4480.5,-67.0466 4761,-44 4782.13,-42.2642 4804.79,-39.6162 4826.06,-36.7792"/>
<polygon fill="black" stroke="black" points="4826.61,-40.2367 4836.04,-35.42 4825.66,-33.3006 4826.61,-40.2367"/>
</g>
<!-- node20&#45;&gt;node13 -->
<g id="edge68" class="edge"><title>node20&#45;&gt;node13</title>
<path fill="none" stroke="black" d="M2914.24,-177.015C2980.5,-171.101 3086.88,-162.329 3179,-158 3222.02,-155.979 3915.79,-163.851 3954,-144 3984.77,-128.018 3969.37,-97.2354 4000,-81 4052.51,-53.172 5009.78,-48.9 5069,-44 5090.79,-42.197 5114.17,-39.5415 5136.14,-36.7209"/>
<polygon fill="black" stroke="black" points="5136.66,-40.1825 5146.12,-35.4158 5135.75,-33.2416 5136.66,-40.1825"/>
</g>
<!-- node20&#45;&gt;node14 -->
<g id="edge69" class="edge"><title>node20&#45;&gt;node14</title>
<path fill="none" stroke="black" d="M2785.87,-177.849C2714.45,-172.266 2595.53,-163.429 2493,-158 2196.16,-142.283 2116.99,-180.685 1825,-125 1761.76,-112.94 1750.1,-93.7541 1687,-81 1595.14,-62.4332 1570.47,-68.8145 1477,-62 1332.72,-51.4806 1296,-57.911 1152,-44 1131.83,-42.0517 1110.23,-39.4076 1089.83,-36.653"/>
<polygon fill="black" stroke="black" points="1090.31,-33.1855 1079.92,-35.2945 1089.36,-40.1206 1090.31,-33.1855"/>
</g>
<!-- node20&#45;&gt;node15 -->
<g id="edge70" class="edge"><title>node20&#45;&gt;node15</title>
<path fill="none" stroke="black" d="M2785.84,-178.39C2714.38,-173.282 2595.44,-164.863 2493,-158 2263.71,-142.64 2203.38,-164.517 1977,-125 1907.72,-112.906 1893.98,-94.6892 1825,-81 1749.56,-66.03 1729.53,-69.6696 1653,-62 1564.2,-53.0999 1541.67,-54.1498 1453,-44 1433.85,-41.8084 1413.38,-39.1648 1393.89,-36.5035"/>
<polygon fill="black" stroke="black" points="1394.19,-33.0109 1383.8,-35.1126 1393.23,-39.9453 1394.19,-33.0109"/>
</g>
<!-- node20&#45;&gt;node17 -->
<g id="edge72" class="edge"><title>node20&#45;&gt;node17</title>
<path fill="none" stroke="black" stroke-dasharray="1,5" d="M2786.04,-178.507C2642.03,-168.221 2295.88,-142.501 2180,-125 2088.72,-111.213 2067.96,-96.7484 1977,-81 1912.52,-69.8373 1896.14,-68.2666 1831,-62 1703.34,-49.7179 1667.28,-75.6702 1543,-44 1538.34,-42.8118 1533.57,-41.1435 1528.96,-39.2609"/>
<polygon fill="black" stroke="black" points="1530.38,-36.0602 1519.82,-35.181 1527.53,-42.4525 1530.38,-36.0602"/>
</g>
<!-- node20&#45;&gt;node18 -->
<g id="edge71" class="edge"><title>node20&#45;&gt;node18</title>
<path fill="none" stroke="black" stroke-dasharray="1,5" d="M2842.41,-165.875C2839.83,-159.189 2837.28,-151.371 2836,-144 2835.3,-139.959 2834.92,-135.654 2834.75,-131.421"/>
<polygon fill="black" stroke="black" points="2838.25,-131.226 2834.71,-121.241 2831.25,-131.255 2838.25,-131.226"/>
</g>
<!-- node21 -->
<g id="node30" class="node"><title>node21</title>
<polygon fill="none" stroke="black" points="3306.11,-275.544 3306.11,-290.456 3269.14,-301 3216.86,-301 3179.89,-290.456 3179.89,-275.544 3216.86,-265 3269.14,-265 3306.11,-275.544"/>
<polygon fill="none" stroke="black" points="3310.1,-272.523 3310.1,-293.477 3269.7,-305 3216.3,-305 3175.9,-293.477 3175.9,-272.523 3216.3,-261 3269.7,-261 3310.1,-272.523"/>
<text text-anchor="middle" x="3243" y="-279.9" font-family="Times New Roman,serif" font-size="12.00">OmexMetaCAPI</text>
</g>
<!-- node21&#45;&gt;node0 -->
<g id="edge87" class="edge"><title>node21&#45;&gt;node0</title>
<path fill="none" stroke="black" stroke-dasharray="1,5" d="M3241.7,-260.952C3240.89,-247.86 3239.83,-230.788 3238.93,-216.147"/>
<polygon fill="black" stroke="black" points="3242.41,-215.771 3238.3,-206.006 3235.42,-216.204 3242.41,-215.771"/>
</g>
<!-- node21&#45;&gt;node2 -->
<g id="edge73" class="edge"><title>node21&#45;&gt;node2</title>
<path fill="none" stroke="black" stroke-dasharray="1,5" d="M3175.69,-282.386C3026.76,-282.445 2658.33,-278.213 2353,-239 2282.28,-229.918 2264.43,-226.025 2196,-206 2152.36,-193.23 1874.65,-85.8092 1761.19,-41.7454"/>
<polygon fill="black" stroke="black" points="1762.29,-38.4166 1751.7,-38.0579 1759.75,-44.9416 1762.29,-38.4166"/>
</g>
<!-- node21&#45;&gt;node3 -->
<g id="edge74" class="edge"><title>node21&#45;&gt;node3</title>
<path fill="none" stroke="black" stroke-dasharray="1,5" d="M3175.67,-281.58C2986,-279.622 2450.5,-268.551 2288,-206 2196.15,-170.643 2110.31,-87.8793 2071.59,-46.882"/>
<polygon fill="black" stroke="black" points="2074.08,-44.4231 2064.7,-39.4996 2068.96,-49.1988 2074.08,-44.4231"/>
</g>
<!-- node21&#45;&gt;node4 -->
<g id="edge75" class="edge"><title>node21&#45;&gt;node4</title>
<path fill="none" stroke="black" stroke-dasharray="1,5" d="M3208.71,-263.039C3181.91,-249.31 3143.25,-231.841 3107,-224 3064.31,-214.766 2352.18,-236.59 2321,-206 2275.28,-161.139 2284.24,-118.184 2315,-62 2318.91,-54.8681 2324.73,-48.8504 2331.26,-43.839"/>
<polygon fill="black" stroke="black" points="2333.51,-46.5403 2339.81,-38.0215 2329.57,-40.7526 2333.51,-46.5403"/>
</g>
<!-- node21&#45;&gt;node5 -->
<g id="edge76" class="edge"><title>node21&#45;&gt;node5</title>
<path fill="none" stroke="black" stroke-dasharray="1,5" d="M3219.35,-260.799C3203.06,-247.599 3180.25,-231.712 3157,-224 3076.76,-197.379 2852.34,-244.358 2777,-206 2735.87,-185.057 2730.04,-167.487 2712,-125 2701.84,-101.072 2699.03,-71.3632 2698.5,-50.1917"/>
<polygon fill="black" stroke="black" points="2702,-49.9403 2698.4,-39.9744 2695,-50.0076 2702,-49.9403"/>
</g>
<!-- node21&#45;&gt;node6 -->
<g id="edge77" class="edge"><title>node21&#45;&gt;node6</title>
<path fill="none" stroke="black" stroke-dasharray="1,5" d="M3310.46,-275.429C3402.51,-263.577 3550.7,-232.524 3501,-158 3459.66,-96.0129 3255.19,-55.886 3128.68,-36.5646"/>
<polygon fill="black" stroke="black" points="3128.99,-33.0717 3118.58,-35.0407 3127.95,-39.9933 3128.99,-33.0717"/>
</g>
<!-- node21&#45;&gt;node7 -->
<g id="edge78" class="edge"><title>node21&#45;&gt;node7</title>
<path fill="none" stroke="black" stroke-dasharray="1,5" d="M3310.16,-282.37C3446.81,-282.238 3766.75,-277.412 4032,-239 4249,-207.575 4376.04,-297.029 4512,-125 4581.54,-37.0133 4676.48,-98.9565 3828,-63 3683.44,-56.8738 3647.02,-57.8839 3503,-44 3482.43,-42.0169 3460.4,-39.3729 3439.56,-36.6315"/>
<polygon fill="black" stroke="black" points="3439.82,-33.1347 3429.45,-35.2803 3438.89,-40.0731 3439.82,-33.1347"/>
</g>
<!-- node21&#45;&gt;node8 -->
<g id="edge79" class="edge"><title>node21&#45;&gt;node8</title>
<path fill="none" stroke="black" stroke-dasharray="1,5" d="M3310.37,-281.065C3468.68,-278.423 3876.61,-269.021 4216,-239 4326.76,-229.203 4360.13,-245.687 4464,-206 4523.76,-183.165 4553.08,-181.553 4583,-125 4592.14,-107.714 4596.63,-95.0239 4583,-81 4558.6,-55.8901 3987.9,-65.8564 3953,-63 3882.51,-57.2308 3803.1,-46.201 3744.44,-37.1826"/>
<polygon fill="black" stroke="black" points="3744.89,-33.7107 3734.47,-35.639 3743.82,-40.6283 3744.89,-33.7107"/>
</g>
<!-- node21&#45;&gt;node9 -->
<g id="edge80" class="edge"><title>node21&#45;&gt;node9</title>
<path fill="none" stroke="black" stroke-dasharray="1,5" d="M3310.31,-282.215C3480.66,-282.132 3942.53,-278.002 4325,-239 4414.63,-229.86 4438.07,-229.668 4525,-206 4621.52,-179.72 4678.41,-207.488 4735,-125 4746.06,-108.875 4748.39,-95.2484 4735,-81 4689.4,-32.4951 4203.27,-50.3381 4137,-44 4115.8,-41.9721 4093.09,-39.3265 4071.59,-36.6003"/>
<polygon fill="black" stroke="black" points="4071.84,-33.1038 4061.47,-35.3011 4070.95,-40.0467 4071.84,-33.1038"/>
</g>
<!-- node21&#45;&gt;node10 -->
<g id="edge81" class="edge"><title>node21&#45;&gt;node10</title>
<path fill="none" stroke="black" stroke-dasharray="1,5" d="M3310.32,-281.987C3488.52,-281.415 3987.11,-276.317 4400,-239 4564.2,-224.16 4689.91,-277.318 4753,-125 4760.48,-106.933 4765.95,-95.6497 4753,-81 4708.5,-30.6793 4519.63,-52.5362 4453,-44 4433.95,-41.5594 4413.62,-38.8987 4394.1,-36.3166"/>
<polygon fill="black" stroke="black" points="4394.35,-32.8192 4383.97,-34.9751 4393.43,-39.7586 4394.35,-32.8192"/>
</g>
<!-- node21&#45;&gt;node11 -->
<g id="edge82" class="edge"><title>node21&#45;&gt;node11</title>
<path fill="none" stroke="black" stroke-dasharray="1,5" d="M3310.35,-282.115C3584.04,-282.104 4604.16,-277.245 4728,-206 4800.46,-164.314 4903.2,-125.639 4849,-62 4846.47,-59.034 4767.61,-46.6936 4700.59,-36.6778"/>
<polygon fill="black" stroke="black" points="4700.78,-33.1677 4690.37,-35.1552 4699.75,-40.0912 4700.78,-33.1677"/>
</g>
<!-- node21&#45;&gt;node12 -->
<g id="edge83" class="edge"><title>node21&#45;&gt;node12</title>
<path fill="none" stroke="black" stroke-dasharray="1,5" d="M3310.21,-281.664C3632.82,-279.895 5008.23,-270.514 5039,-239 5089.46,-187.322 5050.95,-133.169 5001,-81 4987.02,-66.4026 4968.78,-53.4579 4952.69,-43.5219"/>
<polygon fill="black" stroke="black" points="4954.39,-40.4606 4944.01,-38.3201 4950.79,-46.4642 4954.39,-40.4606"/>
</g>
<!-- node21&#45;&gt;node13 -->
<g id="edge84" class="edge"><title>node21&#45;&gt;node13</title>
<path fill="none" stroke="black" stroke-dasharray="1,5" d="M3310.23,-282.002C3629.28,-281.812 4978.44,-278.657 5058,-239 5140.12,-198.064 5195.2,-97.1703 5217.64,-49.1784"/>
<polygon fill="black" stroke="black" points="5220.96,-50.3313 5221.93,-39.781 5214.59,-47.4233 5220.96,-50.3313"/>
</g>
<!-- node21&#45;&gt;node14 -->
<g id="edge85" class="edge"><title>node21&#45;&gt;node14</title>
<path fill="none" stroke="black" stroke-dasharray="1,5" d="M3175.63,-282.025C2920.8,-281.59 2016.18,-275.102 1738,-206 1638.09,-181.182 1613.42,-170.335 1521,-125 1487.67,-108.651 1485.01,-93.3509 1450,-81 1324.14,-36.598 1284.33,-61.3553 1152,-44 1133.64,-41.5921 1114.05,-38.9437 1095.24,-36.3628"/>
<polygon fill="black" stroke="black" points="1095.57,-32.8756 1085.19,-34.9796 1094.62,-39.8102 1095.57,-32.8756"/>
</g>
<!-- node21&#45;&gt;node15 -->
<g id="edge86" class="edge"><title>node21&#45;&gt;node15</title>
<path fill="none" stroke="black" stroke-dasharray="1,5" d="M3175.83,-281.781C3003.12,-280.7 2529.57,-274.457 2137,-239 2033.27,-229.631 2006.45,-229.541 1905,-206 1730.16,-165.432 1693.15,-131.772 1521,-81 1469.73,-65.8779 1411.17,-50.4646 1367.51,-39.3316"/>
<polygon fill="black" stroke="black" points="1368.15,-35.8815 1357.59,-36.8101 1366.42,-42.6658 1368.15,-35.8815"/>
</g>
<!-- node21&#45;&gt;node16 -->
<g id="edge89" class="edge"><title>node21&#45;&gt;node16</title>
<path fill="none" stroke="black" stroke-dasharray="1,5" d="M3262.76,-260.864C3283.37,-236.124 3310.65,-193.959 3295,-158 3290.59,-147.859 3283.22,-138.762 3275.2,-131.053"/>
<polygon fill="black" stroke="black" points="3277.51,-128.419 3267.71,-124.374 3272.85,-133.643 3277.51,-128.419"/>
</g>
<!-- node21&#45;&gt;node17 -->
<g id="edge90" class="edge"><title>node21&#45;&gt;node17</title>
<path fill="none" stroke="black" stroke-dasharray="1,5" d="M3175.61,-281.894C3015.84,-281.024 2601.65,-275.147 2258,-239 2169.71,-229.713 2147.1,-227.617 2061,-206 1867.16,-157.335 1828.16,-113.3 1635,-62 1594.73,-51.3054 1582.62,-56.905 1543,-44 1538.73,-42.6106 1534.34,-40.9184 1530.06,-39.1041"/>
<polygon fill="black" stroke="black" points="1531.48,-35.9049 1520.92,-35.0068 1528.61,-42.2921 1531.48,-35.9049"/>
</g>
<!-- node21&#45;&gt;node20 -->
<g id="edge88" class="edge"><title>node21&#45;&gt;node20</title>
<path fill="none" stroke="black" d="M3234.35,-260.774C3227.94,-247.916 3217.91,-232.419 3204,-224 3158.42,-196.409 3013.75,-188.292 2924.08,-185.933"/>
<polygon fill="black" stroke="black" points="2924.05,-182.432 2913.96,-185.686 2923.87,-189.43 2924.05,-182.432"/>
</g>
<!-- node22 -->
<g id="node31" class="node"><title>node22</title>
<polygon fill="none" stroke="black" points="660.22,-350.049 665,-350.148 669.731,-350.295 674.393,-350.491 678.968,-350.735 683.436,-351.027 687.781,-351.364 691.985,-351.748 696.033,-352.176 699.909,-352.647 703.6,-353.161 707.093,-353.715 710.375,-354.308 713.437,-354.939 716.27,-355.605 718.865,-356.306 721.217,-357.039 723.32,-357.801 725.171,-358.592 726.767,-359.408 728.107,-360.248 729.192,-361.109 730.023,-361.989 730.602,-362.886 730.934,-363.797 731.024,-364.719 730.876,-365.65 730.499,-366.587 729.899,-367.529 729.085,-368.471 728.066,-369.413 726.851,-370.35 725.45,-371.281 723.874,-372.203 722.132,-373.114 720.235,-374.011 718.195,-374.891 716.021,-375.752 713.724,-376.592 711.314,-377.408 708.801,-378.199 706.195,-378.961 703.504,-379.694 700.739,-380.395 697.906,-381.061 695.014,-381.692 692.07,-382.285 689.08,-382.839 686.052,-383.353 682.989,-383.824 679.899,-384.252 676.783,-384.636 673.648,-384.973 670.497,-385.265 667.332,-385.509 664.158,-385.705 660.975,-385.852 657.787,-385.951 654.596,-386 651.404,-386 648.213,-385.951 645.025,-385.852 641.842,-385.705 638.668,-385.509 635.503,-385.265 632.352,-384.973 629.217,-384.636 626.101,-384.252 623.011,-383.824 619.948,-383.353 616.92,-382.839 613.93,-382.285 610.986,-381.692 608.094,-381.061 605.261,-380.395 602.496,-379.694 599.805,-378.961 597.199,-378.199 594.686,-377.408 592.276,-376.592 589.979,-375.752 587.805,-374.891 585.765,-374.011 583.868,-373.114 582.126,-372.203 580.55,-371.281 579.149,-370.35 577.934,-369.413 576.915,-368.471 576.101,-367.529 575.501,-366.587 575.124,-365.65 574.976,-364.719 575.066,-363.797 575.398,-362.886 575.977,-361.989 576.808,-361.109 577.893,-360.248 579.233,-359.408 580.829,-358.592 582.68,-357.801 584.783,-357.039 587.135,-356.306 589.73,-355.605 592.563,-354.939 595.625,-354.308 598.907,-353.715 602.4,-353.161 606.091,-352.647 609.967,-352.176 614.015,-351.748 618.219,-351.364 622.564,-351.027 627.032,-350.735 631.607,-350.491 636.269,-350.295 641,-350.148 645.78,-350.049 650.59,-350 655.41,-350 660.22,-350.049"/>
<text text-anchor="middle" x="653" y="-364.9" font-family="Times New Roman,serif" font-size="12.00">OmexMetaCAPITests</text>
</g>
<!-- node22&#45;&gt;node19 -->
<g id="edge96" class="edge"><title>node22&#45;&gt;node19</title>
<path fill="none" stroke="black" stroke-dasharray="1,5" d="M625.024,-350.697C604.068,-336.163 579,-312.765 579,-284 579,-284 579,-284 579,-143 579,-114.18 577.61,-101.368 598,-81 619.698,-59.3255 702.95,-39.7733 751.757,-29.8557"/>
<polygon fill="black" stroke="black" points="752.493,-33.2779 761.615,-27.8883 751.123,-26.4133 752.493,-33.2779"/>
</g>
<!-- node22&#45;&gt;node20 -->
<g id="edge91" class="edge"><title>node22&#45;&gt;node20</title>
<path fill="none" stroke="black" stroke-dasharray="1,5" d="M703.275,-353.033C715.224,-350.224 727.991,-347.636 740,-346 1220.29,-280.573 1346.73,-346.506 1830,-309 2190.9,-280.991 2620.53,-219.476 2783.18,-195.17"/>
<polygon fill="black" stroke="black" points="2784.13,-198.566 2793.5,-193.623 2783.09,-191.644 2784.13,-198.566"/>
</g>
<!-- node22&#45;&gt;node21 -->
<g id="edge92" class="edge"><title>node22&#45;&gt;node21</title>
<path fill="none" stroke="black" stroke-dasharray="1,5" d="M702.786,-352.913C714.868,-350.071 727.817,-347.498 740,-346 995.529,-314.59 2801.4,-358.828 3057,-328 3100.21,-322.788 3147.97,-311.366 3184.28,-301.466"/>
<polygon fill="black" stroke="black" points="3185.49,-304.76 3194.2,-298.72 3183.63,-298.014 3185.49,-304.76"/>
</g>
<!-- node23 -->
<g id="node32" class="node"><title>node23</title>
<polygon fill="none" stroke="black" points="675,-14.5442 675,-29.4558 659.184,-40 636.816,-40 621,-29.4558 621,-14.5442 636.816,-4 659.184,-4 675,-14.5442"/>
<polygon fill="none" stroke="black" points="679,-12.4034 679,-31.5966 660.395,-44 635.605,-44 617,-31.5966 617,-12.4034 635.605,-3.55271e-015 660.395,-0 679,-12.4034"/>
<text text-anchor="middle" x="648" y="-18.9" font-family="Times New Roman,serif" font-size="12.00">gtest</text>
</g>
<!-- node22&#45;&gt;node23 -->
<g id="edge93" class="edge"><title>node22&#45;&gt;node23</title>
<path fill="none" stroke="black" stroke-dasharray="1,5" d="M605.827,-352.593C575.218,-339.991 541,-318.246 541,-284 541,-284 541,-284 541,-102 541,-67.7249 576.973,-46.6373 607.203,-34.9675"/>
<polygon fill="black" stroke="black" points="608.553,-38.2012 616.764,-31.5048 606.169,-31.6196 608.553,-38.2012"/>
</g>
<!-- node24 -->
<g id="node33" class="node"><title>node24</title>
<polygon fill="none" stroke="black" points="697.137,-95.5442 697.137,-110.456 671.868,-121 636.132,-121 610.863,-110.456 610.863,-95.5442 636.132,-85 671.868,-85 697.137,-95.5442"/>
<polygon fill="none" stroke="black" points="701.121,-92.8749 701.121,-113.125 672.663,-125 635.337,-125 606.879,-113.125 606.879,-92.8749 635.337,-81 672.663,-81 701.121,-92.8749"/>
<text text-anchor="middle" x="654" y="-99.9" font-family="Times New Roman,serif" font-size="12.00">gtest_main</text>
</g>
<!-- node22&#45;&gt;node24 -->
<g id="edge95" class="edge"><title>node22&#45;&gt;node24</title>
<path fill="none" stroke="black" stroke-dasharray="1,5" d="M653.066,-349.744C653.231,-306.156 653.669,-191.132 653.881,-135.295"/>
<polygon fill="black" stroke="black" points="657.381,-135.285 653.919,-125.272 650.381,-135.258 657.381,-135.285"/>
</g>
<!-- node24&#45;&gt;node23 -->
<g id="edge94" class="edge"><title>node24&#45;&gt;node23</title>
<path fill="none" stroke="black" d="M652.392,-80.8294C651.773,-72.6826 651.053,-63.1991 650.377,-54.2971"/>
<polygon fill="black" stroke="black" points="653.86,-53.9352 649.612,-44.229 646.88,-54.4654 653.86,-53.9352"/>
</g>
<!-- node25 -->
<g id="node34" class="node"><title>node25</title>
<polygon fill="none" stroke="black" points="1766.56,-265.049 1770.25,-265.148 1773.89,-265.295 1777.49,-265.491 1781.01,-265.735 1784.45,-266.027 1787.8,-266.364 1791.04,-266.748 1794.16,-267.176 1797.15,-267.647 1799.99,-268.161 1802.68,-268.715 1805.21,-269.308 1807.57,-269.939 1809.75,-270.605 1811.75,-271.306 1813.57,-272.039 1815.19,-272.801 1816.61,-273.592 1817.84,-274.408 1818.88,-275.248 1819.71,-276.109 1820.35,-276.989 1820.8,-277.886 1821.06,-278.797 1821.12,-279.719 1821.01,-280.65 1820.72,-281.587 1820.26,-282.529 1819.63,-283.471 1818.84,-284.413 1817.91,-285.35 1816.83,-286.281 1815.61,-287.203 1814.27,-288.114 1812.81,-289.011 1811.24,-289.891 1809.56,-290.752 1807.79,-291.592 1805.94,-292.408 1804,-293.199 1801.99,-293.961 1799.92,-294.694 1797.79,-295.395 1795.6,-296.061 1793.38,-296.692 1791.11,-297.285 1788.8,-297.839 1786.47,-298.353 1784.11,-298.824 1781.73,-299.252 1779.33,-299.636 1776.91,-299.973 1774.48,-300.265 1772.04,-300.509 1769.6,-300.705 1767.15,-300.852 1764.69,-300.951 1762.23,-301 1759.77,-301 1757.31,-300.951 1754.85,-300.852 1752.4,-300.705 1749.96,-300.509 1747.52,-300.265 1745.09,-299.973 1742.67,-299.636 1740.27,-299.252 1737.89,-298.824 1735.53,-298.353 1733.2,-297.839 1730.89,-297.285 1728.62,-296.692 1726.4,-296.061 1724.21,-295.395 1722.08,-294.694 1720.01,-293.961 1718,-293.199 1716.06,-292.408 1714.21,-291.592 1712.44,-290.752 1710.76,-289.891 1709.19,-289.011 1707.73,-288.114 1706.39,-287.203 1705.17,-286.281 1704.09,-285.35 1703.16,-284.413 1702.37,-283.471 1701.74,-282.529 1701.28,-281.587 1700.99,-280.65 1700.88,-279.719 1700.94,-278.797 1701.2,-277.886 1701.65,-276.989 1702.29,-276.109 1703.12,-275.248 1704.16,-274.408 1705.39,-273.592 1706.81,-272.801 1708.43,-272.039 1710.25,-271.306 1712.25,-270.605 1714.43,-269.939 1716.79,-269.308 1719.32,-268.715 1722.01,-268.161 1724.85,-267.647 1727.84,-267.176 1730.96,-266.748 1734.2,-266.364 1737.55,-266.027 1740.99,-265.735 1744.51,-265.491 1748.11,-265.295 1751.75,-265.148 1755.44,-265.049 1759.14,-265 1762.86,-265 1766.56,-265.049"/>
<text text-anchor="middle" x="1761" y="-279.9" font-family="Times New Roman,serif" font-size="12.00">OmexMetaTests</text>
</g>
<!-- node25&#45;&gt;node2 -->
<g id="edge99" class="edge"><title>node25&#45;&gt;node2</title>
<path fill="none" stroke="black" stroke-dasharray="1,5" d="M1700.94,-281.079C1630.26,-278.574 1519.17,-269.708 1493,-239 1426.3,-160.746 1583.58,-78.3098 1666.25,-42.03"/>
<polygon fill="black" stroke="black" points="1667.67,-45.2282 1675.46,-38.0439 1664.89,-38.8042 1667.67,-45.2282"/>
</g>
<!-- node25&#45;&gt;node3 -->
<g id="edge100" class="edge"><title>node25&#45;&gt;node3</title>
<path fill="none" stroke="black" stroke-dasharray="1,5" d="M1754,-264.733C1751.23,-257 1748.38,-247.684 1747,-239 1742.59,-211.199 1756.46,-161.887 1759,-158 1803.83,-89.3239 1893.37,-54.9869 1961.35,-38.2074"/>
<polygon fill="black" stroke="black" points="1962.3,-41.5793 1971.22,-35.8571 1960.68,-34.7698 1962.3,-41.5793"/>
</g>
<!-- node25&#45;&gt;node4 -->
<g id="edge101" class="edge"><title>node25&#45;&gt;node4</title>
<path fill="none" stroke="black" stroke-dasharray="1,5" d="M1760.84,-264.825C1761.56,-238.02 1767.06,-186.375 1797,-158 1832.95,-123.923 2140.55,-65.0426 2292.19,-37.7183"/>
<polygon fill="black" stroke="black" points="2293.17,-41.0989 2302.39,-35.8855 2291.93,-34.2093 2293.17,-41.0989"/>
</g>
<!-- node25&#45;&gt;node5 -->
<g id="edge102" class="edge"><title>node25&#45;&gt;node5</title>
<path fill="none" stroke="black" stroke-dasharray="1,5" d="M1796.87,-267.476C1806.28,-263.866 1816.47,-260.135 1826,-257 2106.23,-164.826 2180.62,-155.747 2466,-81 2521.6,-66.4366 2584.9,-50.7355 2631.48,-39.3471"/>
<polygon fill="black" stroke="black" points="2632.56,-42.6842 2641.45,-36.912 2630.9,-35.884 2632.56,-42.6842"/>
</g>
<!-- node25&#45;&gt;node6 -->
<g id="edge103" class="edge"><title>node25&#45;&gt;node6</title>
<path fill="none" stroke="black" stroke-dasharray="1,5" d="M1820.91,-281.352C2045.43,-278.483 2828.94,-264.341 2923,-206 2980.26,-170.487 3008.99,-91.2041 3020.58,-49.6198"/>
<polygon fill="black" stroke="black" points="3023.97,-50.4731 3023.16,-39.9093 3017.21,-48.6722 3023.97,-50.4731"/>
</g>
<!-- node25&#45;&gt;node7 -->
<g id="edge104" class="edge"><title>node25&#45;&gt;node7</title>
<path fill="none" stroke="black" stroke-dasharray="1,5" d="M1821.29,-280.254C1984.59,-275.382 2449.09,-260.562 2835,-239 2847.79,-238.285 3284.17,-212.837 3295,-206 3353.29,-169.216 3347.36,-131.499 3355,-63 3355.48,-58.7242 3355.28,-54.2252 3354.69,-49.8497"/>
<polygon fill="black" stroke="black" points="3358.13,-49.1731 3352.78,-40.0275 3351.26,-50.5124 3358.13,-49.1731"/>
</g>
<!-- node25&#45;&gt;node8 -->
<g id="edge105" class="edge"><title>node25&#45;&gt;node8</title>
<path fill="none" stroke="black" stroke-dasharray="1,5" d="M1821.11,-280.836C1997.58,-277.209 2529.43,-264.779 2970,-239 3051.91,-234.207 3072.19,-230.316 3154,-224 3304.84,-212.354 4408.98,-235.799 4512,-125 4525.32,-110.678 4525.61,-95.0433 4512,-81 4489.84,-58.1285 3970.73,-65.7484 3939,-63 3872.45,-57.2355 3797.58,-46.3596 3741.87,-37.402"/>
<polygon fill="black" stroke="black" points="3742.13,-33.8982 3731.7,-35.7535 3741.01,-40.8081 3742.13,-33.8982"/>
</g>
<!-- node25&#45;&gt;node9 -->
<g id="edge106" class="edge"><title>node25&#45;&gt;node9</title>
<path fill="none" stroke="black" stroke-dasharray="1,5" d="M1821.02,-280.889C2175.68,-274.224 3990.11,-238.746 4236,-206 4370.77,-188.052 4461.48,-241.845 4531,-125 4596.73,-14.5301 4455.76,-79.6158 4137,-44 4116.65,-41.7267 4094.9,-39.0656 4074.15,-36.4163"/>
<polygon fill="black" stroke="black" points="4074.42,-32.9223 4064.06,-35.1184 4073.53,-39.8651 4074.42,-32.9223"/>
</g>
<!-- node25&#45;&gt;node10 -->
<g id="edge107" class="edge"><title>node25&#45;&gt;node10</title>
<path fill="none" stroke="black" stroke-dasharray="1,5" d="M1821.31,-280.983C2113.34,-276.019 3382.5,-253.963 3778,-239 3951.73,-232.427 4483.42,-284.756 4552,-125 4559.71,-107.03 4564.21,-96.2743 4552,-81 4541.2,-67.4857 4453.38,-49.685 4383.37,-37.3859"/>
<polygon fill="black" stroke="black" points="4383.63,-33.879 4373.18,-35.6123 4382.43,-40.7753 4383.63,-33.879"/>
</g>
<!-- node25&#45;&gt;node11 -->
<g id="edge108" class="edge"><title>node25&#45;&gt;node11</title>
<path fill="none" stroke="black" stroke-dasharray="1,5" d="M1821.15,-280.937C2180.02,-274.587 4024.84,-241.854 4083,-239 4267.36,-229.954 4330.72,-286.143 4497,-206 4559.16,-176.04 4589.08,-92.8892 4600.78,-49.7449"/>
<polygon fill="black" stroke="black" points="4604.2,-50.4985 4603.31,-39.9411 4597.43,-48.7489 4604.2,-50.4985"/>
</g>
<!-- node25&#45;&gt;node12 -->
<g id="edge109" class="edge"><title>node25&#45;&gt;node12</title>
<path fill="none" stroke="black" stroke-dasharray="1,5" d="M1820.95,-280.899C2015.31,-277.336 2645.54,-265.841 3167,-257 3415,-252.795 4035.62,-256.945 4283,-239 4551.68,-219.51 4631.27,-200.367 4863,-63 4871.73,-57.8273 4880.67,-51.4124 4888.63,-45.2457"/>
<polygon fill="black" stroke="black" points="4890.87,-47.9364 4896.52,-38.9716 4886.52,-42.4585 4890.87,-47.9364"/>
</g>
<!-- node25&#45;&gt;node13 -->
<g id="edge110" class="edge"><title>node25&#45;&gt;node13</title>
<path fill="none" stroke="black" stroke-dasharray="1,5" d="M1820.95,-280.872C2015.31,-277.229 2645.53,-265.518 3167,-257 3435.66,-252.612 4108.01,-258.408 4376,-239 4489.1,-230.809 4518.16,-229.957 4629,-206 4837.3,-160.977 5077.74,-77.856 5179.47,-41.1892"/>
<polygon fill="black" stroke="black" points="5180.66,-44.4801 5188.87,-37.7887 5178.28,-37.8971 5180.66,-44.4801"/>
</g>
<!-- node25&#45;&gt;node14 -->
<g id="edge111" class="edge"><title>node25&#45;&gt;node14</title>
<path fill="none" stroke="black" stroke-dasharray="1,5" d="M1701.11,-281.262C1519.74,-278.71 984.405,-268.717 912,-239 844.453,-211.277 826.999,-142.083 867,-81 879.923,-61.266 901.188,-48.2084 922.962,-39.5834"/>
<polygon fill="black" stroke="black" points="924.452,-42.7653 932.637,-36.0383 922.043,-36.1926 924.452,-42.7653"/>
</g>
<!-- node25&#45;&gt;node15 -->
<g id="edge112" class="edge"><title>node25&#45;&gt;node15</title>
<path fill="none" stroke="black" stroke-dasharray="1,5" d="M1701.08,-281.057C1524.14,-277.967 1011.91,-266.707 942,-239 920.892,-230.634 914.16,-225.774 903,-206 875.546,-157.358 853.361,-123.159 890,-81 890.326,-80.6251 1085.05,-53.3359 1206.64,-36.3276"/>
<polygon fill="black" stroke="black" points="1207.3,-39.7699 1216.72,-34.9184 1206.33,-32.8374 1207.3,-39.7699"/>
</g>
<!-- node25&#45;&gt;node17 -->
<g id="edge117" class="edge"><title>node25&#45;&gt;node17</title>
<path fill="none" stroke="black" stroke-dasharray="1,5" d="M1700.95,-280.581C1529.19,-276.26 1043.87,-262.132 976,-239 918.362,-219.354 910.087,-185.053 900,-125 896.761,-105.715 886.379,-95.0313 900,-81 946.999,-32.5867 1460,-111.413 1507,-63 1510.97,-58.9142 1511.57,-53.4757 1510.54,-47.9291"/>
<polygon fill="black" stroke="black" points="1513.74,-46.4772 1507.26,-38.097 1507.1,-48.6907 1513.74,-46.4772"/>
</g>
<!-- node25&#45;&gt;node19 -->
<g id="edge116" class="edge"><title>node25&#45;&gt;node19</title>
<path fill="none" stroke="black" stroke-dasharray="1,5" d="M1701.01,-281.289C1515.28,-278.781 957.644,-268.825 882,-239 808.296,-209.94 792.312,-101.173 788.897,-49.9717"/>
<polygon fill="black" stroke="black" points="792.39,-49.7601 788.343,-39.969 785.401,-50.1474 792.39,-49.7601"/>
</g>
<!-- node25&#45;&gt;node20 -->
<g id="edge113" class="edge"><title>node25&#45;&gt;node20</title>
<path fill="none" stroke="black" d="M1820.32,-276.716C2005.39,-260.232 2571.92,-209.769 2775.87,-191.603"/>
<polygon fill="black" stroke="black" points="2776.23,-195.085 2785.88,-190.711 2775.61,-188.112 2776.23,-195.085"/>
</g>
<!-- node25&#45;&gt;node23 -->
<g id="edge114" class="edge"><title>node25&#45;&gt;node23</title>
<path fill="none" stroke="black" stroke-dasharray="1,5" d="M1701.13,-281.166C1511.59,-278.249 932.458,-267.11 853,-239 763.71,-207.411 773.99,-150.826 710,-81 698.996,-68.9923 685.94,-56.5445 674.654,-46.2736"/>
<polygon fill="black" stroke="black" points="676.946,-43.6276 667.17,-39.543 672.265,-48.8324 676.946,-43.6276"/>
</g>
<!-- node25&#45;&gt;node24 -->
<g id="edge115" class="edge"><title>node25&#45;&gt;node24</title>
<path fill="none" stroke="black" stroke-dasharray="1,5" d="M1701.04,-281.266C1484.87,-278.394 756.027,-266.693 715,-239 705.729,-232.742 680.892,-172.655 665.924,-134.782"/>
<polygon fill="black" stroke="black" points="669.08,-133.244 662.166,-125.216 662.564,-135.803 669.08,-133.244"/>
</g>
<!-- node26 -->
<g id="node35" class="node"><title>node26</title>
<polygon fill="none" stroke="black" points="1440.71,-179.995 1392.24,-195.223 1196,-202 999.76,-195.223 951.293,-179.995 1087.1,-167.783 1304.9,-167.783 1440.71,-179.995"/>
<text text-anchor="middle" x="1196" y="-180.9" font-family="Times New Roman,serif" font-size="12.00">D:/libOmexMeta/cmake&#45;build&#45;release&#45;visual&#45;studio/lib/OmexMeta&#45;static.lib</text>
</g>
<!-- node25&#45;&gt;node26 -->
<g id="edge97" class="edge"><title>node25&#45;&gt;node26</title>
<path fill="none" stroke="black" stroke-dasharray="1,5" d="M1703.3,-275.044C1641.65,-267.343 1541.15,-254.016 1455,-239 1392.75,-228.148 1322.6,-213.364 1271.03,-202.009"/>
<polygon fill="black" stroke="black" points="1271.49,-198.526 1260.97,-199.786 1269.98,-205.361 1271.49,-198.526"/>
</g>
<!-- node27 -->
<g id="node36" class="node"><title>node27</title>
<polygon fill="none" stroke="black" points="1440.57,-98.9946 1387.97,-114.223 1175,-121 962.03,-114.223 909.431,-98.9946 1056.81,-86.7826 1293.19,-86.7826 1440.57,-98.9946"/>
<text text-anchor="middle" x="1175" y="-99.9" font-family="Times New Roman,serif" font-size="12.00">D:/libOmexMeta/cmake&#45;build&#45;release&#45;visual&#45;studio/lib/redland&#45;combined&#45;static.lib</text>
</g>
<!-- node25&#45;&gt;node27 -->
<g id="edge98" class="edge"><title>node25&#45;&gt;node27</title>
<path fill="none" stroke="black" stroke-dasharray="1,5" d="M1700.93,-280.987C1520.57,-277.329 992.954,-261.901 942,-206 927.629,-190.234 928.727,-174.701 942,-158 956.291,-140.018 1001.74,-127.493 1048.76,-119.067"/>
<polygon fill="black" stroke="black" points="1049.54,-122.483 1058.8,-117.331 1048.35,-115.585 1049.54,-122.483"/>
</g>
<!-- node28 -->
<g id="node37" class="node"><title>node28</title>
<polygon fill="none" stroke="black" points="2414.14,-166.049 2418.88,-166.148 2423.56,-166.295 2428.17,-166.491 2432.7,-166.735 2437.12,-167.027 2441.42,-167.364 2445.58,-167.748 2449.59,-168.176 2453.42,-168.647 2457.07,-169.161 2460.53,-169.715 2463.78,-170.308 2466.81,-170.939 2469.61,-171.605 2472.18,-172.306 2474.51,-173.039 2476.59,-173.801 2478.42,-174.592 2480,-175.408 2481.33,-176.248 2482.4,-177.109 2483.22,-177.989 2483.8,-178.886 2484.12,-179.797 2484.21,-180.719 2484.07,-181.65 2483.69,-182.587 2483.1,-183.529 2482.29,-184.471 2481.29,-185.413 2480.08,-186.35 2478.7,-187.281 2477.14,-188.203 2475.41,-189.114 2473.54,-190.011 2471.52,-190.891 2469.37,-191.752 2467.09,-192.592 2464.71,-193.408 2462.22,-194.199 2459.64,-194.961 2456.98,-195.694 2454.24,-196.395 2451.44,-197.061 2448.58,-197.692 2445.66,-198.285 2442.71,-198.839 2439.71,-199.353 2436.68,-199.824 2433.62,-200.252 2430.54,-200.636 2427.43,-200.973 2424.32,-201.265 2421.18,-201.509 2418.04,-201.705 2414.89,-201.852 2411.74,-201.951 2408.58,-202 2405.42,-202 2402.26,-201.951 2399.11,-201.852 2395.96,-201.705 2392.82,-201.509 2389.68,-201.265 2386.57,-200.973 2383.46,-200.636 2380.38,-200.252 2377.32,-199.824 2374.29,-199.353 2371.29,-198.839 2368.34,-198.285 2365.42,-197.692 2362.56,-197.061 2359.76,-196.395 2357.02,-195.694 2354.36,-194.961 2351.78,-194.199 2349.29,-193.408 2346.91,-192.592 2344.63,-191.752 2342.48,-190.891 2340.46,-190.011 2338.59,-189.114 2336.86,-188.203 2335.3,-187.281 2333.92,-186.35 2332.71,-185.413 2331.71,-184.471 2330.9,-183.529 2330.31,-182.587 2329.93,-181.65 2329.79,-180.719 2329.88,-179.797 2330.2,-178.886 2330.78,-177.989 2331.6,-177.109 2332.67,-176.248 2334,-175.408 2335.58,-174.592 2337.41,-173.801 2339.49,-173.039 2341.82,-172.306 2344.39,-171.605 2347.19,-170.939 2350.22,-170.308 2353.47,-169.715 2356.93,-169.161 2360.58,-168.647 2364.41,-168.176 2368.42,-167.748 2372.58,-167.364 2376.88,-167.027 2381.3,-166.735 2385.83,-166.491 2390.44,-166.295 2395.12,-166.148 2399.86,-166.049 2404.62,-166 2409.38,-166 2414.14,-166.049"/>
<text text-anchor="middle" x="2407" y="-180.9" font-family="Times New Roman,serif" font-size="12.00">redland&#45;wrapper&#45;tests</text>
</g>
<!-- node28&#45;&gt;node2 -->
<g id="edge119" class="edge"><title>node28&#45;&gt;node2</title>
<path fill="none" stroke="black" stroke-dasharray="1,5" d="M2331.13,-177.582C2279.67,-172.416 2210.6,-162.546 2152,-144 2073.93,-119.292 2065.2,-86.3021 1987,-62 1970.74,-56.9459 1888.45,-45.5281 1818.25,-36.3453"/>
<polygon fill="black" stroke="black" points="1818.36,-32.83 1807.99,-35.0077 1817.46,-39.7713 1818.36,-32.83"/>
</g>
<!-- node28&#45;&gt;node3 -->
<g id="edge120" class="edge"><title>node28&#45;&gt;node3</title>
<path fill="none" stroke="black" stroke-dasharray="1,5" d="M2338.32,-173.261C2310.65,-167.425 2279.15,-158.256 2253,-144 2206.06,-118.414 2210.89,-89.4182 2165,-62 2150.1,-53.0969 2132.89,-45.8863 2116.39,-40.2006"/>
<polygon fill="black" stroke="black" points="2117.38,-36.8405 2106.78,-37.0278 2115.18,-43.4874 2117.38,-36.8405"/>
</g>
<!-- node28&#45;&gt;node4 -->
<g id="edge121" class="edge"><title>node28&#45;&gt;node4</title>
<path fill="none" stroke="black" stroke-dasharray="1,5" d="M2403.68,-165.877C2398.3,-138.089 2387.62,-82.9587 2381.21,-49.8962"/>
<polygon fill="black" stroke="black" points="2384.63,-49.1513 2379.29,-39.9997 2377.76,-50.4829 2384.63,-49.1513"/>
</g>
<!-- node28&#45;&gt;node5 -->
<g id="edge122" class="edge"><title>node28&#45;&gt;node5</title>
<path fill="none" stroke="black" stroke-dasharray="1,5" d="M2423.34,-165.904C2449.27,-139.752 2502.51,-89.916 2557,-62 2576.15,-52.189 2598.06,-44.6136 2618.84,-38.8642"/>
<polygon fill="black" stroke="black" points="2619.85,-42.2181 2628.62,-36.2683 2618.05,-35.4526 2619.85,-42.2181"/>
</g>
<!-- node28&#45;&gt;node6 -->
<g id="edge123" class="edge"><title>node28&#45;&gt;node6</title>
<path fill="none" stroke="black" stroke-dasharray="1,5" d="M2450.79,-168.211C2514.42,-147.058 2636.36,-107.767 2742,-81 2809.18,-63.9766 2886.25,-48.5344 2943.3,-37.8717"/>
<polygon fill="black" stroke="black" points="2944.16,-41.2719 2953.35,-36.0034 2942.88,-34.3898 2944.16,-41.2719"/>
</g>
<!-- node28&#45;&gt;node7 -->
<g id="edge124" class="edge"><title>node28&#45;&gt;node7</title>
<path fill="none" stroke="black" stroke-dasharray="1,5" d="M2480.17,-175.4C2621.63,-160.64 2919.68,-129.17 2930,-125 2959.67,-113.013 2957.63,-93.7146 2987,-81 2999.25,-75.6984 3151.57,-52.2138 3254.11,-36.8021"/>
<polygon fill="black" stroke="black" points="3254.81,-40.2361 3264.18,-35.2903 3253.78,-33.3137 3254.81,-40.2361"/>
</g>
<!-- node28&#45;&gt;node8 -->
<g id="edge125" class="edge"><title>node28&#45;&gt;node8</title>
<path fill="none" stroke="black" stroke-dasharray="1,5" d="M2481.66,-176.258C2580,-167.566 2758.34,-152.447 2911,-143 3000.92,-137.435 3229.92,-151.589 3316,-125 3351.47,-114.043 3352.56,-94.867 3387,-81 3440.77,-59.3461 3503.96,-45.2274 3555.79,-36.3476"/>
<polygon fill="black" stroke="black" points="3556.37,-39.7979 3565.66,-34.6954 3555.22,-32.8939 3556.37,-39.7979"/>
</g>
<!-- node28&#45;&gt;node9 -->
<g id="edge126" class="edge"><title>node28&#45;&gt;node9</title>
<path fill="none" stroke="black" stroke-dasharray="1,5" d="M2483.16,-177.599C2557.95,-172.356 2675.31,-164.289 2777,-158 2809.66,-155.98 3332.63,-129.74 3365,-125 3448.2,-112.818 3466.35,-96.4685 3549,-81 3580.14,-75.171 3757.39,-51.5576 3873.22,-36.3166"/>
<polygon fill="black" stroke="black" points="3873.73,-39.78 3883.19,-35.0059 3872.82,-32.8397 3873.73,-39.78"/>
</g>
<!-- node28&#45;&gt;node10 -->
<g id="edge127" class="edge"><title>node28&#45;&gt;node10</title>
<path fill="none" stroke="black" stroke-dasharray="1,5" d="M2482.8,-177.435C2557.56,-172.05 2675.12,-163.863 2777,-158 2931.14,-149.129 3318.65,-150.041 3471,-125 3541.24,-113.455 3555.16,-94.7565 3625,-81 3700.03,-66.2222 3719.79,-68.2402 3796,-62 3947.26,-49.6149 3985.88,-58.0089 4137,-44 4158.05,-42.0485 4180.61,-39.3915 4201.9,-36.6238"/>
<polygon fill="black" stroke="black" points="4202.45,-40.0812 4211.91,-35.3029 4201.54,-33.1414 4202.45,-40.0812"/>
</g>
<!-- node28&#45;&gt;node11 -->
<g id="edge128" class="edge"><title>node28&#45;&gt;node11</title>
<path fill="none" stroke="black" stroke-dasharray="1,5" d="M2482.42,-177.057C2557.16,-171.368 2674.91,-162.942 2777,-158 2951.39,-149.557 3388.92,-147.952 3562,-125 3658.69,-112.178 3680.34,-94.0743 3777,-81 3901.92,-64.1021 3934.14,-69.1065 4060,-62 4234.57,-52.1431 4278.87,-59.8282 4453,-44 4473.67,-42.1212 4495.82,-39.4758 4516.7,-36.6939"/>
<polygon fill="black" stroke="black" points="4517.39,-40.1319 4526.83,-35.3201 4516.45,-33.1953 4517.39,-40.1319"/>
</g>
<!-- node28&#45;&gt;node12 -->
<g id="edge129" class="edge"><title>node28&#45;&gt;node12</title>
<path fill="none" stroke="black" stroke-dasharray="1,5" d="M2482.42,-177.006C2557.15,-171.279 2674.91,-162.824 2777,-158 2978.24,-148.491 3485.21,-163.303 3683,-125 3741.65,-113.643 3751.44,-92.773 3810,-81 3940.98,-54.6696 3976.54,-68.0695 4110,-62 4399.15,-48.8505 4472.52,-67.5882 4761,-44 4782.13,-42.2725 4804.79,-39.6277 4826.06,-36.7912"/>
<polygon fill="black" stroke="black" points="4826.61,-40.2486 4836.04,-35.432 4825.66,-33.3126 4826.61,-40.2486"/>
</g>
<!-- node28&#45;&gt;node13 -->
<g id="edge130" class="edge"><title>node28&#45;&gt;node13</title>
<path fill="none" stroke="black" stroke-dasharray="1,5" d="M2482.41,-176.823C2557.14,-170.958 2674.89,-162.401 2777,-158 3109.64,-143.662 3193.47,-160.592 3526,-144 3630.21,-138.8 3656.75,-140.05 3760,-125 3853.5,-111.371 3874.48,-94.5043 3968,-81 4074.78,-65.5811 4102.25,-67.3545 4210,-62 4591.39,-43.0478 4688.23,-72.8899 5069,-44 5091.17,-42.3182 5114.96,-39.6614 5137.25,-36.7957"/>
<polygon fill="black" stroke="black" points="5137.91,-40.2388 5147.37,-35.4671 5137,-33.2984 5137.91,-40.2388"/>
</g>
<!-- node28&#45;&gt;node14 -->
<g id="edge131" class="edge"><title>node28&#45;&gt;node14</title>
<path fill="none" stroke="black" stroke-dasharray="1,5" d="M2329.6,-181.029C2205.93,-176.796 1956.56,-163.809 1749,-125 1679.87,-112.074 1665.81,-95.546 1597,-81 1535.57,-68.0128 1519.5,-68.0763 1457,-62 1321.85,-48.8598 1287.14,-57.3023 1152,-44 1132.04,-42.0354 1110.68,-39.4103 1090.46,-36.683"/>
<polygon fill="black" stroke="black" points="1090.71,-33.1841 1080.32,-35.2946 1089.76,-40.1193 1090.71,-33.1841"/>
</g>
<!-- node28&#45;&gt;node15 -->
<g id="edge132" class="edge"><title>node28&#45;&gt;node15</title>
<path fill="none" stroke="black" stroke-dasharray="1,5" d="M2329.9,-179.023C2228.06,-172.712 2043.51,-157.61 1889,-125 1825.18,-111.531 1812.43,-96.1759 1749,-81 1699.04,-69.0484 1685.92,-68.7537 1635,-62 1554.42,-51.3126 1533.71,-53.6002 1453,-44 1434.09,-41.7506 1413.88,-39.1066 1394.59,-36.4675"/>
<polygon fill="black" stroke="black" points="1394.99,-32.9891 1384.6,-35.09 1394.03,-39.9235 1394.99,-32.9891"/>
</g>
<!-- node28&#45;&gt;node17 -->
<g id="edge137" class="edge"><title>node28&#45;&gt;node17</title>
<path fill="none" stroke="black" stroke-dasharray="1,5" d="M2339.09,-173.119C2286.39,-165.386 2211.52,-154.26 2146,-144 2094.39,-135.917 2080.94,-136.589 2030,-125 1932.91,-102.911 1913.04,-79.3916 1815,-62 1695.71,-40.8392 1660.35,-74.1327 1543,-44 1538.34,-42.8032 1533.57,-41.1301 1528.97,-39.2453"/>
<polygon fill="black" stroke="black" points="1530.38,-36.0446 1519.82,-35.1637 1527.53,-42.4365 1530.38,-36.0446"/>
</g>
<!-- node28&#45;&gt;node18 -->
<g id="edge136" class="edge"><title>node28&#45;&gt;node18</title>
<path fill="none" stroke="black" d="M2472.24,-172.226C2538.9,-161.056 2645.34,-142.77 2737,-125 2747.33,-122.998 2758.24,-120.784 2768.89,-118.566"/>
<polygon fill="black" stroke="black" points="2769.94,-121.924 2779.01,-116.446 2768.5,-115.073 2769.94,-121.924"/>
</g>
<!-- node28&#45;&gt;node19 -->
<g id="edge135" class="edge"><title>node28&#45;&gt;node19</title>
<path fill="none" stroke="black" stroke-dasharray="1,5" d="M2330.76,-177.606C2224.89,-170.11 2027.39,-156.098 1859,-144 1800.77,-139.817 1649.17,-151.198 1597,-125 1573.91,-113.404 1581.78,-93.1923 1559,-81 1528.99,-64.9377 1440.94,-64.6627 1407,-62 1283.32,-52.2956 971.018,-66.4432 849,-44 839.956,-42.3365 830.439,-39.5801 821.682,-36.6028"/>
<polygon fill="black" stroke="black" points="822.779,-33.278 812.185,-33.1941 820.415,-39.8665 822.779,-33.278"/>
</g>
<!-- node28&#45;&gt;node23 -->
<g id="edge133" class="edge"><title>node28&#45;&gt;node23</title>
<path fill="none" stroke="black" stroke-dasharray="1,5" d="M2329.74,-179.573C2205.83,-173.826 1955.07,-161.169 1743,-144 1661.06,-137.366 1638.79,-144.804 1559,-125 1508.3,-112.415 1501,-92.3091 1450,-81 1145.41,-13.4631 1058.4,-84.0937 749,-44 729.161,-41.4292 707.406,-37.1038 689.184,-33.0444"/>
<polygon fill="black" stroke="black" points="689.711,-29.5747 679.183,-30.7651 688.155,-36.3997 689.711,-29.5747"/>
</g>
<!-- node28&#45;&gt;node24 -->
<g id="edge134" class="edge"><title>node28&#45;&gt;node24</title>
<path fill="none" stroke="black" stroke-dasharray="1,5" d="M2329.69,-181.299C2107.36,-176.132 1447.15,-158.865 900,-125 835.496,-121.008 761.64,-114.434 711.824,-109.704"/>
<polygon fill="black" stroke="black" points="711.858,-106.191 701.571,-108.724 711.192,-113.159 711.858,-106.191"/>
</g>
<!-- node28&#45;&gt;node27 -->
<g id="edge118" class="edge"><title>node28&#45;&gt;node27</title>
<path fill="none" stroke="black" stroke-dasharray="1,5" d="M2329.91,-179.183C2201.08,-172.695 1933.89,-158.777 1708,-144 1583.42,-135.851 1442.58,-125.22 1336.97,-116.966"/>
<polygon fill="black" stroke="black" points="1337.11,-113.466 1326.87,-116.175 1336.56,-120.445 1337.11,-113.466"/>
</g>
<!-- node29 -->
<g id="node38" class="node"><title>node29</title>
<polygon fill="none" stroke="black" points="815.154,-360.544 815.154,-375.456 796.905,-386 771.095,-386 752.846,-375.456 752.846,-360.544 771.095,-350 796.905,-350 815.154,-360.544"/>
<polygon fill="none" stroke="black" points="819.134,-358.23 819.134,-377.77 797.967,-390 770.033,-390 748.866,-377.77 748.866,-358.23 770.033,-346 797.967,-346 819.134,-358.23"/>
<text text-anchor="middle" x="784" y="-364.9" font-family="Times New Roman,serif" font-size="12.00">gmock</text>
</g>
<!-- node30 -->
<g id="node39" class="node"><title>node30</title>
<polygon fill="none" stroke="black" points="940.129,-360.544 940.129,-375.456 911.35,-386 870.65,-386 841.871,-375.456 841.871,-360.544 870.65,-350 911.35,-350 940.129,-360.544"/>
<polygon fill="none" stroke="black" points="944.114,-357.746 944.114,-378.254 912.054,-390 869.946,-390 837.886,-378.254 837.886,-357.746 869.946,-346 912.054,-346 944.114,-357.746"/>
<text text-anchor="middle" x="891" y="-364.9" font-family="Times New Roman,serif" font-size="12.00">gmock_main</text>
</g>
</g>
</svg>
