<?xml version="1.0" encoding="UTF-8" standalone="no"?><svg xmlns="http://www.w3.org/2000/svg" xmlns:xlink="http://www.w3.org/1999/xlink" contentScriptType="application/ecmascript" contentStyleType="text/css" height="937px" preserveAspectRatio="none" style="width:1039px;height:937px;" version="1.1" viewBox="0 0 1039 937" width="1039px" zoomAndPan="magnify"><defs><filter height="300%" id="f7a5h8uis2pck" width="300%" x="-1" y="-1"><feGaussianBlur result="blurOut" stdDeviation="2.0"/><feColorMatrix in="blurOut" result="blurOut2" type="matrix" values="0 0 0 0 0 0 0 0 0 0 0 0 0 0 0 0 0 0 .4 0"/><feOffset dx="4.0" dy="4.0" in="blurOut2" result="blurOut3"/><feBlend in="SourceGraphic" in2="blurOut3" mode="normal"/></filter></defs><g><!--MD5=[3a741111f7884d53c64b84398c5da44d]
cluster CompositeAnnotationCompositions--><!--MD5=[ba6a2dd34cdd7ccd60463fe02acd7d77]
cluster group1--><!--MD5=[e54bc61314a3101edeec97377c5b84cd]
cluster ProcessParticipants--><!--MD5=[fa40dda412b6b247aa26dc2693ea2d81]
class PhysicalProperty--><rect fill="#FEFECE" filter="url(#f7a5h8uis2pck)" height="48" id="PhysicalProperty" style="stroke: #A80036; stroke-width: 1.5;" width="123" x="469" y="283.5"/><ellipse cx="484" cy="299.5" fill="#ADD1B2" rx="11" ry="11" style="stroke: #A80036; stroke-width: 1.0;"/><path d="M486.7656,295.375 Q486.9219,295.1563 487.1094,295.0469 Q487.2969,294.9375 487.5156,294.9375 Q487.8906,294.9375 488.125,295.1953 Q488.3594,295.4531 488.3594,296.0625 L488.3594,297.5156 Q488.3594,298.125 488.125,298.3906 Q487.8906,298.6563 487.5156,298.6563 Q487.1719,298.6563 486.9688,298.4531 Q486.7656,298.2656 486.6563,297.75 Q486.6094,297.3906 486.4219,297.2031 Q486.0938,296.8281 485.4844,296.6094 Q484.875,296.3906 484.25,296.3906 Q483.4844,296.3906 482.8516,296.7188 Q482.2188,297.0469 481.7266,297.7969 Q481.2344,298.5469 481.2344,299.5781 L481.2344,300.6719 Q481.2344,301.9063 482.125,302.7266 Q483.0156,303.5469 484.6094,303.5469 Q485.5469,303.5469 486.2031,303.2969 Q486.5938,303.1406 487.0156,302.7031 Q487.2813,302.4375 487.4297,302.3594 Q487.5781,302.2813 487.7813,302.2813 Q488.1094,302.2813 488.3672,302.5391 Q488.625,302.7969 488.625,303.1406 Q488.625,303.4844 488.2813,303.8906 Q487.7813,304.4688 486.9844,304.7969 Q485.9063,305.25 484.6094,305.25 Q483.0938,305.25 481.8906,304.625 Q480.9063,304.125 480.2188,303.0547 Q479.5313,301.9844 479.5313,300.7031 L479.5313,299.5469 Q479.5313,298.2188 480.1484,297.0703 Q480.7656,295.9219 481.8594,295.3047 Q482.9531,294.6875 484.1875,294.6875 Q484.9219,294.6875 485.5703,294.8516 Q486.2188,295.0156 486.7656,295.375 Z "/><text fill="#000000" font-family="sans-serif" font-size="12" lengthAdjust="spacingAndGlyphs" textLength="91" x="498" y="304.4102">PhysicalProperty</text><line style="stroke: #A80036; stroke-width: 1.5;" x1="470" x2="591" y1="315.5" y2="315.5"/><line style="stroke: #A80036; stroke-width: 1.5;" x1="470" x2="591" y1="323.5" y2="323.5"/><!--MD5=[2a1263ec53ab8251b6569cc7ff183119]
class PropertyBearer--><rect fill="#FEFECE" filter="url(#f7a5h8uis2pck)" height="61.8359" id="PropertyBearer" style="stroke: #A80036; stroke-width: 1.5;" width="114" x="627.5" y="276.5"/><ellipse cx="642.5" cy="292.5" fill="#ADD1B2" rx="11" ry="11" style="stroke: #A80036; stroke-width: 1.0;"/><path d="M645.2656,288.375 Q645.4219,288.1563 645.6094,288.0469 Q645.7969,287.9375 646.0156,287.9375 Q646.3906,287.9375 646.625,288.1953 Q646.8594,288.4531 646.8594,289.0625 L646.8594,290.5156 Q646.8594,291.125 646.625,291.3906 Q646.3906,291.6563 646.0156,291.6563 Q645.6719,291.6563 645.4688,291.4531 Q645.2656,291.2656 645.1563,290.75 Q645.1094,290.3906 644.9219,290.2031 Q644.5938,289.8281 643.9844,289.6094 Q643.375,289.3906 642.75,289.3906 Q641.9844,289.3906 641.3516,289.7188 Q640.7188,290.0469 640.2266,290.7969 Q639.7344,291.5469 639.7344,292.5781 L639.7344,293.6719 Q639.7344,294.9063 640.625,295.7266 Q641.5156,296.5469 643.1094,296.5469 Q644.0469,296.5469 644.7031,296.2969 Q645.0938,296.1406 645.5156,295.7031 Q645.7813,295.4375 645.9297,295.3594 Q646.0781,295.2813 646.2813,295.2813 Q646.6094,295.2813 646.8672,295.5391 Q647.125,295.7969 647.125,296.1406 Q647.125,296.4844 646.7813,296.8906 Q646.2813,297.4688 645.4844,297.7969 Q644.4063,298.25 643.1094,298.25 Q641.5938,298.25 640.3906,297.625 Q639.4063,297.125 638.7188,296.0547 Q638.0313,294.9844 638.0313,293.7031 L638.0313,292.5469 Q638.0313,291.2188 638.6484,290.0703 Q639.2656,288.9219 640.3594,288.3047 Q641.4531,287.6875 642.6875,287.6875 Q643.4219,287.6875 644.0703,287.8516 Q644.7188,288.0156 645.2656,288.375 Z "/><text fill="#000000" font-family="sans-serif" font-size="12" lengthAdjust="spacingAndGlyphs" textLength="82" x="656.5" y="297.4102">PropertyBearer</text><line style="stroke: #A80036; stroke-width: 1.5;" x1="628.5" x2="740.5" y1="308.5" y2="308.5"/><ellipse cx="638.5" cy="319.5" fill="none" rx="3" ry="3" style="stroke: #038048; stroke-width: 1.0;"/><text fill="#000000" font-family="sans-serif" font-size="11" lengthAdjust="spacingAndGlyphs" textLength="81" x="647.5" y="323.9189">PhysicalProperty</text><line style="stroke: #A80036; stroke-width: 1.5;" x1="628.5" x2="740.5" y1="330.3359" y2="330.3359"/><!--MD5=[df581eb0b2d7aded84449964112700d9]
class PhysicalEntity--><rect fill="#FEFECE" filter="url(#f7a5h8uis2pck)" height="89.5078" id="PhysicalEntity" style="stroke: #A80036; stroke-width: 1.5;" width="175" x="369" y="428"/><ellipse cx="414.75" cy="444" fill="#ADD1B2" rx="11" ry="11" style="stroke: #A80036; stroke-width: 1.0;"/><path d="M417.5156,439.875 Q417.6719,439.6563 417.8594,439.5469 Q418.0469,439.4375 418.2656,439.4375 Q418.6406,439.4375 418.875,439.6953 Q419.1094,439.9531 419.1094,440.5625 L419.1094,442.0156 Q419.1094,442.625 418.875,442.8906 Q418.6406,443.1563 418.2656,443.1563 Q417.9219,443.1563 417.7188,442.9531 Q417.5156,442.7656 417.4063,442.25 Q417.3594,441.8906 417.1719,441.7031 Q416.8438,441.3281 416.2344,441.1094 Q415.625,440.8906 415,440.8906 Q414.2344,440.8906 413.6016,441.2188 Q412.9688,441.5469 412.4766,442.2969 Q411.9844,443.0469 411.9844,444.0781 L411.9844,445.1719 Q411.9844,446.4063 412.875,447.2266 Q413.7656,448.0469 415.3594,448.0469 Q416.2969,448.0469 416.9531,447.7969 Q417.3438,447.6406 417.7656,447.2031 Q418.0313,446.9375 418.1797,446.8594 Q418.3281,446.7813 418.5313,446.7813 Q418.8594,446.7813 419.1172,447.0391 Q419.375,447.2969 419.375,447.6406 Q419.375,447.9844 419.0313,448.3906 Q418.5313,448.9688 417.7344,449.2969 Q416.6563,449.75 415.3594,449.75 Q413.8438,449.75 412.6406,449.125 Q411.6563,448.625 410.9688,447.5547 Q410.2813,446.4844 410.2813,445.2031 L410.2813,444.0469 Q410.2813,442.7188 410.8984,441.5703 Q411.5156,440.4219 412.6094,439.8047 Q413.7031,439.1875 414.9375,439.1875 Q415.6719,439.1875 416.3203,439.3516 Q416.9688,439.5156 417.5156,439.875 Z "/><text fill="#000000" font-family="sans-serif" font-size="12" lengthAdjust="spacingAndGlyphs" textLength="75" x="435.25" y="448.9102">PhysicalEntity</text><line style="stroke: #A80036; stroke-width: 1.5;" x1="370" x2="543" y1="460" y2="460"/><ellipse cx="380" cy="471" fill="none" rx="3" ry="3" style="stroke: #038048; stroke-width: 1.0;"/><text fill="#000000" font-family="sans-serif" font-size="11" lengthAdjust="spacingAndGlyphs" textLength="149" x="389" y="475.4189">resources : vector&lt;Resource&gt;</text><ellipse cx="380" cy="484.8359" fill="none" rx="3" ry="3" style="stroke: #038048; stroke-width: 1.0;"/><text fill="#000000" font-family="sans-serif" font-size="11" lengthAdjust="spacingAndGlyphs" textLength="80" x="389" y="489.2549">subject : Subject</text><ellipse cx="380" cy="498.6719" fill="none" rx="3" ry="3" style="stroke: #038048; stroke-width: 1.0;"/><text fill="#000000" font-family="sans-serif" font-size="11" lengthAdjust="spacingAndGlyphs" textLength="49" x="389" y="503.0908">id : MetaID</text><line style="stroke: #A80036; stroke-width: 1.5;" x1="370" x2="543" y1="509.5078" y2="509.5078"/><!--MD5=[48d70057fbcb13305256da8ebb6052ce]
class PhysicalProcess--><rect fill="#FEFECE" filter="url(#f7a5h8uis2pck)" height="89.5078" id="PhysicalProcess" style="stroke: #A80036; stroke-width: 1.5;" width="210" x="579.5" y="428"/><ellipse cx="634.25" cy="444" fill="#ADD1B2" rx="11" ry="11" style="stroke: #A80036; stroke-width: 1.0;"/><path d="M637.0156,439.875 Q637.1719,439.6563 637.3594,439.5469 Q637.5469,439.4375 637.7656,439.4375 Q638.1406,439.4375 638.375,439.6953 Q638.6094,439.9531 638.6094,440.5625 L638.6094,442.0156 Q638.6094,442.625 638.375,442.8906 Q638.1406,443.1563 637.7656,443.1563 Q637.4219,443.1563 637.2188,442.9531 Q637.0156,442.7656 636.9063,442.25 Q636.8594,441.8906 636.6719,441.7031 Q636.3438,441.3281 635.7344,441.1094 Q635.125,440.8906 634.5,440.8906 Q633.7344,440.8906 633.1016,441.2188 Q632.4688,441.5469 631.9766,442.2969 Q631.4844,443.0469 631.4844,444.0781 L631.4844,445.1719 Q631.4844,446.4063 632.375,447.2266 Q633.2656,448.0469 634.8594,448.0469 Q635.7969,448.0469 636.4531,447.7969 Q636.8438,447.6406 637.2656,447.2031 Q637.5313,446.9375 637.6797,446.8594 Q637.8281,446.7813 638.0313,446.7813 Q638.3594,446.7813 638.6172,447.0391 Q638.875,447.2969 638.875,447.6406 Q638.875,447.9844 638.5313,448.3906 Q638.0313,448.9688 637.2344,449.2969 Q636.1563,449.75 634.8594,449.75 Q633.3438,449.75 632.1406,449.125 Q631.1563,448.625 630.4688,447.5547 Q629.7813,446.4844 629.7813,445.2031 L629.7813,444.0469 Q629.7813,442.7188 630.3984,441.5703 Q631.0156,440.4219 632.1094,439.8047 Q633.2031,439.1875 634.4375,439.1875 Q635.1719,439.1875 635.8203,439.3516 Q636.4688,439.5156 637.0156,439.875 Z "/><text fill="#000000" font-family="sans-serif" font-size="12" lengthAdjust="spacingAndGlyphs" textLength="92" x="654.75" y="448.9102">PhysicalProcess</text><line style="stroke: #A80036; stroke-width: 1.5;" x1="580.5" x2="788.5" y1="460" y2="460"/><ellipse cx="590.5" cy="471" fill="none" rx="3" ry="3" style="stroke: #038048; stroke-width: 1.0;"/><text fill="#000000" font-family="sans-serif" font-size="11" lengthAdjust="spacingAndGlyphs" textLength="177" x="599.5" y="475.4189">sources : vector&lt;SourceParticipant&gt;</text><ellipse cx="590.5" cy="484.8359" fill="none" rx="3" ry="3" style="stroke: #038048; stroke-width: 1.0;"/><text fill="#000000" font-family="sans-serif" font-size="11" lengthAdjust="spacingAndGlyphs" textLength="147" x="599.5" y="489.2549">sinks : vector&lt;SinkParticipant&gt;</text><ellipse cx="590.5" cy="498.6719" fill="none" rx="3" ry="3" style="stroke: #038048; stroke-width: 1.0;"/><text fill="#000000" font-family="sans-serif" font-size="11" lengthAdjust="spacingAndGlyphs" textLength="184" x="599.5" y="503.0908">mediator : vector&lt;MediatorParticipant&gt;</text><line style="stroke: #A80036; stroke-width: 1.5;" x1="580.5" x2="788.5" y1="509.5078" y2="509.5078"/><!--MD5=[7891b59bb27f0174c8b8c465458d50ca]
class PhysicalForce--><rect fill="#FEFECE" filter="url(#f7a5h8uis2pck)" height="75.6719" id="PhysicalForce" style="stroke: #A80036; stroke-width: 1.5;" width="203" x="825" y="435"/><ellipse cx="883.75" cy="451" fill="#ADD1B2" rx="11" ry="11" style="stroke: #A80036; stroke-width: 1.0;"/><path d="M886.5156,446.875 Q886.6719,446.6563 886.8594,446.5469 Q887.0469,446.4375 887.2656,446.4375 Q887.6406,446.4375 887.875,446.6953 Q888.1094,446.9531 888.1094,447.5625 L888.1094,449.0156 Q888.1094,449.625 887.875,449.8906 Q887.6406,450.1563 887.2656,450.1563 Q886.9219,450.1563 886.7188,449.9531 Q886.5156,449.7656 886.4063,449.25 Q886.3594,448.8906 886.1719,448.7031 Q885.8438,448.3281 885.2344,448.1094 Q884.625,447.8906 884,447.8906 Q883.2344,447.8906 882.6016,448.2188 Q881.9688,448.5469 881.4766,449.2969 Q880.9844,450.0469 880.9844,451.0781 L880.9844,452.1719 Q880.9844,453.4063 881.875,454.2266 Q882.7656,455.0469 884.3594,455.0469 Q885.2969,455.0469 885.9531,454.7969 Q886.3438,454.6406 886.7656,454.2031 Q887.0313,453.9375 887.1797,453.8594 Q887.3281,453.7813 887.5313,453.7813 Q887.8594,453.7813 888.1172,454.0391 Q888.375,454.2969 888.375,454.6406 Q888.375,454.9844 888.0313,455.3906 Q887.5313,455.9688 886.7344,456.2969 Q885.6563,456.75 884.3594,456.75 Q882.8438,456.75 881.6406,456.125 Q880.6563,455.625 879.9688,454.5547 Q879.2813,453.4844 879.2813,452.2031 L879.2813,451.0469 Q879.2813,449.7188 879.8984,448.5703 Q880.5156,447.4219 881.6094,446.8047 Q882.7031,446.1875 883.9375,446.1875 Q884.6719,446.1875 885.3203,446.3516 Q885.9688,446.5156 886.5156,446.875 Z "/><text fill="#000000" font-family="sans-serif" font-size="12" lengthAdjust="spacingAndGlyphs" textLength="77" x="904.25" y="455.9102">PhysicalForce</text><line style="stroke: #A80036; stroke-width: 1.5;" x1="826" x2="1027" y1="467" y2="467"/><ellipse cx="836" cy="478" fill="none" rx="3" ry="3" style="stroke: #038048; stroke-width: 1.0;"/><text fill="#000000" font-family="sans-serif" font-size="11" lengthAdjust="spacingAndGlyphs" textLength="177" x="845" y="482.4189">sources : vector&lt;SourceParticipant&gt;</text><ellipse cx="836" cy="491.8359" fill="none" rx="3" ry="3" style="stroke: #038048; stroke-width: 1.0;"/><text fill="#000000" font-family="sans-serif" font-size="11" lengthAdjust="spacingAndGlyphs" textLength="147" x="845" y="496.2549">sinks : vector&lt;SinkParticipant&gt;</text><line style="stroke: #A80036; stroke-width: 1.5;" x1="826" x2="1027" y1="502.6719" y2="502.6719"/><!--MD5=[25d9ef7f4b373264995eb18b4334683f]
class SourceParticipant--><rect fill="#FEFECE" filter="url(#f7a5h8uis2pck)" height="48" id="SourceParticipant" style="stroke: #A80036; stroke-width: 1.5;" width="129" x="608" y="757"/><ellipse cx="623" cy="773" fill="#ADD1B2" rx="11" ry="11" style="stroke: #A80036; stroke-width: 1.0;"/><path d="M625.7656,768.875 Q625.9219,768.6563 626.1094,768.5469 Q626.2969,768.4375 626.5156,768.4375 Q626.8906,768.4375 627.125,768.6953 Q627.3594,768.9531 627.3594,769.5625 L627.3594,771.0156 Q627.3594,771.625 627.125,771.8906 Q626.8906,772.1563 626.5156,772.1563 Q626.1719,772.1563 625.9688,771.9531 Q625.7656,771.7656 625.6563,771.25 Q625.6094,770.8906 625.4219,770.7031 Q625.0938,770.3281 624.4844,770.1094 Q623.875,769.8906 623.25,769.8906 Q622.4844,769.8906 621.8516,770.2188 Q621.2188,770.5469 620.7266,771.2969 Q620.2344,772.0469 620.2344,773.0781 L620.2344,774.1719 Q620.2344,775.4063 621.125,776.2266 Q622.0156,777.0469 623.6094,777.0469 Q624.5469,777.0469 625.2031,776.7969 Q625.5938,776.6406 626.0156,776.2031 Q626.2813,775.9375 626.4297,775.8594 Q626.5781,775.7813 626.7813,775.7813 Q627.1094,775.7813 627.3672,776.0391 Q627.625,776.2969 627.625,776.6406 Q627.625,776.9844 627.2813,777.3906 Q626.7813,777.9688 625.9844,778.2969 Q624.9063,778.75 623.6094,778.75 Q622.0938,778.75 620.8906,778.125 Q619.9063,777.625 619.2188,776.5547 Q618.5313,775.4844 618.5313,774.2031 L618.5313,773.0469 Q618.5313,771.7188 619.1484,770.5703 Q619.7656,769.4219 620.8594,768.8047 Q621.9531,768.1875 623.1875,768.1875 Q623.9219,768.1875 624.5703,768.3516 Q625.2188,768.5156 625.7656,768.875 Z "/><text fill="#000000" font-family="sans-serif" font-size="12" lengthAdjust="spacingAndGlyphs" textLength="97" x="637" y="777.9102">SourceParticipant</text><line style="stroke: #A80036; stroke-width: 1.5;" x1="609" x2="736" y1="789" y2="789"/><line style="stroke: #A80036; stroke-width: 1.5;" x1="609" x2="736" y1="797" y2="797"/><!--MD5=[0761549f65cbbde091ef1fa6e98b61ea]
class SinkParticipant--><rect fill="#FEFECE" filter="url(#f7a5h8uis2pck)" height="48" id="SinkParticipant" style="stroke: #A80036; stroke-width: 1.5;" width="114" x="772.5" y="757"/><ellipse cx="787.5" cy="773" fill="#ADD1B2" rx="11" ry="11" style="stroke: #A80036; stroke-width: 1.0;"/><path d="M790.2656,768.875 Q790.4219,768.6563 790.6094,768.5469 Q790.7969,768.4375 791.0156,768.4375 Q791.3906,768.4375 791.625,768.6953 Q791.8594,768.9531 791.8594,769.5625 L791.8594,771.0156 Q791.8594,771.625 791.625,771.8906 Q791.3906,772.1563 791.0156,772.1563 Q790.6719,772.1563 790.4688,771.9531 Q790.2656,771.7656 790.1563,771.25 Q790.1094,770.8906 789.9219,770.7031 Q789.5938,770.3281 788.9844,770.1094 Q788.375,769.8906 787.75,769.8906 Q786.9844,769.8906 786.3516,770.2188 Q785.7188,770.5469 785.2266,771.2969 Q784.7344,772.0469 784.7344,773.0781 L784.7344,774.1719 Q784.7344,775.4063 785.625,776.2266 Q786.5156,777.0469 788.1094,777.0469 Q789.0469,777.0469 789.7031,776.7969 Q790.0938,776.6406 790.5156,776.2031 Q790.7813,775.9375 790.9297,775.8594 Q791.0781,775.7813 791.2813,775.7813 Q791.6094,775.7813 791.8672,776.0391 Q792.125,776.2969 792.125,776.6406 Q792.125,776.9844 791.7813,777.3906 Q791.2813,777.9688 790.4844,778.2969 Q789.4063,778.75 788.1094,778.75 Q786.5938,778.75 785.3906,778.125 Q784.4063,777.625 783.7188,776.5547 Q783.0313,775.4844 783.0313,774.2031 L783.0313,773.0469 Q783.0313,771.7188 783.6484,770.5703 Q784.2656,769.4219 785.3594,768.8047 Q786.4531,768.1875 787.6875,768.1875 Q788.4219,768.1875 789.0703,768.3516 Q789.7188,768.5156 790.2656,768.875 Z "/><text fill="#000000" font-family="sans-serif" font-size="12" lengthAdjust="spacingAndGlyphs" textLength="82" x="801.5" y="777.9102">SinkParticipant</text><line style="stroke: #A80036; stroke-width: 1.5;" x1="773.5" x2="885.5" y1="789" y2="789"/><line style="stroke: #A80036; stroke-width: 1.5;" x1="773.5" x2="885.5" y1="797" y2="797"/><!--MD5=[d01da8ce02fd232461c2d4dc70e53b60]
class MediatorParticipant--><rect fill="#FEFECE" filter="url(#f7a5h8uis2pck)" height="48" id="MediatorParticipant" style="stroke: #A80036; stroke-width: 1.5;" width="137" x="436" y="757"/><ellipse cx="451" cy="773" fill="#ADD1B2" rx="11" ry="11" style="stroke: #A80036; stroke-width: 1.0;"/><path d="M453.7656,768.875 Q453.9219,768.6563 454.1094,768.5469 Q454.2969,768.4375 454.5156,768.4375 Q454.8906,768.4375 455.125,768.6953 Q455.3594,768.9531 455.3594,769.5625 L455.3594,771.0156 Q455.3594,771.625 455.125,771.8906 Q454.8906,772.1563 454.5156,772.1563 Q454.1719,772.1563 453.9688,771.9531 Q453.7656,771.7656 453.6563,771.25 Q453.6094,770.8906 453.4219,770.7031 Q453.0938,770.3281 452.4844,770.1094 Q451.875,769.8906 451.25,769.8906 Q450.4844,769.8906 449.8516,770.2188 Q449.2188,770.5469 448.7266,771.2969 Q448.2344,772.0469 448.2344,773.0781 L448.2344,774.1719 Q448.2344,775.4063 449.125,776.2266 Q450.0156,777.0469 451.6094,777.0469 Q452.5469,777.0469 453.2031,776.7969 Q453.5938,776.6406 454.0156,776.2031 Q454.2813,775.9375 454.4297,775.8594 Q454.5781,775.7813 454.7813,775.7813 Q455.1094,775.7813 455.3672,776.0391 Q455.625,776.2969 455.625,776.6406 Q455.625,776.9844 455.2813,777.3906 Q454.7813,777.9688 453.9844,778.2969 Q452.9063,778.75 451.6094,778.75 Q450.0938,778.75 448.8906,778.125 Q447.9063,777.625 447.2188,776.5547 Q446.5313,775.4844 446.5313,774.2031 L446.5313,773.0469 Q446.5313,771.7188 447.1484,770.5703 Q447.7656,769.4219 448.8594,768.8047 Q449.9531,768.1875 451.1875,768.1875 Q451.9219,768.1875 452.5703,768.3516 Q453.2188,768.5156 453.7656,768.875 Z "/><text fill="#000000" font-family="sans-serif" font-size="12" lengthAdjust="spacingAndGlyphs" textLength="105" x="465" y="777.9102">MediatorParticipant</text><line style="stroke: #A80036; stroke-width: 1.5;" x1="437" x2="572" y1="789" y2="789"/><line style="stroke: #A80036; stroke-width: 1.5;" x1="437" x2="572" y1="797" y2="797"/><path d="M292,768 L292,794.3516 A0,0 0 0 0 292,794.3516 L401,794.3516 A0,0 0 0 0 401,794.3516 L401,786 L435.85,781 L401,778 L401,778 L391,768 L292,768 A0,0 0 0 0 292,768 " fill="#FBFB77" filter="url(#f7a5h8uis2pck)" style="stroke: #A80036; stroke-width: 1.0;"/><path d="M391,768 L391,778 L401,778 L391,768 " fill="#FBFB77" style="stroke: #A80036; stroke-width: 1.0;"/><text fill="#000000" font-family="sans-serif" font-size="13" lengthAdjust="spacingAndGlyphs" textLength="88" x="298" y="786.4951">Multiplier is 0.0</text><path d="M776,866 L776,925.0547 A0,0 0 0 0 776,925.0547 L883,925.0547 A0,0 0 0 0 883,925.0547 L883,876 L873,866 L833.5,866 L829.5,805.038 L825.5,866 L776,866 A0,0 0 0 0 776,866 " fill="#FBFB77" filter="url(#f7a5h8uis2pck)" style="stroke: #A80036; stroke-width: 1.0;"/><path d="M873,866 L873,876 L883,876 L873,866 " fill="#FBFB77" style="stroke: #A80036; stroke-width: 1.0;"/><text fill="#000000" font-family="sans-serif" font-size="13" lengthAdjust="spacingAndGlyphs" textLength="86" x="782" y="884.4951">multiplier = 0.0</text><text fill="#000000" font-family="sans-serif" font-size="13" lengthAdjust="spacingAndGlyphs" textLength="76" x="782" y="900.8467">when used in</text><text fill="#000000" font-family="sans-serif" font-size="13" lengthAdjust="spacingAndGlyphs" textLength="80" x="782" y="917.1982">physical force</text><path d="M619,866 L619,925.0547 A0,0 0 0 0 619,925.0547 L726,925.0547 A0,0 0 0 0 726,925.0547 L726,876 L716,866 L676.5,866 L672.5,805.038 L668.5,866 L619,866 A0,0 0 0 0 619,866 " fill="#FBFB77" filter="url(#f7a5h8uis2pck)" style="stroke: #A80036; stroke-width: 1.0;"/><path d="M716,866 L716,876 L726,876 L716,866 " fill="#FBFB77" style="stroke: #A80036; stroke-width: 1.0;"/><text fill="#000000" font-family="sans-serif" font-size="13" lengthAdjust="spacingAndGlyphs" textLength="86" x="625" y="884.4951">multiplier = 0.0</text><text fill="#000000" font-family="sans-serif" font-size="13" lengthAdjust="spacingAndGlyphs" textLength="76" x="625" y="900.8467">when used in</text><text fill="#000000" font-family="sans-serif" font-size="13" lengthAdjust="spacingAndGlyphs" textLength="80" x="625" y="917.1982">physical force</text><!--MD5=[d0da0a299942266ebd64acf2b2e95fa4]
class Subject--><rect fill="#FEFECE" filter="url(#f7a5h8uis2pck)" height="48" id="Subject" style="stroke: #A80036; stroke-width: 1.5;" width="73" x="66" y="131.5"/><ellipse cx="81" cy="147.5" fill="#ADD1B2" rx="11" ry="11" style="stroke: #A80036; stroke-width: 1.0;"/><path d="M83.7656,143.375 Q83.9219,143.1563 84.1094,143.0469 Q84.2969,142.9375 84.5156,142.9375 Q84.8906,142.9375 85.125,143.1953 Q85.3594,143.4531 85.3594,144.0625 L85.3594,145.5156 Q85.3594,146.125 85.125,146.3906 Q84.8906,146.6563 84.5156,146.6563 Q84.1719,146.6563 83.9688,146.4531 Q83.7656,146.2656 83.6563,145.75 Q83.6094,145.3906 83.4219,145.2031 Q83.0938,144.8281 82.4844,144.6094 Q81.875,144.3906 81.25,144.3906 Q80.4844,144.3906 79.8516,144.7188 Q79.2188,145.0469 78.7266,145.7969 Q78.2344,146.5469 78.2344,147.5781 L78.2344,148.6719 Q78.2344,149.9063 79.125,150.7266 Q80.0156,151.5469 81.6094,151.5469 Q82.5469,151.5469 83.2031,151.2969 Q83.5938,151.1406 84.0156,150.7031 Q84.2813,150.4375 84.4297,150.3594 Q84.5781,150.2813 84.7813,150.2813 Q85.1094,150.2813 85.3672,150.5391 Q85.625,150.7969 85.625,151.1406 Q85.625,151.4844 85.2813,151.8906 Q84.7813,152.4688 83.9844,152.7969 Q82.9063,153.25 81.6094,153.25 Q80.0938,153.25 78.8906,152.625 Q77.9063,152.125 77.2188,151.0547 Q76.5313,149.9844 76.5313,148.7031 L76.5313,147.5469 Q76.5313,146.2188 77.1484,145.0703 Q77.7656,143.9219 78.8594,143.3047 Q79.9531,142.6875 81.1875,142.6875 Q81.9219,142.6875 82.5703,142.8516 Q83.2188,143.0156 83.7656,143.375 Z "/><text fill="#000000" font-family="sans-serif" font-size="12" lengthAdjust="spacingAndGlyphs" textLength="41" x="95" y="152.4102">Subject</text><line style="stroke: #A80036; stroke-width: 1.5;" x1="67" x2="138" y1="163.5" y2="163.5"/><line style="stroke: #A80036; stroke-width: 1.5;" x1="67" x2="138" y1="171.5" y2="171.5"/><!--MD5=[e6dc55dd324d6a8c189f3ada02b144fc]
class Predicate--><rect fill="#FEFECE" filter="url(#f7a5h8uis2pck)" height="48" id="Predicate" style="stroke: #A80036; stroke-width: 1.5;" width="84" x="174.5" y="131.5"/><ellipse cx="189.5" cy="147.5" fill="#ADD1B2" rx="11" ry="11" style="stroke: #A80036; stroke-width: 1.0;"/><path d="M192.2656,143.375 Q192.4219,143.1563 192.6094,143.0469 Q192.7969,142.9375 193.0156,142.9375 Q193.3906,142.9375 193.625,143.1953 Q193.8594,143.4531 193.8594,144.0625 L193.8594,145.5156 Q193.8594,146.125 193.625,146.3906 Q193.3906,146.6563 193.0156,146.6563 Q192.6719,146.6563 192.4688,146.4531 Q192.2656,146.2656 192.1563,145.75 Q192.1094,145.3906 191.9219,145.2031 Q191.5938,144.8281 190.9844,144.6094 Q190.375,144.3906 189.75,144.3906 Q188.9844,144.3906 188.3516,144.7188 Q187.7188,145.0469 187.2266,145.7969 Q186.7344,146.5469 186.7344,147.5781 L186.7344,148.6719 Q186.7344,149.9063 187.625,150.7266 Q188.5156,151.5469 190.1094,151.5469 Q191.0469,151.5469 191.7031,151.2969 Q192.0938,151.1406 192.5156,150.7031 Q192.7813,150.4375 192.9297,150.3594 Q193.0781,150.2813 193.2813,150.2813 Q193.6094,150.2813 193.8672,150.5391 Q194.125,150.7969 194.125,151.1406 Q194.125,151.4844 193.7813,151.8906 Q193.2813,152.4688 192.4844,152.7969 Q191.4063,153.25 190.1094,153.25 Q188.5938,153.25 187.3906,152.625 Q186.4063,152.125 185.7188,151.0547 Q185.0313,149.9844 185.0313,148.7031 L185.0313,147.5469 Q185.0313,146.2188 185.6484,145.0703 Q186.2656,143.9219 187.3594,143.3047 Q188.4531,142.6875 189.6875,142.6875 Q190.4219,142.6875 191.0703,142.8516 Q191.7188,143.0156 192.2656,143.375 Z "/><text fill="#000000" font-family="sans-serif" font-size="12" lengthAdjust="spacingAndGlyphs" textLength="52" x="203.5" y="152.4102">Predicate</text><line style="stroke: #A80036; stroke-width: 1.5;" x1="175.5" x2="257.5" y1="163.5" y2="163.5"/><line style="stroke: #A80036; stroke-width: 1.5;" x1="175.5" x2="257.5" y1="171.5" y2="171.5"/><!--MD5=[6b13f1b330d33795af281e5c1dfe1e98]
class Resource--><rect fill="#FEFECE" filter="url(#f7a5h8uis2pck)" height="48" id="Resource" style="stroke: #A80036; stroke-width: 1.5;" width="86" x="293.5" y="131.5"/><ellipse cx="308.5" cy="147.5" fill="#ADD1B2" rx="11" ry="11" style="stroke: #A80036; stroke-width: 1.0;"/><path d="M311.2656,143.375 Q311.4219,143.1563 311.6094,143.0469 Q311.7969,142.9375 312.0156,142.9375 Q312.3906,142.9375 312.625,143.1953 Q312.8594,143.4531 312.8594,144.0625 L312.8594,145.5156 Q312.8594,146.125 312.625,146.3906 Q312.3906,146.6563 312.0156,146.6563 Q311.6719,146.6563 311.4688,146.4531 Q311.2656,146.2656 311.1563,145.75 Q311.1094,145.3906 310.9219,145.2031 Q310.5938,144.8281 309.9844,144.6094 Q309.375,144.3906 308.75,144.3906 Q307.9844,144.3906 307.3516,144.7188 Q306.7188,145.0469 306.2266,145.7969 Q305.7344,146.5469 305.7344,147.5781 L305.7344,148.6719 Q305.7344,149.9063 306.625,150.7266 Q307.5156,151.5469 309.1094,151.5469 Q310.0469,151.5469 310.7031,151.2969 Q311.0938,151.1406 311.5156,150.7031 Q311.7813,150.4375 311.9297,150.3594 Q312.0781,150.2813 312.2813,150.2813 Q312.6094,150.2813 312.8672,150.5391 Q313.125,150.7969 313.125,151.1406 Q313.125,151.4844 312.7813,151.8906 Q312.2813,152.4688 311.4844,152.7969 Q310.4063,153.25 309.1094,153.25 Q307.5938,153.25 306.3906,152.625 Q305.4063,152.125 304.7188,151.0547 Q304.0313,149.9844 304.0313,148.7031 L304.0313,147.5469 Q304.0313,146.2188 304.6484,145.0703 Q305.2656,143.9219 306.3594,143.3047 Q307.4531,142.6875 308.6875,142.6875 Q309.4219,142.6875 310.0703,142.8516 Q310.7188,143.0156 311.2656,143.375 Z "/><text fill="#000000" font-family="sans-serif" font-size="12" lengthAdjust="spacingAndGlyphs" textLength="54" x="322.5" y="152.4102">Resource</text><line style="stroke: #A80036; stroke-width: 1.5;" x1="294.5" x2="378.5" y1="163.5" y2="163.5"/><line style="stroke: #A80036; stroke-width: 1.5;" x1="294.5" x2="378.5" y1="171.5" y2="171.5"/><!--MD5=[83cb7b9a61729069b453c40304caf896]
class Triple--><rect fill="#FEFECE" filter="url(#f7a5h8uis2pck)" height="48" id="Triple" style="stroke: #A80036; stroke-width: 1.5;" width="63" x="218" y="8.5"/><ellipse cx="233" cy="24.5" fill="#ADD1B2" rx="11" ry="11" style="stroke: #A80036; stroke-width: 1.0;"/><path d="M235.7656,20.375 Q235.9219,20.1563 236.1094,20.0469 Q236.2969,19.9375 236.5156,19.9375 Q236.8906,19.9375 237.125,20.1953 Q237.3594,20.4531 237.3594,21.0625 L237.3594,22.5156 Q237.3594,23.125 237.125,23.3906 Q236.8906,23.6563 236.5156,23.6563 Q236.1719,23.6563 235.9688,23.4531 Q235.7656,23.2656 235.6563,22.75 Q235.6094,22.3906 235.4219,22.2031 Q235.0938,21.8281 234.4844,21.6094 Q233.875,21.3906 233.25,21.3906 Q232.4844,21.3906 231.8516,21.7188 Q231.2188,22.0469 230.7266,22.7969 Q230.2344,23.5469 230.2344,24.5781 L230.2344,25.6719 Q230.2344,26.9063 231.125,27.7266 Q232.0156,28.5469 233.6094,28.5469 Q234.5469,28.5469 235.2031,28.2969 Q235.5938,28.1406 236.0156,27.7031 Q236.2813,27.4375 236.4297,27.3594 Q236.5781,27.2813 236.7813,27.2813 Q237.1094,27.2813 237.3672,27.5391 Q237.625,27.7969 237.625,28.1406 Q237.625,28.4844 237.2813,28.8906 Q236.7813,29.4688 235.9844,29.7969 Q234.9063,30.25 233.6094,30.25 Q232.0938,30.25 230.8906,29.625 Q229.9063,29.125 229.2188,28.0547 Q228.5313,26.9844 228.5313,25.7031 L228.5313,24.5469 Q228.5313,23.2188 229.1484,22.0703 Q229.7656,20.9219 230.8594,20.3047 Q231.9531,19.6875 233.1875,19.6875 Q233.9219,19.6875 234.5703,19.8516 Q235.2188,20.0156 235.7656,20.375 Z "/><text fill="#000000" font-family="sans-serif" font-size="12" lengthAdjust="spacingAndGlyphs" textLength="31" x="247" y="29.4102">Triple</text><line style="stroke: #A80036; stroke-width: 1.5;" x1="219" x2="280" y1="40.5" y2="40.5"/><line style="stroke: #A80036; stroke-width: 1.5;" x1="219" x2="280" y1="48.5" y2="48.5"/><!--MD5=[3c11629c5314607dcae72425f0c11ee0]
class SingularAnnotation--><rect fill="#FEFECE" filter="url(#f7a5h8uis2pck)" height="48" id="SingularAnnotation" style="stroke: #A80036; stroke-width: 1.5;" width="136" x="414.5" y="131.5"/><ellipse cx="429.5" cy="147.5" fill="#ADD1B2" rx="11" ry="11" style="stroke: #A80036; stroke-width: 1.0;"/><path d="M432.2656,143.375 Q432.4219,143.1563 432.6094,143.0469 Q432.7969,142.9375 433.0156,142.9375 Q433.3906,142.9375 433.625,143.1953 Q433.8594,143.4531 433.8594,144.0625 L433.8594,145.5156 Q433.8594,146.125 433.625,146.3906 Q433.3906,146.6563 433.0156,146.6563 Q432.6719,146.6563 432.4688,146.4531 Q432.2656,146.2656 432.1563,145.75 Q432.1094,145.3906 431.9219,145.2031 Q431.5938,144.8281 430.9844,144.6094 Q430.375,144.3906 429.75,144.3906 Q428.9844,144.3906 428.3516,144.7188 Q427.7188,145.0469 427.2266,145.7969 Q426.7344,146.5469 426.7344,147.5781 L426.7344,148.6719 Q426.7344,149.9063 427.625,150.7266 Q428.5156,151.5469 430.1094,151.5469 Q431.0469,151.5469 431.7031,151.2969 Q432.0938,151.1406 432.5156,150.7031 Q432.7813,150.4375 432.9297,150.3594 Q433.0781,150.2813 433.2813,150.2813 Q433.6094,150.2813 433.8672,150.5391 Q434.125,150.7969 434.125,151.1406 Q434.125,151.4844 433.7813,151.8906 Q433.2813,152.4688 432.4844,152.7969 Q431.4063,153.25 430.1094,153.25 Q428.5938,153.25 427.3906,152.625 Q426.4063,152.125 425.7188,151.0547 Q425.0313,149.9844 425.0313,148.7031 L425.0313,147.5469 Q425.0313,146.2188 425.6484,145.0703 Q426.2656,143.9219 427.3594,143.3047 Q428.4531,142.6875 429.6875,142.6875 Q430.4219,142.6875 431.0703,142.8516 Q431.7188,143.0156 432.2656,143.375 Z "/><text fill="#000000" font-family="sans-serif" font-size="12" lengthAdjust="spacingAndGlyphs" textLength="104" x="443.5" y="152.4102">SingularAnnotation</text><line style="stroke: #A80036; stroke-width: 1.5;" x1="415.5" x2="549.5" y1="163.5" y2="163.5"/><line style="stroke: #A80036; stroke-width: 1.5;" x1="415.5" x2="549.5" y1="171.5" y2="171.5"/><!--MD5=[bd5a7c6ba0e5b7af461c7d0f99591f68]
class CompositeAnnotation--><rect fill="#FEFECE" filter="url(#f7a5h8uis2pck)" height="75.6719" id="CompositeAnnotation" style="stroke: #A80036; stroke-width: 1.5;" width="197" x="586" y="117.5"/><ellipse cx="621.7" cy="133.5" fill="#ADD1B2" rx="11" ry="11" style="stroke: #A80036; stroke-width: 1.0;"/><path d="M624.4656,129.375 Q624.6219,129.1563 624.8094,129.0469 Q624.9969,128.9375 625.2156,128.9375 Q625.5906,128.9375 625.825,129.1953 Q626.0594,129.4531 626.0594,130.0625 L626.0594,131.5156 Q626.0594,132.125 625.825,132.3906 Q625.5906,132.6563 625.2156,132.6563 Q624.8719,132.6563 624.6688,132.4531 Q624.4656,132.2656 624.3563,131.75 Q624.3094,131.3906 624.1219,131.2031 Q623.7938,130.8281 623.1844,130.6094 Q622.575,130.3906 621.95,130.3906 Q621.1844,130.3906 620.5516,130.7188 Q619.9188,131.0469 619.4266,131.7969 Q618.9344,132.5469 618.9344,133.5781 L618.9344,134.6719 Q618.9344,135.9063 619.825,136.7266 Q620.7156,137.5469 622.3094,137.5469 Q623.2469,137.5469 623.9031,137.2969 Q624.2938,137.1406 624.7156,136.7031 Q624.9813,136.4375 625.1297,136.3594 Q625.2781,136.2813 625.4813,136.2813 Q625.8094,136.2813 626.0672,136.5391 Q626.325,136.7969 626.325,137.1406 Q626.325,137.4844 625.9813,137.8906 Q625.4813,138.4688 624.6844,138.7969 Q623.6063,139.25 622.3094,139.25 Q620.7938,139.25 619.5906,138.625 Q618.6063,138.125 617.9188,137.0547 Q617.2313,135.9844 617.2313,134.7031 L617.2313,133.5469 Q617.2313,132.2188 617.8484,131.0703 Q618.4656,129.9219 619.5594,129.3047 Q620.6531,128.6875 621.8875,128.6875 Q622.6219,128.6875 623.2703,128.8516 Q623.9188,129.0156 624.4656,129.375 Z "/><text fill="#000000" font-family="sans-serif" font-size="12" lengthAdjust="spacingAndGlyphs" textLength="119" x="640.3" y="138.4102">CompositeAnnotation</text><line style="stroke: #A80036; stroke-width: 1.5;" x1="587" x2="782" y1="149.5" y2="149.5"/><ellipse cx="597" cy="160.5" fill="none" rx="3" ry="3" style="stroke: #038048; stroke-width: 1.0;"/><text fill="#000000" font-family="sans-serif" font-size="11" lengthAdjust="spacingAndGlyphs" textLength="171" x="606" y="164.9189">physicalProperty : PhysicalProperty</text><ellipse cx="597" cy="174.3359" fill="none" rx="3" ry="3" style="stroke: #038048; stroke-width: 1.0;"/><text fill="#000000" font-family="sans-serif" font-size="11" lengthAdjust="spacingAndGlyphs" textLength="157" x="606" y="178.7549">propertyBearer : PropertyBearer</text><line style="stroke: #A80036; stroke-width: 1.5;" x1="587" x2="782" y1="185.1719" y2="185.1719"/><!--MD5=[b1b35833dc86dffc6b5d0c34dd643d10]
class Participant--><rect fill="#FEFECE" filter="url(#f7a5h8uis2pck)" height="75.6719" id="Participant" style="stroke: #A80036; stroke-width: 1.5;" width="218" x="360.5" y="598"/><ellipse cx="436.25" cy="614" fill="#ADD1B2" rx="11" ry="11" style="stroke: #A80036; stroke-width: 1.0;"/><path d="M439.0156,609.875 Q439.1719,609.6563 439.3594,609.5469 Q439.5469,609.4375 439.7656,609.4375 Q440.1406,609.4375 440.375,609.6953 Q440.6094,609.9531 440.6094,610.5625 L440.6094,612.0156 Q440.6094,612.625 440.375,612.8906 Q440.1406,613.1563 439.7656,613.1563 Q439.4219,613.1563 439.2188,612.9531 Q439.0156,612.7656 438.9063,612.25 Q438.8594,611.8906 438.6719,611.7031 Q438.3438,611.3281 437.7344,611.1094 Q437.125,610.8906 436.5,610.8906 Q435.7344,610.8906 435.1016,611.2188 Q434.4688,611.5469 433.9766,612.2969 Q433.4844,613.0469 433.4844,614.0781 L433.4844,615.1719 Q433.4844,616.4063 434.375,617.2266 Q435.2656,618.0469 436.8594,618.0469 Q437.7969,618.0469 438.4531,617.7969 Q438.8438,617.6406 439.2656,617.2031 Q439.5313,616.9375 439.6797,616.8594 Q439.8281,616.7813 440.0313,616.7813 Q440.3594,616.7813 440.6172,617.0391 Q440.875,617.2969 440.875,617.6406 Q440.875,617.9844 440.5313,618.3906 Q440.0313,618.9688 439.2344,619.2969 Q438.1563,619.75 436.8594,619.75 Q435.3438,619.75 434.1406,619.125 Q433.1563,618.625 432.4688,617.5547 Q431.7813,616.4844 431.7813,615.2031 L431.7813,614.0469 Q431.7813,612.7188 432.3984,611.5703 Q433.0156,610.4219 434.1094,609.8047 Q435.2031,609.1875 436.4375,609.1875 Q437.1719,609.1875 437.8203,609.3516 Q438.4688,609.5156 439.0156,609.875 Z "/><text fill="#000000" font-family="sans-serif" font-size="12" lengthAdjust="spacingAndGlyphs" textLength="58" x="456.75" y="618.9102">Participant</text><line style="stroke: #A80036; stroke-width: 1.5;" x1="361.5" x2="577.5" y1="630" y2="630"/><ellipse cx="371.5" cy="641" fill="none" rx="3" ry="3" style="stroke: #038048; stroke-width: 1.0;"/><text fill="#000000" font-family="sans-serif" font-size="11" lengthAdjust="spacingAndGlyphs" textLength="192" x="380.5" y="645.4189">physicalEntityReference : PhysicalEntity</text><ellipse cx="371.5" cy="654.8359" fill="none" rx="3" ry="3" style="stroke: #038048; stroke-width: 1.0;"/><text fill="#000000" font-family="sans-serif" font-size="11" lengthAdjust="spacingAndGlyphs" textLength="82" x="380.5" y="659.2549">multiplier : double</text><line style="stroke: #A80036; stroke-width: 1.5;" x1="361.5" x2="577.5" y1="665.6719" y2="665.6719"/><path d="M316.5,11 L316.5,28.5 L281.281,32.5 L316.5,36.5 L316.5,53.7031 A0,0 0 0 0 316.5,53.7031 L470.5,53.7031 A0,0 0 0 0 470.5,53.7031 L470.5,21 L460.5,11 L316.5,11 A0,0 0 0 0 316.5,11 " fill="#FBFB77" filter="url(#f7a5h8uis2pck)" style="stroke: #A80036; stroke-width: 1.0;"/><path d="M460.5,11 L460.5,21 L470.5,21 L460.5,11 " fill="#FBFB77" style="stroke: #A80036; stroke-width: 1.0;"/><text fill="#000000" font-family="sans-serif" font-size="13" lengthAdjust="spacingAndGlyphs" textLength="133" x="322.5" y="29.4951">Most objects construct</text><text fill="#000000" font-family="sans-serif" font-size="13" lengthAdjust="spacingAndGlyphs" textLength="77" x="322.5" y="45.8467">Triple objects</text><path d="M539.5,11 L539.5,53.7031 A0,0 0 0 0 539.5,53.7031 L680.5,53.7031 L684.5,117.209 L688.5,53.7031 L829.5,53.7031 A0,0 0 0 0 829.5,53.7031 L829.5,21 L819.5,11 L539.5,11 A0,0 0 0 0 539.5,11 " fill="#FBFB77" filter="url(#f7a5h8uis2pck)" style="stroke: #A80036; stroke-width: 1.0;"/><path d="M819.5,11 L819.5,21 L829.5,21 L819.5,11 " fill="#FBFB77" style="stroke: #A80036; stroke-width: 1.0;"/><text fill="#000000" font-family="sans-serif" font-size="13" lengthAdjust="spacingAndGlyphs" textLength="269" x="545.5" y="29.4951">- Diamond arrow means composition i.e. has-a</text><text fill="#000000" font-family="sans-serif" font-size="13" lengthAdjust="spacingAndGlyphs" textLength="231" x="545.5" y="45.8467">- Open arrow means inheritance i.e. is-a</text><path d="M6,270 L6,345.4063 A0,0 0 0 0 6,345.4063 L199,345.4063 A0,0 0 0 0 199,345.4063 L199,280 L189,270 L106.5,270 L102.5,179.609 L98.5,270 L6,270 A0,0 0 0 0 6,270 " fill="#FBFB77" filter="url(#f7a5h8uis2pck)" style="stroke: #A80036; stroke-width: 1.0;"/><path d="M189,270 L189,280 L199,280 L189,270 " fill="#FBFB77" style="stroke: #A80036; stroke-width: 1.0;"/><text fill="#000000" font-family="sans-serif" font-size="13" lengthAdjust="spacingAndGlyphs" textLength="172" x="12" y="288.4951">Triple classes and other lower</text><text fill="#000000" font-family="sans-serif" font-size="13" lengthAdjust="spacingAndGlyphs" textLength="122" x="12" y="304.8467">level components are</text><text fill="#000000" font-family="sans-serif" font-size="13" lengthAdjust="spacingAndGlyphs" textLength="152" x="12" y="321.1982">implemented but this UML</text><text fill="#000000" font-family="sans-serif" font-size="13" lengthAdjust="spacingAndGlyphs" textLength="134" x="12" y="337.5498">is shortened for brevity.</text><!--MD5=[74df49ed099d3bebe48b6f2602bcc0bb]
reverse link Resource to PhysicalProperty--><path d="M382.604,192.148 C419.132,220.391 469.093,259.021 500.579,283.365 " fill="none" id="Resource&lt;-PhysicalProperty" style="stroke: #A80036; stroke-width: 1.0;"/><polygon fill="none" points="377.928,197.38,366.387,179.609,386.491,186.305,377.928,197.38" style="stroke: #A80036; stroke-width: 1.0;"/><!--MD5=[36279575142f99ec0a74e3b418bc6072]
reverse link Triple to SingularAnnotation--><path d="M299.267,59.344 C340.37,80.69 398.196,110.72 437.831,131.303 " fill="none" id="Triple&lt;-SingularAnnotation" style="stroke: #A80036; stroke-width: 1.0;"/><polygon fill="none" points="295.932,65.501,281.409,50.071,302.385,53.076,295.932,65.501" style="stroke: #A80036; stroke-width: 1.0;"/><!--MD5=[26f489823590fcb7fa2d7e19daaab97b]
reverse link Triple to Subject--><path d="M211.22,65.009 C186.081,85.702 153.744,112.319 130.892,131.13 " fill="none" id="Triple&lt;-Subject" style="stroke: #A80036; stroke-width: 1.0;"/><polygon fill="#A80036" points="221.504,56.544,214.3294,57.2686,212.2388,64.17,219.4134,63.4454,221.504,56.544" style="stroke: #A80036; stroke-width: 1.0;"/><!--MD5=[531c3af8e9ced61e2539d5757fb63fcb]
reverse link Triple to Predicate--><path d="M239.752,69.242 C234.3,89.232 227.66,113.579 222.874,131.13 " fill="none" id="Triple&lt;-Predicate" style="stroke: #A80036; stroke-width: 1.0;"/><polygon fill="#A80036" points="243.215,56.544,237.7774,61.2803,240.0579,68.1213,245.4955,63.385,243.215,56.544" style="stroke: #A80036; stroke-width: 1.0;"/><!--MD5=[327a7d66928f5febc8cbe091ed5c2ae4]
reverse link Triple to Resource--><path d="M273.765,67.248 C288.393,87.593 306.655,112.991 319.697,131.13 " fill="none" id="Triple&lt;-Resource" style="stroke: #A80036; stroke-width: 1.0;"/><polygon fill="#A80036" points="266.069,56.544,266.324,63.7506,273.0743,66.287,272.8193,59.0804,266.069,56.544" style="stroke: #A80036; stroke-width: 1.0;"/><!--MD5=[55e54f5aee4922594b1c0f267967b5aa]
reverse link CompositeAnnotation to PhysicalProperty--><path d="M636.999,202.767 C609.556,229.498 576.222,261.965 554.241,283.376 " fill="none" id="CompositeAnnotation&lt;-PhysicalProperty" style="stroke: #A80036; stroke-width: 1.0;"/><polygon fill="#A80036" points="646.433,193.579,639.344,194.9002,637.837,201.9521,644.9261,200.6309,646.433,193.579" style="stroke: #A80036; stroke-width: 1.0;"/><!--MD5=[b867946bb10e9e72d6fb927955f1d7b2]
reverse link CompositeAnnotation to PropertyBearer--><path d="M684.5,206.696 C684.5,229.802 684.5,256.446 684.5,276.39 " fill="none" id="CompositeAnnotation&lt;-PropertyBearer" style="stroke: #A80036; stroke-width: 1.0;"/><polygon fill="#A80036" points="684.5,193.579,680.5,199.579,684.5,205.579,688.5,199.579,684.5,193.579" style="stroke: #A80036; stroke-width: 1.0;"/><!--MD5=[4adce2440d7652f159decf9b01f1fc86]
reverse link PropertyBearer to PhysicalEntity--><path d="M635.085,346.207 C626.732,351.958 618.007,357.6 609.5,362.5 C589.244,374.167 581.313,371.596 561.5,384 C541.34,396.621 520.908,412.809 503.493,427.852 " fill="none" id="PropertyBearer&lt;-PhysicalEntity" style="stroke: #A80036; stroke-width: 1.0;"/><polygon fill="#A80036" points="645.802,338.639,638.5935,338.8326,635.9997,345.5611,643.2082,345.3675,645.802,338.639" style="stroke: #A80036; stroke-width: 1.0;"/><!--MD5=[7dca2b3106ae71f2237057a7746b8189]
reverse link PropertyBearer to PhysicalProcess--><path d="M684.5,351.979 C684.5,375.448 684.5,404.352 684.5,427.914 " fill="none" id="PropertyBearer&lt;-PhysicalProcess" style="stroke: #A80036; stroke-width: 1.0;"/><polygon fill="#A80036" points="684.5,338.87,680.5,344.87,684.5,350.87,688.5,344.87,684.5,338.87" style="stroke: #A80036; stroke-width: 1.0;"/><!--MD5=[3667d7479206c11e3e0291397464a5e6]
reverse link PropertyBearer to PhysicalForce--><path d="M746.973,345.415 C766.574,357.377 788.141,370.936 807.5,384 C831.248,400.026 856.884,418.786 878.258,434.857 " fill="none" id="PropertyBearer&lt;-PhysicalForce" style="stroke: #A80036; stroke-width: 1.0;"/><polygon fill="#A80036" points="735.691,338.572,738.747,345.1035,745.9515,344.7947,742.8955,338.2632,735.691,338.572" style="stroke: #A80036; stroke-width: 1.0;"/><!--MD5=[fb0600ef452f5bb18d57df23844ac967]
reverse link PhysicalEntity to Participant--><path d="M461.137,531.422 C462.919,553.502 464.907,578.112 466.496,597.801 " fill="none" id="PhysicalEntity&lt;-Participant" style="stroke: #A80036; stroke-width: 1.0;"/><polygon fill="#A80036" points="460.087,518.42,456.5826,524.7223,461.0523,530.3811,464.5567,524.0788,460.087,518.42" style="stroke: #A80036; stroke-width: 1.0;"/><text fill="#000000" font-family="sans-serif" font-size="13" lengthAdjust="spacingAndGlyphs" textLength="116" x="465.5" y="564.4951">inheritance instead?</text><!--MD5=[0de1e465155d0269b530664bae623ecd]
reverse link Participant to SourceParticipant--><path d="M527.95,686.265 C538.051,693.257 548.767,699.818 559.5,705 C572.314,711.187 577.806,706.571 590.5,713 C612.641,724.214 634.233,742.232 649.699,756.761 " fill="none" id="Participant&lt;-SourceParticipant" style="stroke: #A80036; stroke-width: 1.0;"/><polygon fill="none" points="523.596,691.752,511.637,674.259,531.894,680.476,523.596,691.752" style="stroke: #A80036; stroke-width: 1.0;"/><!--MD5=[73496b83a351f349c3d89f6f370215af]
reverse link Participant to SinkParticipant--><path d="M598.32,657.953 C649.012,669.564 706.461,687.076 754.5,713 C775.243,724.194 794.966,742.214 808.975,756.748 " fill="none" id="Participant&lt;-SinkParticipant" style="stroke: #A80036; stroke-width: 1.0;"/><polygon fill="none" points="596.576,664.737,578.528,653.635,599.56,651.059,596.576,664.737" style="stroke: #A80036; stroke-width: 1.0;"/><!--MD5=[8661421b05681e24eaf36a10529ebdda]
reverse link Participant to MediatorParticipant--><path d="M483.366,693.652 C488.766,715.717 494.65,739.756 498.835,756.853 " fill="none" id="Participant&lt;-MediatorParticipant" style="stroke: #A80036; stroke-width: 1.0;"/><polygon fill="none" points="476.56,695.289,478.604,674.198,490.159,691.961,476.56,695.289" style="stroke: #A80036; stroke-width: 1.0;"/><!--MD5=[196b794f9ea161615a642bce3daec064]
reverse link PhysicalProcess to SourceParticipant--><path d="M682.242,531.567 C679.581,599.432 675.284,708.999 673.416,756.636 " fill="none" id="PhysicalProcess&lt;-SourceParticipant" style="stroke: #A80036; stroke-width: 1.0;"/><polygon fill="#A80036" points="682.768,518.168,678.5357,524.0065,682.2972,530.1588,686.5295,524.3203,682.768,518.168" style="stroke: #A80036; stroke-width: 1.0;"/><!--MD5=[847311b4150d724fe9434874e2bbc24e]
reverse link PhysicalProcess to SinkParticipant--><path d="M711.177,530.297 C743.285,598.057 795.715,708.701 818.429,756.636 " fill="none" id="PhysicalProcess&lt;-SinkParticipant" style="stroke: #A80036; stroke-width: 1.0;"/><polygon fill="#A80036" points="705.429,518.168,704.3829,525.3028,710.5665,529.0126,711.6126,521.8778,705.429,518.168" style="stroke: #A80036; stroke-width: 1.0;"/><!--MD5=[49e23dd665dcca4ac7c8c96dcc59713e]
reverse link PhysicalProcess to MediatorParticipant--><path d="M664.378,530.677 C648.52,571.982 624.316,628.448 595.5,674 C575.921,704.951 547.779,736.268 527.987,756.752 " fill="none" id="PhysicalProcess&lt;-MediatorParticipant" style="stroke: #A80036; stroke-width: 1.0;"/><polygon fill="#A80036" points="669.027,518.374,663.1641,522.5724,664.7846,529.5991,670.6475,525.4007,669.027,518.374" style="stroke: #A80036; stroke-width: 1.0;"/><!--MD5=[46a52e7639aacc2ab3c041b3cb24e721]
reverse link PhysicalForce to SourceParticipant--><path d="M887.109,521.456 C831.734,588.167 733.016,707.094 691.61,756.978 " fill="none" id="PhysicalForce&lt;-SourceParticipant" style="stroke: #A80036; stroke-width: 1.0;"/><polygon fill="#A80036" points="895.609,511.216,888.699,513.278,887.9447,520.4496,894.8547,518.3875,895.609,511.216" style="stroke: #A80036; stroke-width: 1.0;"/><!--MD5=[df4772e5c1e3d42a7c4cd543c2172460]
reverse link PhysicalForce to SinkParticipant--><path d="M921.913,524.412 C916.254,572.346 904.169,645.723 879.5,705 C871.744,723.638 859.108,742.536 848.48,756.7 " fill="none" id="PhysicalForce&lt;-SinkParticipant" style="stroke: #A80036; stroke-width: 1.0;"/><polygon fill="#A80036" points="923.376,511.3,918.7354,516.8195,922.0455,523.226,926.6861,517.7065,923.376,511.3" style="stroke: #A80036; stroke-width: 1.0;"/><!--MD5=[adc57b204517ad5eab198b3e46e29bd8]
@startuml

class Subject {}
class Predicate {}
class Resource {}

class Triple {}

class SingularAnnotation

class CompositeAnnotation {
    + physicalProperty : PhysicalProperty
    + propertyBearer : PropertyBearer
}

together CompositeAnnotationCompositions {
class PhysicalProperty

class PropertyBearer{
    + PhysicalProperty
}
}
together group1{
class PhysicalEntity{
    + resources : vector<Resource>
    + subject : Subject
    + id : MetaID
}

class PhysicalProcess {
    + sources : vector<SourceParticipant>
    + sinks : vector<SinkParticipant>
    + mediator : vector<MediatorParticipant>

}

class PhysicalForce{
    + sources : vector<SourceParticipant>
    + sinks : vector<SinkParticipant>
}
}

class Participant{
    + physicalEntityReference : PhysicalEntity
    + multiplier : double
}

together ProcessParticipants {
class SourceParticipant

class SinkParticipant

class MediatorParticipant

note left of MediatorParticipant
    Multiplier is 0.0
end note

note bottom of SinkParticipant
    multiplier = 0.0
    when used in
    physical force
end note

note bottom of SourceParticipant
    multiplier = 0.0
    when used in
    physical force
end note

}
Resource <|- - PhysicalProperty

Triple <|- - SingularAnnotation
Triple *- - Subject
Triple *- - Predicate
Triple *- - Resource

CompositeAnnotation *- - PhysicalProperty
CompositeAnnotation *- - PropertyBearer

PropertyBearer *- - PhysicalEntity
PropertyBearer *- - PhysicalProcess
PropertyBearer *- - PhysicalForce

PhysicalEntity *- -Participant : inheritance instead?
Participant <|- - SourceParticipant
Participant <|- - SinkParticipant
Participant <|- - MediatorParticipant

PhysicalProcess *- - SourceParticipant
PhysicalProcess *- - SinkParticipant
PhysicalProcess *- - MediatorParticipant

PhysicalForce *- - SourceParticipant
PhysicalForce *- - SinkParticipant

note right of Triple
    Most objects construct
    Triple objects
end note

note top of CompositeAnnotation
- Diamond arrow means composition i.e. has-a
- Open arrow means inheritance i.e. is-a
end note

note bottom of Subject
    Triple classes and other lower
    level components are
    implemented but this UML
    is shortened for brevity.
end note






@enduml

PlantUML version 1.2020.05(Thu Mar 19 21:17:32 GMT 2020)
(GPL source distribution)
Java Runtime: Java(TM) SE Runtime Environment
JVM: Java HotSpot(TM) Client VM
Java Version: 1.8.0_241-b07
Operating System: Windows 10
Default Encoding: Cp1252
Language: en
Country: US
--></g></svg>