<?xml version="1.0" encoding="UTF-8" standalone="no"?><svg xmlns="http://www.w3.org/2000/svg" xmlns:xlink="http://www.w3.org/1999/xlink" contentScriptType="application/ecmascript" contentStyleType="text/css" height="2460px" preserveAspectRatio="none" style="width:3440px;height:2460px;" version="1.1" viewBox="0 0 3440 2460" width="3440px" zoomAndPan="magnify"><defs><filter height="300%" id="f1h5wplkde2nga" width="300%" x="-1" y="-1"><feGaussianBlur result="blurOut" stdDeviation="5.0"/><feColorMatrix in="blurOut" result="blurOut2" type="matrix" values="0 0 0 0 0 0 0 0 0 0 0 0 0 0 0 0 0 0 .4 0"/><feOffset dx="10.0" dy="10.0" in="blurOut2" result="blurOut3"/><feBlend in="SourceGraphic" in2="blurOut3" mode="normal"/></filter></defs><g><!--MD5=[faebc81c07309c527f2fda51bf6b78ab]
class Annotation--><rect fill="#F8F8F8" filter="url(#f1h5wplkde2nga)" height="189.1797" id="Annotation" style="stroke: #383838; stroke-width: 3.75;" width="327.5" x="1245" y="1870"/><ellipse cx="1328.625" cy="1910" fill="#C2C2C2" rx="27.5" ry="27.5" style="stroke: #383838; stroke-width: 2.5;"/><path d="M1333.625,1901.25 Q1334.1328,1900 1334.7188,1899.375 Q1335.3047,1898.75 1335.9688,1898.75 Q1337.1406,1898.75 1337.8828,1899.4531 Q1338.625,1900.1563 1338.625,1901.7969 L1338.625,1905.7031 Q1338.625,1907.3438 1337.9219,1908.0469 Q1337.2188,1908.75 1336.125,1908.75 Q1335.1484,1908.75 1334.5234,1908.3203 Q1333.8984,1907.8906 1333.625,1906.7578 Q1333.5078,1905.9766 1333.0781,1905.5469 Q1332.2969,1904.7266 1330.8906,1904.2578 Q1329.4844,1903.75 1328.0781,1903.75 Q1326.3203,1903.75 1324.8359,1904.4531 Q1323.3906,1905.1563 1322.2578,1906.7188 Q1321.125,1908.2813 1321.125,1910.4297 L1321.125,1912.7344 Q1321.125,1915.3125 1323.2344,1917.0313 Q1325.3438,1918.75 1329.0938,1918.75 Q1331.3203,1918.75 1332.8828,1918.2422 Q1333.7813,1917.9688 1334.7969,1917.0703 Q1335.4609,1916.5625 1335.8125,1916.4063 Q1336.1641,1916.25 1336.5938,1916.25 Q1337.4141,1916.25 1338,1916.9141 Q1338.625,1917.5391 1338.625,1918.4375 Q1338.625,1919.2969 1337.7656,1920.3125 Q1336.5156,1921.7969 1334.5234,1922.6172 Q1331.9063,1923.75 1328.7031,1923.75 Q1324.9531,1923.75 1321.9453,1922.2656 Q1319.5234,1921.0938 1317.8047,1918.5547 Q1316.125,1916.0156 1316.125,1913.0078 L1316.125,1910.2734 Q1316.125,1907.1484 1317.6094,1904.4141 Q1319.1328,1901.6797 1321.75,1900.2344 Q1324.4063,1898.75 1327.375,1898.75 Q1329.1719,1898.75 1330.7344,1899.375 Q1332.2969,1900 1333.625,1901.25 Z "/><text fill="#000000" font-family="sans-serif" font-size="30" lengthAdjust="spacingAndGlyphs" textLength="145" x="1373.875" y="1922.2754">Annotation</text><line style="stroke: #383838; stroke-width: 3.75;" x1="1247.5" x2="1570" y1="1950" y2="1950"/><line style="stroke: #383838; stroke-width: 3.75;" x1="1247.5" x2="1570" y1="1970" y2="1970"/><ellipse cx="1272.5" cy="1997.5" fill="#A6A6A6" rx="7.5" ry="7.5" style="stroke: #545454; stroke-width: 2.5;"/><text fill="#000000" font-family="sans-serif" font-size="27.5" lengthAdjust="spacingAndGlyphs" textLength="262.5" x="1295" y="2008.5474">serialize() : std::string</text><ellipse cx="1272.5" cy="2032.0898" fill="#A6A6A6" rx="7.5" ry="7.5" style="stroke: #545454; stroke-width: 2.5;"/><text fill="#000000" font-family="sans-serif" font-size="27.5" lengthAdjust="spacingAndGlyphs" textLength="235" x="1295" y="2043.1372">iscomposite() : bool</text><!--MD5=[3c11629c5314607dcae72425f0c11ee0]
class SingularAnnotation--><rect fill="#F8F8F8" filter="url(#f1h5wplkde2nga)" height="189.1797" id="SingularAnnotation" style="stroke: #383838; stroke-width: 3.75;" width="340" x="1048.75" y="1155"/><ellipse cx="1086.25" cy="1195" fill="#C2C2C2" rx="27.5" ry="27.5" style="stroke: #383838; stroke-width: 2.5;"/><path d="M1091.25,1186.25 Q1091.7578,1185 1092.3438,1184.375 Q1092.9297,1183.75 1093.5938,1183.75 Q1094.7656,1183.75 1095.5078,1184.4531 Q1096.25,1185.1563 1096.25,1186.7969 L1096.25,1190.7031 Q1096.25,1192.3438 1095.5469,1193.0469 Q1094.8438,1193.75 1093.75,1193.75 Q1092.7734,1193.75 1092.1484,1193.3203 Q1091.5234,1192.8906 1091.25,1191.7578 Q1091.1328,1190.9766 1090.7031,1190.5469 Q1089.9219,1189.7266 1088.5156,1189.2578 Q1087.1094,1188.75 1085.7031,1188.75 Q1083.9453,1188.75 1082.4609,1189.4531 Q1081.0156,1190.1563 1079.8828,1191.7188 Q1078.75,1193.2813 1078.75,1195.4297 L1078.75,1197.7344 Q1078.75,1200.3125 1080.8594,1202.0313 Q1082.9688,1203.75 1086.7188,1203.75 Q1088.9453,1203.75 1090.5078,1203.2422 Q1091.4063,1202.9688 1092.4219,1202.0703 Q1093.0859,1201.5625 1093.4375,1201.4063 Q1093.7891,1201.25 1094.2188,1201.25 Q1095.0391,1201.25 1095.625,1201.9141 Q1096.25,1202.5391 1096.25,1203.4375 Q1096.25,1204.2969 1095.3906,1205.3125 Q1094.1406,1206.7969 1092.1484,1207.6172 Q1089.5313,1208.75 1086.3281,1208.75 Q1082.5781,1208.75 1079.5703,1207.2656 Q1077.1484,1206.0938 1075.4297,1203.5547 Q1073.75,1201.0156 1073.75,1198.0078 L1073.75,1195.2734 Q1073.75,1192.1484 1075.2344,1189.4141 Q1076.7578,1186.6797 1079.375,1185.2344 Q1082.0313,1183.75 1085,1183.75 Q1086.7969,1183.75 1088.3594,1184.375 Q1089.9219,1185 1091.25,1186.25 Z "/><text fill="#000000" font-family="sans-serif" font-size="30" lengthAdjust="spacingAndGlyphs" textLength="260" x="1121.25" y="1207.2754">SingularAnnotation</text><line style="stroke: #383838; stroke-width: 3.75;" x1="1051.25" x2="1386.25" y1="1235" y2="1235"/><ellipse cx="1076.25" cy="1262.5" fill="none" rx="7.5" ry="7.5" style="stroke: #545454; stroke-width: 2.5;"/><text fill="#000000" font-family="sans-serif" font-size="27.5" lengthAdjust="spacingAndGlyphs" textLength="145" x="1098.75" y="1273.5474">triple : Triple</text><line style="stroke: #383838; stroke-width: 3.75;" x1="1051.25" x2="1386.25" y1="1289.5898" y2="1289.5898"/><ellipse cx="1076.25" cy="1317.0898" fill="#A6A6A6" rx="7.5" ry="7.5" style="stroke: #545454; stroke-width: 2.5;"/><text fill="#000000" font-family="sans-serif" font-size="27.5" lengthAdjust="spacingAndGlyphs" textLength="255" x="1098.75" y="1328.1372">serialize() :std::string</text><!--MD5=[bd5a7c6ba0e5b7af461c7d0f99591f68]
class CompositeAnnotation--><rect fill="#F8F8F8" filter="url(#f1h5wplkde2nga)" height="223.7695" id="CompositeAnnotation" style="stroke: #383838; stroke-width: 3.75;" width="492.5" x="1352.5" y="1495"/><ellipse cx="1441.75" cy="1535" fill="#C2C2C2" rx="27.5" ry="27.5" style="stroke: #383838; stroke-width: 2.5;"/><path d="M1446.75,1526.25 Q1447.2578,1525 1447.8438,1524.375 Q1448.4297,1523.75 1449.0938,1523.75 Q1450.2656,1523.75 1451.0078,1524.4531 Q1451.75,1525.1563 1451.75,1526.7969 L1451.75,1530.7031 Q1451.75,1532.3438 1451.0469,1533.0469 Q1450.3438,1533.75 1449.25,1533.75 Q1448.2734,1533.75 1447.6484,1533.3203 Q1447.0234,1532.8906 1446.75,1531.7578 Q1446.6328,1530.9766 1446.2031,1530.5469 Q1445.4219,1529.7266 1444.0156,1529.2578 Q1442.6094,1528.75 1441.2031,1528.75 Q1439.4453,1528.75 1437.9609,1529.4531 Q1436.5156,1530.1563 1435.3828,1531.7188 Q1434.25,1533.2813 1434.25,1535.4297 L1434.25,1537.7344 Q1434.25,1540.3125 1436.3594,1542.0313 Q1438.4688,1543.75 1442.2188,1543.75 Q1444.4453,1543.75 1446.0078,1543.2422 Q1446.9063,1542.9688 1447.9219,1542.0703 Q1448.5859,1541.5625 1448.9375,1541.4063 Q1449.2891,1541.25 1449.7188,1541.25 Q1450.5391,1541.25 1451.125,1541.9141 Q1451.75,1542.5391 1451.75,1543.4375 Q1451.75,1544.2969 1450.8906,1545.3125 Q1449.6406,1546.7969 1447.6484,1547.6172 Q1445.0313,1548.75 1441.8281,1548.75 Q1438.0781,1548.75 1435.0703,1547.2656 Q1432.6484,1546.0938 1430.9297,1543.5547 Q1429.25,1541.0156 1429.25,1538.0078 L1429.25,1535.2734 Q1429.25,1532.1484 1430.7344,1529.4141 Q1432.2578,1526.6797 1434.875,1525.2344 Q1437.5313,1523.75 1440.5,1523.75 Q1442.2969,1523.75 1443.8594,1524.375 Q1445.4219,1525 1446.75,1526.25 Z "/><text fill="#000000" font-family="sans-serif" font-size="30" lengthAdjust="spacingAndGlyphs" textLength="297.5" x="1488.25" y="1547.2754">CompositeAnnotation</text><line style="stroke: #383838; stroke-width: 3.75;" x1="1355" x2="1842.5" y1="1575" y2="1575"/><ellipse cx="1380" cy="1602.5" fill="none" rx="7.5" ry="7.5" style="stroke: #545454; stroke-width: 2.5;"/><text fill="#000000" font-family="sans-serif" font-size="27.5" lengthAdjust="spacingAndGlyphs" textLength="427.5" x="1402.5" y="1613.5474">physicalProperty : PhysicalProperty</text><ellipse cx="1380" cy="1637.0898" fill="none" rx="7.5" ry="7.5" style="stroke: #545454; stroke-width: 2.5;"/><text fill="#000000" font-family="sans-serif" font-size="27.5" lengthAdjust="spacingAndGlyphs" textLength="262.5" x="1402.5" y="1648.1372">physicalEntity : Entity*</text><line style="stroke: #383838; stroke-width: 3.75;" x1="1355" x2="1842.5" y1="1664.1797" y2="1664.1797"/><ellipse cx="1380" cy="1691.6797" fill="#A6A6A6" rx="7.5" ry="7.5" style="stroke: #545454; stroke-width: 2.5;"/><text fill="#000000" font-family="sans-serif" font-size="27.5" lengthAdjust="spacingAndGlyphs" textLength="255" x="1402.5" y="1702.7271">serialize() :std::string</text><!--MD5=[83cb7b9a61729069b453c40304caf896]
class Triple--><rect fill="#F8F8F8" filter="url(#f1h5wplkde2nga)" height="223.7695" id="Triple" style="stroke: #383838; stroke-width: 3.75;" width="325" x="1468.75" y="780"/><ellipse cx="1581.875" cy="820" fill="#C2C2C2" rx="27.5" ry="27.5" style="stroke: #383838; stroke-width: 2.5;"/><path d="M1586.875,811.25 Q1587.3828,810 1587.9688,809.375 Q1588.5547,808.75 1589.2188,808.75 Q1590.3906,808.75 1591.1328,809.4531 Q1591.875,810.1563 1591.875,811.7969 L1591.875,815.7031 Q1591.875,817.3438 1591.1719,818.0469 Q1590.4688,818.75 1589.375,818.75 Q1588.3984,818.75 1587.7734,818.3203 Q1587.1484,817.8906 1586.875,816.7578 Q1586.7578,815.9766 1586.3281,815.5469 Q1585.5469,814.7266 1584.1406,814.2578 Q1582.7344,813.75 1581.3281,813.75 Q1579.5703,813.75 1578.0859,814.4531 Q1576.6406,815.1563 1575.5078,816.7188 Q1574.375,818.2813 1574.375,820.4297 L1574.375,822.7344 Q1574.375,825.3125 1576.4844,827.0313 Q1578.5938,828.75 1582.3438,828.75 Q1584.5703,828.75 1586.1328,828.2422 Q1587.0313,827.9688 1588.0469,827.0703 Q1588.7109,826.5625 1589.0625,826.4063 Q1589.4141,826.25 1589.8438,826.25 Q1590.6641,826.25 1591.25,826.9141 Q1591.875,827.5391 1591.875,828.4375 Q1591.875,829.2969 1591.0156,830.3125 Q1589.7656,831.7969 1587.7734,832.6172 Q1585.1563,833.75 1581.9531,833.75 Q1578.2031,833.75 1575.1953,832.2656 Q1572.7734,831.0938 1571.0547,828.5547 Q1569.375,826.0156 1569.375,823.0078 L1569.375,820.2734 Q1569.375,817.1484 1570.8594,814.4141 Q1572.3828,811.6797 1575,810.2344 Q1577.6563,808.75 1580.625,808.75 Q1582.4219,808.75 1583.9844,809.375 Q1585.5469,810 1586.875,811.25 Z "/><text fill="#000000" font-family="sans-serif" font-size="30" lengthAdjust="spacingAndGlyphs" textLength="77.5" x="1633.125" y="832.2754">Triple</text><line style="stroke: #383838; stroke-width: 3.75;" x1="1471.25" x2="1791.25" y1="860" y2="860"/><ellipse cx="1496.25" cy="887.5" fill="none" rx="7.5" ry="7.5" style="stroke: #545454; stroke-width: 2.5;"/><text fill="#000000" font-family="sans-serif" font-size="27.5" lengthAdjust="spacingAndGlyphs" textLength="200" x="1518.75" y="898.5474">subject : Subject</text><ellipse cx="1496.25" cy="922.0898" fill="none" rx="7.5" ry="7.5" style="stroke: #545454; stroke-width: 2.5;"/><text fill="#000000" font-family="sans-serif" font-size="27.5" lengthAdjust="spacingAndGlyphs" textLength="247.5" x="1518.75" y="933.1372">predicate : Predicate</text><ellipse cx="1496.25" cy="956.6797" fill="none" rx="7.5" ry="7.5" style="stroke: #545454; stroke-width: 2.5;"/><text fill="#000000" font-family="sans-serif" font-size="27.5" lengthAdjust="spacingAndGlyphs" textLength="260" x="1518.75" y="967.7271">resource : Resource*</text><line style="stroke: #383838; stroke-width: 3.75;" x1="1471.25" x2="1791.25" y1="983.7695" y2="983.7695"/><!--MD5=[54966a871ed9594cfed77a625bb7d0e7]
class Uri--><rect fill="#F8F8F8" filter="url(#f1h5wplkde2nga)" height="189.1797" id="Uri" style="stroke: #383838; stroke-width: 3.75;" width="285" x="1426.25" y="20"/><ellipse cx="1538.125" cy="60" fill="#C2C2C2" rx="27.5" ry="27.5" style="stroke: #383838; stroke-width: 2.5;"/><path d="M1543.125,51.25 Q1543.6328,50 1544.2188,49.375 Q1544.8047,48.75 1545.4688,48.75 Q1546.6406,48.75 1547.3828,49.4531 Q1548.125,50.1563 1548.125,51.7969 L1548.125,55.7031 Q1548.125,57.3438 1547.4219,58.0469 Q1546.7188,58.75 1545.625,58.75 Q1544.6484,58.75 1544.0234,58.3203 Q1543.3984,57.8906 1543.125,56.7578 Q1543.0078,55.9766 1542.5781,55.5469 Q1541.7969,54.7266 1540.3906,54.2578 Q1538.9844,53.75 1537.5781,53.75 Q1535.8203,53.75 1534.3359,54.4531 Q1532.8906,55.1563 1531.7578,56.7188 Q1530.625,58.2813 1530.625,60.4297 L1530.625,62.7344 Q1530.625,65.3125 1532.7344,67.0313 Q1534.8438,68.75 1538.5938,68.75 Q1540.8203,68.75 1542.3828,68.2422 Q1543.2813,67.9688 1544.2969,67.0703 Q1544.9609,66.5625 1545.3125,66.4063 Q1545.6641,66.25 1546.0938,66.25 Q1546.9141,66.25 1547.5,66.9141 Q1548.125,67.5391 1548.125,68.4375 Q1548.125,69.2969 1547.2656,70.3125 Q1546.0156,71.7969 1544.0234,72.6172 Q1541.4063,73.75 1538.2031,73.75 Q1534.4531,73.75 1531.4453,72.2656 Q1529.0234,71.0938 1527.3047,68.5547 Q1525.625,66.0156 1525.625,63.0078 L1525.625,60.2734 Q1525.625,57.1484 1527.1094,54.4141 Q1528.6328,51.6797 1531.25,50.2344 Q1533.9063,48.75 1536.875,48.75 Q1538.6719,48.75 1540.2344,49.375 Q1541.7969,50 1543.125,51.25 Z "/><text fill="#000000" font-family="sans-serif" font-size="30" lengthAdjust="spacingAndGlyphs" textLength="40" x="1589.375" y="72.2754">Uri</text><line style="stroke: #383838; stroke-width: 3.75;" x1="1428.75" x2="1708.75" y1="100" y2="100"/><rect fill="none" height="15" style="stroke: #595959; stroke-width: 2.5;" width="15" x="1446.25" y="120"/><text fill="#000000" font-family="sans-serif" font-size="27.5" lengthAdjust="spacingAndGlyphs" textLength="220" x="1476.25" y="138.5474">uri_str : std::string</text><line style="stroke: #383838; stroke-width: 3.75;" x1="1428.75" x2="1708.75" y1="154.5898" y2="154.5898"/><ellipse cx="1453.75" cy="182.0898" fill="#A6A6A6" rx="7.5" ry="7.5" style="stroke: #545454; stroke-width: 2.5;"/><text fill="#000000" font-family="sans-serif" font-size="27.5" lengthAdjust="spacingAndGlyphs" textLength="162.5" x="1476.25" y="193.1372">parse() : void</text><!--MD5=[d0da0a299942266ebd64acf2b2e95fa4]
class Subject--><rect fill="#F8F8F8" filter="url(#f1h5wplkde2nga)" height="189.1797" id="Subject" style="stroke: #383838; stroke-width: 3.75;" width="285" x="1426.25" y="400"/><ellipse cx="1509.875" cy="440" fill="#C2C2C2" rx="27.5" ry="27.5" style="stroke: #383838; stroke-width: 2.5;"/><path d="M1514.875,431.25 Q1515.3828,430 1515.9688,429.375 Q1516.5547,428.75 1517.2188,428.75 Q1518.3906,428.75 1519.1328,429.4531 Q1519.875,430.1563 1519.875,431.7969 L1519.875,435.7031 Q1519.875,437.3438 1519.1719,438.0469 Q1518.4688,438.75 1517.375,438.75 Q1516.3984,438.75 1515.7734,438.3203 Q1515.1484,437.8906 1514.875,436.7578 Q1514.7578,435.9766 1514.3281,435.5469 Q1513.5469,434.7266 1512.1406,434.2578 Q1510.7344,433.75 1509.3281,433.75 Q1507.5703,433.75 1506.0859,434.4531 Q1504.6406,435.1563 1503.5078,436.7188 Q1502.375,438.2813 1502.375,440.4297 L1502.375,442.7344 Q1502.375,445.3125 1504.4844,447.0313 Q1506.5938,448.75 1510.3438,448.75 Q1512.5703,448.75 1514.1328,448.2422 Q1515.0313,447.9688 1516.0469,447.0703 Q1516.7109,446.5625 1517.0625,446.4063 Q1517.4141,446.25 1517.8438,446.25 Q1518.6641,446.25 1519.25,446.9141 Q1519.875,447.5391 1519.875,448.4375 Q1519.875,449.2969 1519.0156,450.3125 Q1517.7656,451.7969 1515.7734,452.6172 Q1513.1563,453.75 1509.9531,453.75 Q1506.2031,453.75 1503.1953,452.2656 Q1500.7734,451.0938 1499.0547,448.5547 Q1497.375,446.0156 1497.375,443.0078 L1497.375,440.2734 Q1497.375,437.1484 1498.8594,434.4141 Q1500.3828,431.6797 1503,430.2344 Q1505.6563,428.75 1508.625,428.75 Q1510.4219,428.75 1511.9844,429.375 Q1513.5469,430 1514.875,431.25 Z "/><text fill="#000000" font-family="sans-serif" font-size="30" lengthAdjust="spacingAndGlyphs" textLength="102.5" x="1555.125" y="452.2754">Subject</text><line style="stroke: #383838; stroke-width: 3.75;" x1="1428.75" x2="1708.75" y1="480" y2="480"/><ellipse cx="1453.75" cy="507.5" fill="none" rx="7.5" ry="7.5" style="stroke: #545454; stroke-width: 2.5;"/><text fill="#000000" font-family="sans-serif" font-size="27.5" lengthAdjust="spacingAndGlyphs" textLength="220" x="1476.25" y="518.5474">metaId : std::string</text><ellipse cx="1453.75" cy="542.0898" fill="none" rx="7.5" ry="7.5" style="stroke: #545454; stroke-width: 2.5;"/><text fill="#000000" font-family="sans-serif" font-size="27.5" lengthAdjust="spacingAndGlyphs" textLength="85" x="1476.25" y="553.1372">uri : Uri</text><line style="stroke: #383838; stroke-width: 3.75;" x1="1428.75" x2="1708.75" y1="569.1797" y2="569.1797"/><path d="M571.25,360 L571.25,630.2734 L1016.25,630.2734 L1016.25,385 L991.25,360 L571.25,360 " fill="#ECECEC" filter="url(#f1h5wplkde2nga)" style="stroke: #383838; stroke-width: 2.5;"/><path d="M991.25,360 L991.25,385 L1016.25,385 L991.25,360 " fill="#ECECEC" style="stroke: #383838; stroke-width: 2.5;"/><text fill="#000000" font-family="sans-serif" font-size="32.5" lengthAdjust="spacingAndGlyphs" textLength="290" x="586.25" y="406.2378">Should subject have</text><text fill="#000000" font-family="sans-serif" font-size="32.5" lengthAdjust="spacingAndGlyphs" textLength="252.5" x="586.25" y="447.1167">a reference to the</text><text fill="#000000" font-family="sans-serif" font-size="32.5" lengthAdjust="spacingAndGlyphs" textLength="257.5" x="586.25" y="487.9956">model elemenet it</text><text fill="#000000" font-family="sans-serif" font-size="32.5" lengthAdjust="spacingAndGlyphs" textLength="300" x="586.25" y="528.8745">represents? I'd argue</text><text fill="#000000" font-family="sans-serif" font-size="32.5" lengthAdjust="spacingAndGlyphs" textLength="392.5" x="586.25" y="569.7534">that this is what the metaid</text><text fill="#000000" font-family="sans-serif" font-size="32.5" lengthAdjust="spacingAndGlyphs" textLength="80" x="586.25" y="610.6323">is for.</text><!--MD5=[e6dc55dd324d6a8c189f3ada02b144fc]
class Predicate--><rect fill="#F8F8F8" filter="url(#f1h5wplkde2nga)" height="120" id="Predicate" style="stroke: #383838; stroke-width: 3.75;" width="210" x="1103.75" y="435"/><ellipse cx="1141.25" cy="475" fill="#B1B1B1" rx="27.5" ry="27.5" style="stroke: #383838; stroke-width: 2.5;"/><path d="M1143.75,467.5 L1143.75,482.5 L1148.75,482.5 L1149.9609,482.5 L1151.25,484.0625 L1151.25,485 L1151.25,485.9375 L1149.9609,487.5 L1148.75,487.5 L1133.75,487.5 L1132.5391,487.5 L1131.25,485.9375 L1131.25,485 L1131.25,484.0625 L1132.5391,482.5 L1133.75,482.5 L1138.75,482.5 L1138.75,467.5 L1133.75,467.5 L1132.5391,467.5 L1131.25,465.9375 L1131.25,465 L1131.25,464.0625 L1132.5391,462.5 L1133.75,462.5 L1148.75,462.5 L1149.9609,462.5 L1151.25,464.0625 L1151.25,465 L1151.25,465.9375 L1149.9609,467.5 L1148.75,467.5 L1143.75,467.5 Z "/><text fill="#000000" font-family="sans-serif" font-size="30" font-style="italic" lengthAdjust="spacingAndGlyphs" textLength="130" x="1176.25" y="487.2754">Predicate</text><line style="stroke: #383838; stroke-width: 3.75;" x1="1106.25" x2="1311.25" y1="515" y2="515"/><line style="stroke: #383838; stroke-width: 3.75;" x1="1106.25" x2="1311.25" y1="535" y2="535"/><!--MD5=[6b13f1b330d33795af281e5c1dfe1e98]
class Resource--><rect fill="#F8F8F8" filter="url(#f1h5wplkde2nga)" height="154.5898" id="Resource" style="stroke: #383838; stroke-width: 3.75;" width="215" x="1896.25" y="417.5"/><ellipse cx="1933.75" cy="457.5" fill="#C2C2C2" rx="27.5" ry="27.5" style="stroke: #383838; stroke-width: 2.5;"/><path d="M1938.75,448.75 Q1939.2578,447.5 1939.8438,446.875 Q1940.4297,446.25 1941.0938,446.25 Q1942.2656,446.25 1943.0078,446.9531 Q1943.75,447.6563 1943.75,449.2969 L1943.75,453.2031 Q1943.75,454.8438 1943.0469,455.5469 Q1942.3438,456.25 1941.25,456.25 Q1940.2734,456.25 1939.6484,455.8203 Q1939.0234,455.3906 1938.75,454.2578 Q1938.6328,453.4766 1938.2031,453.0469 Q1937.4219,452.2266 1936.0156,451.7578 Q1934.6094,451.25 1933.2031,451.25 Q1931.4453,451.25 1929.9609,451.9531 Q1928.5156,452.6563 1927.3828,454.2188 Q1926.25,455.7813 1926.25,457.9297 L1926.25,460.2344 Q1926.25,462.8125 1928.3594,464.5313 Q1930.4688,466.25 1934.2188,466.25 Q1936.4453,466.25 1938.0078,465.7422 Q1938.9063,465.4688 1939.9219,464.5703 Q1940.5859,464.0625 1940.9375,463.9063 Q1941.2891,463.75 1941.7188,463.75 Q1942.5391,463.75 1943.125,464.4141 Q1943.75,465.0391 1943.75,465.9375 Q1943.75,466.7969 1942.8906,467.8125 Q1941.6406,469.2969 1939.6484,470.1172 Q1937.0313,471.25 1933.8281,471.25 Q1930.0781,471.25 1927.0703,469.7656 Q1924.6484,468.5938 1922.9297,466.0547 Q1921.25,463.5156 1921.25,460.5078 L1921.25,457.7734 Q1921.25,454.6484 1922.7344,451.9141 Q1924.2578,449.1797 1926.875,447.7344 Q1929.5313,446.25 1932.5,446.25 Q1934.2969,446.25 1935.8594,446.875 Q1937.4219,447.5 1938.75,448.75 Z "/><text fill="#000000" font-family="sans-serif" font-size="30" lengthAdjust="spacingAndGlyphs" textLength="135" x="1968.75" y="469.7754">Resource</text><line style="stroke: #383838; stroke-width: 3.75;" x1="1898.75" x2="2108.75" y1="497.5" y2="497.5"/><ellipse cx="1923.75" cy="525" fill="none" rx="7.5" ry="7.5" style="stroke: #545454; stroke-width: 2.5;"/><text fill="#000000" font-family="sans-serif" font-size="27.5" lengthAdjust="spacingAndGlyphs" textLength="85" x="1946.25" y="536.0474">url : Uri</text><line style="stroke: #383838; stroke-width: 3.75;" x1="1898.75" x2="2108.75" y1="552.0898" y2="552.0898"/><!--MD5=[d08268a25748bbb06aac7cc2e0517ce6]
class ResourceUrl--><rect fill="#F8F8F8" filter="url(#f1h5wplkde2nga)" height="120" id="ResourceUrl" style="stroke: #383838; stroke-width: 3.75;" width="255" x="2268.75" y="832.5"/><ellipse cx="2306.25" cy="872.5" fill="#C2C2C2" rx="27.5" ry="27.5" style="stroke: #383838; stroke-width: 2.5;"/><path d="M2311.25,863.75 Q2311.7578,862.5 2312.3438,861.875 Q2312.9297,861.25 2313.5938,861.25 Q2314.7656,861.25 2315.5078,861.9531 Q2316.25,862.6563 2316.25,864.2969 L2316.25,868.2031 Q2316.25,869.8438 2315.5469,870.5469 Q2314.8438,871.25 2313.75,871.25 Q2312.7734,871.25 2312.1484,870.8203 Q2311.5234,870.3906 2311.25,869.2578 Q2311.1328,868.4766 2310.7031,868.0469 Q2309.9219,867.2266 2308.5156,866.7578 Q2307.1094,866.25 2305.7031,866.25 Q2303.9453,866.25 2302.4609,866.9531 Q2301.0156,867.6563 2299.8828,869.2188 Q2298.75,870.7813 2298.75,872.9297 L2298.75,875.2344 Q2298.75,877.8125 2300.8594,879.5313 Q2302.9688,881.25 2306.7188,881.25 Q2308.9453,881.25 2310.5078,880.7422 Q2311.4063,880.4688 2312.4219,879.5703 Q2313.0859,879.0625 2313.4375,878.9063 Q2313.7891,878.75 2314.2188,878.75 Q2315.0391,878.75 2315.625,879.4141 Q2316.25,880.0391 2316.25,880.9375 Q2316.25,881.7969 2315.3906,882.8125 Q2314.1406,884.2969 2312.1484,885.1172 Q2309.5313,886.25 2306.3281,886.25 Q2302.5781,886.25 2299.5703,884.7656 Q2297.1484,883.5938 2295.4297,881.0547 Q2293.75,878.5156 2293.75,875.5078 L2293.75,872.7734 Q2293.75,869.6484 2295.2344,866.9141 Q2296.7578,864.1797 2299.375,862.7344 Q2302.0313,861.25 2305,861.25 Q2306.7969,861.25 2308.3594,861.875 Q2309.9219,862.5 2311.25,863.75 Z "/><text fill="#000000" font-family="sans-serif" font-size="30" lengthAdjust="spacingAndGlyphs" textLength="175" x="2341.25" y="884.7754">ResourceUrl</text><line style="stroke: #383838; stroke-width: 3.75;" x1="2271.25" x2="2521.25" y1="912.5" y2="912.5"/><line style="stroke: #383838; stroke-width: 3.75;" x1="2271.25" x2="2521.25" y1="932.5" y2="932.5"/><!--MD5=[625411352648d5aa1ffede7006df4e31]
class ResourceLiteral--><rect fill="#F8F8F8" filter="url(#f1h5wplkde2nga)" height="120" id="ResourceLiteral" style="stroke: #383838; stroke-width: 3.75;" width="300" x="1881.25" y="832.5"/><ellipse cx="1918.75" cy="872.5" fill="#C2C2C2" rx="27.5" ry="27.5" style="stroke: #383838; stroke-width: 2.5;"/><path d="M1923.75,863.75 Q1924.2578,862.5 1924.8438,861.875 Q1925.4297,861.25 1926.0938,861.25 Q1927.2656,861.25 1928.0078,861.9531 Q1928.75,862.6563 1928.75,864.2969 L1928.75,868.2031 Q1928.75,869.8438 1928.0469,870.5469 Q1927.3438,871.25 1926.25,871.25 Q1925.2734,871.25 1924.6484,870.8203 Q1924.0234,870.3906 1923.75,869.2578 Q1923.6328,868.4766 1923.2031,868.0469 Q1922.4219,867.2266 1921.0156,866.7578 Q1919.6094,866.25 1918.2031,866.25 Q1916.4453,866.25 1914.9609,866.9531 Q1913.5156,867.6563 1912.3828,869.2188 Q1911.25,870.7813 1911.25,872.9297 L1911.25,875.2344 Q1911.25,877.8125 1913.3594,879.5313 Q1915.4688,881.25 1919.2188,881.25 Q1921.4453,881.25 1923.0078,880.7422 Q1923.9063,880.4688 1924.9219,879.5703 Q1925.5859,879.0625 1925.9375,878.9063 Q1926.2891,878.75 1926.7188,878.75 Q1927.5391,878.75 1928.125,879.4141 Q1928.75,880.0391 1928.75,880.9375 Q1928.75,881.7969 1927.8906,882.8125 Q1926.6406,884.2969 1924.6484,885.1172 Q1922.0313,886.25 1918.8281,886.25 Q1915.0781,886.25 1912.0703,884.7656 Q1909.6484,883.5938 1907.9297,881.0547 Q1906.25,878.5156 1906.25,875.5078 L1906.25,872.7734 Q1906.25,869.6484 1907.7344,866.9141 Q1909.2578,864.1797 1911.875,862.7344 Q1914.5313,861.25 1917.5,861.25 Q1919.2969,861.25 1920.8594,861.875 Q1922.4219,862.5 1923.75,863.75 Z "/><text fill="#000000" font-family="sans-serif" font-size="30" lengthAdjust="spacingAndGlyphs" textLength="220" x="1953.75" y="884.7754">ResourceLiteral</text><line style="stroke: #383838; stroke-width: 3.75;" x1="1883.75" x2="2178.75" y1="912.5" y2="912.5"/><line style="stroke: #383838; stroke-width: 3.75;" x1="1883.75" x2="2178.75" y1="932.5" y2="932.5"/><path d="M1852.5,82.5 L1852.5,148.3789 A0,0 0 0 0 1852.5,148.3789 L1993.75,148.3789 L2003.75,417.4625 L2013.75,148.3789 L2155,148.3789 A0,0 0 0 0 2155,148.3789 L2155,107.5 L2130,82.5 L1852.5,82.5 A0,0 0 0 0 1852.5,82.5 " fill="#ECECEC" filter="url(#f1h5wplkde2nga)" style="stroke: #383838; stroke-width: 2.5;"/><path d="M2130,82.5 L2130,107.5 L2155,107.5 L2130,82.5 " fill="#ECECEC" style="stroke: #383838; stroke-width: 2.5;"/><text fill="#000000" font-family="sans-serif" font-size="32.5" lengthAdjust="spacingAndGlyphs" textLength="250" x="1867.5" y="128.7378">Object part of rdf.</text><!--MD5=[2f380d99272917c9afe1e0d649b0631c]
class BiomodelsQualifier--><rect fill="#F8F8F8" filter="url(#f1h5wplkde2nga)" height="120" id="BiomodelsQualifier" style="stroke: #383838; stroke-width: 3.75;" width="345" x="1036.25" y="832.5"/><ellipse cx="1073.75" cy="872.5" fill="#C2C2C2" rx="27.5" ry="27.5" style="stroke: #383838; stroke-width: 2.5;"/><path d="M1078.75,863.75 Q1079.2578,862.5 1079.8438,861.875 Q1080.4297,861.25 1081.0938,861.25 Q1082.2656,861.25 1083.0078,861.9531 Q1083.75,862.6563 1083.75,864.2969 L1083.75,868.2031 Q1083.75,869.8438 1083.0469,870.5469 Q1082.3438,871.25 1081.25,871.25 Q1080.2734,871.25 1079.6484,870.8203 Q1079.0234,870.3906 1078.75,869.2578 Q1078.6328,868.4766 1078.2031,868.0469 Q1077.4219,867.2266 1076.0156,866.7578 Q1074.6094,866.25 1073.2031,866.25 Q1071.4453,866.25 1069.9609,866.9531 Q1068.5156,867.6563 1067.3828,869.2188 Q1066.25,870.7813 1066.25,872.9297 L1066.25,875.2344 Q1066.25,877.8125 1068.3594,879.5313 Q1070.4688,881.25 1074.2188,881.25 Q1076.4453,881.25 1078.0078,880.7422 Q1078.9063,880.4688 1079.9219,879.5703 Q1080.5859,879.0625 1080.9375,878.9063 Q1081.2891,878.75 1081.7188,878.75 Q1082.5391,878.75 1083.125,879.4141 Q1083.75,880.0391 1083.75,880.9375 Q1083.75,881.7969 1082.8906,882.8125 Q1081.6406,884.2969 1079.6484,885.1172 Q1077.0313,886.25 1073.8281,886.25 Q1070.0781,886.25 1067.0703,884.7656 Q1064.6484,883.5938 1062.9297,881.0547 Q1061.25,878.5156 1061.25,875.5078 L1061.25,872.7734 Q1061.25,869.6484 1062.7344,866.9141 Q1064.2578,864.1797 1066.875,862.7344 Q1069.5313,861.25 1072.5,861.25 Q1074.2969,861.25 1075.8594,861.875 Q1077.4219,862.5 1078.75,863.75 Z "/><text fill="#000000" font-family="sans-serif" font-size="30" lengthAdjust="spacingAndGlyphs" textLength="265" x="1108.75" y="884.7754">BiomodelsQualifier</text><line style="stroke: #383838; stroke-width: 3.75;" x1="1038.75" x2="1378.75" y1="912.5" y2="912.5"/><line style="stroke: #383838; stroke-width: 3.75;" x1="1038.75" x2="1378.75" y1="932.5" y2="932.5"/><!--MD5=[a02e75a13dd3f40d2908d97cb6f42b6a]
class DublinCoreMetadataQualifier--><rect fill="#F8F8F8" filter="url(#f1h5wplkde2nga)" height="120" id="DublinCoreMetadataQualifier" style="stroke: #383838; stroke-width: 3.75;" width="477.5" x="15" y="832.5"/><ellipse cx="52.5" cy="872.5" fill="#C2C2C2" rx="27.5" ry="27.5" style="stroke: #383838; stroke-width: 2.5;"/><path d="M57.5,863.75 Q58.0078,862.5 58.5938,861.875 Q59.1797,861.25 59.8438,861.25 Q61.0156,861.25 61.7578,861.9531 Q62.5,862.6563 62.5,864.2969 L62.5,868.2031 Q62.5,869.8438 61.7969,870.5469 Q61.0938,871.25 60,871.25 Q59.0234,871.25 58.3984,870.8203 Q57.7734,870.3906 57.5,869.2578 Q57.3828,868.4766 56.9531,868.0469 Q56.1719,867.2266 54.7656,866.7578 Q53.3594,866.25 51.9531,866.25 Q50.1953,866.25 48.7109,866.9531 Q47.2656,867.6563 46.1328,869.2188 Q45,870.7813 45,872.9297 L45,875.2344 Q45,877.8125 47.1094,879.5313 Q49.2188,881.25 52.9688,881.25 Q55.1953,881.25 56.7578,880.7422 Q57.6563,880.4688 58.6719,879.5703 Q59.3359,879.0625 59.6875,878.9063 Q60.0391,878.75 60.4688,878.75 Q61.2891,878.75 61.875,879.4141 Q62.5,880.0391 62.5,880.9375 Q62.5,881.7969 61.6406,882.8125 Q60.3906,884.2969 58.3984,885.1172 Q55.7813,886.25 52.5781,886.25 Q48.8281,886.25 45.8203,884.7656 Q43.3984,883.5938 41.6797,881.0547 Q40,878.5156 40,875.5078 L40,872.7734 Q40,869.6484 41.4844,866.9141 Q43.0078,864.1797 45.625,862.7344 Q48.2813,861.25 51.25,861.25 Q53.0469,861.25 54.6094,861.875 Q56.1719,862.5 57.5,863.75 Z "/><text fill="#000000" font-family="sans-serif" font-size="30" lengthAdjust="spacingAndGlyphs" textLength="397.5" x="87.5" y="884.7754">DublinCoreMetadataQualifier</text><line style="stroke: #383838; stroke-width: 3.75;" x1="17.5" x2="490" y1="912.5" y2="912.5"/><line style="stroke: #383838; stroke-width: 3.75;" x1="17.5" x2="490" y1="932.5" y2="932.5"/><!--MD5=[96aab87f93b31f41f8a03d502514a3ef]
class OPB--><rect fill="#F8F8F8" filter="url(#f1h5wplkde2nga)" height="120" id="OPB" style="stroke: #383838; stroke-width: 3.75;" width="142.5" x="580" y="832.5"/><ellipse cx="617.5" cy="872.5" fill="#C2C2C2" rx="27.5" ry="27.5" style="stroke: #383838; stroke-width: 2.5;"/><path d="M622.5,863.75 Q623.0078,862.5 623.5938,861.875 Q624.1797,861.25 624.8438,861.25 Q626.0156,861.25 626.7578,861.9531 Q627.5,862.6563 627.5,864.2969 L627.5,868.2031 Q627.5,869.8438 626.7969,870.5469 Q626.0938,871.25 625,871.25 Q624.0234,871.25 623.3984,870.8203 Q622.7734,870.3906 622.5,869.2578 Q622.3828,868.4766 621.9531,868.0469 Q621.1719,867.2266 619.7656,866.7578 Q618.3594,866.25 616.9531,866.25 Q615.1953,866.25 613.7109,866.9531 Q612.2656,867.6563 611.1328,869.2188 Q610,870.7813 610,872.9297 L610,875.2344 Q610,877.8125 612.1094,879.5313 Q614.2188,881.25 617.9688,881.25 Q620.1953,881.25 621.7578,880.7422 Q622.6563,880.4688 623.6719,879.5703 Q624.3359,879.0625 624.6875,878.9063 Q625.0391,878.75 625.4688,878.75 Q626.2891,878.75 626.875,879.4141 Q627.5,880.0391 627.5,880.9375 Q627.5,881.7969 626.6406,882.8125 Q625.3906,884.2969 623.3984,885.1172 Q620.7813,886.25 617.5781,886.25 Q613.8281,886.25 610.8203,884.7656 Q608.3984,883.5938 606.6797,881.0547 Q605,878.5156 605,875.5078 L605,872.7734 Q605,869.6484 606.4844,866.9141 Q608.0078,864.1797 610.625,862.7344 Q613.2813,861.25 616.25,861.25 Q618.0469,861.25 619.6094,861.875 Q621.1719,862.5 622.5,863.75 Z "/><text fill="#000000" font-family="sans-serif" font-size="30" lengthAdjust="spacingAndGlyphs" textLength="62.5" x="652.5" y="884.7754">OPB</text><line style="stroke: #383838; stroke-width: 3.75;" x1="582.5" x2="720" y1="912.5" y2="912.5"/><line style="stroke: #383838; stroke-width: 3.75;" x1="582.5" x2="720" y1="932.5" y2="932.5"/><!--MD5=[52e5e5dea2889dc96e76599eddcf7249]
class FMA--><rect fill="#F8F8F8" filter="url(#f1h5wplkde2nga)" height="120" id="FMA" style="stroke: #383838; stroke-width: 3.75;" width="137.5" x="810" y="832.5"/><ellipse cx="847.5" cy="872.5" fill="#C2C2C2" rx="27.5" ry="27.5" style="stroke: #383838; stroke-width: 2.5;"/><path d="M852.5,863.75 Q853.0078,862.5 853.5938,861.875 Q854.1797,861.25 854.8438,861.25 Q856.0156,861.25 856.7578,861.9531 Q857.5,862.6563 857.5,864.2969 L857.5,868.2031 Q857.5,869.8438 856.7969,870.5469 Q856.0938,871.25 855,871.25 Q854.0234,871.25 853.3984,870.8203 Q852.7734,870.3906 852.5,869.2578 Q852.3828,868.4766 851.9531,868.0469 Q851.1719,867.2266 849.7656,866.7578 Q848.3594,866.25 846.9531,866.25 Q845.1953,866.25 843.7109,866.9531 Q842.2656,867.6563 841.1328,869.2188 Q840,870.7813 840,872.9297 L840,875.2344 Q840,877.8125 842.1094,879.5313 Q844.2188,881.25 847.9688,881.25 Q850.1953,881.25 851.7578,880.7422 Q852.6563,880.4688 853.6719,879.5703 Q854.3359,879.0625 854.6875,878.9063 Q855.0391,878.75 855.4688,878.75 Q856.2891,878.75 856.875,879.4141 Q857.5,880.0391 857.5,880.9375 Q857.5,881.7969 856.6406,882.8125 Q855.3906,884.2969 853.3984,885.1172 Q850.7813,886.25 847.5781,886.25 Q843.8281,886.25 840.8203,884.7656 Q838.3984,883.5938 836.6797,881.0547 Q835,878.5156 835,875.5078 L835,872.7734 Q835,869.6484 836.4844,866.9141 Q838.0078,864.1797 840.625,862.7344 Q843.2813,861.25 846.25,861.25 Q848.0469,861.25 849.6094,861.875 Q851.1719,862.5 852.5,863.75 Z "/><text fill="#000000" font-family="sans-serif" font-size="30" lengthAdjust="spacingAndGlyphs" textLength="57.5" x="882.5" y="884.7754">FMA</text><line style="stroke: #383838; stroke-width: 3.75;" x1="812.5" x2="945" y1="912.5" y2="912.5"/><line style="stroke: #383838; stroke-width: 3.75;" x1="812.5" x2="945" y1="932.5" y2="932.5"/><!--MD5=[fa40dda412b6b247aa26dc2693ea2d81]
class PhysicalProperty--><rect fill="#F8F8F8" filter="url(#f1h5wplkde2nga)" height="154.5898" id="PhysicalProperty" style="stroke: #383838; stroke-width: 3.75;" width="307.5" x="1477.5" y="1172.5"/><ellipse cx="1515" cy="1212.5" fill="#C2C2C2" rx="27.5" ry="27.5" style="stroke: #383838; stroke-width: 2.5;"/><path d="M1520,1203.75 Q1520.5078,1202.5 1521.0938,1201.875 Q1521.6797,1201.25 1522.3438,1201.25 Q1523.5156,1201.25 1524.2578,1201.9531 Q1525,1202.6563 1525,1204.2969 L1525,1208.2031 Q1525,1209.8438 1524.2969,1210.5469 Q1523.5938,1211.25 1522.5,1211.25 Q1521.5234,1211.25 1520.8984,1210.8203 Q1520.2734,1210.3906 1520,1209.2578 Q1519.8828,1208.4766 1519.4531,1208.0469 Q1518.6719,1207.2266 1517.2656,1206.7578 Q1515.8594,1206.25 1514.4531,1206.25 Q1512.6953,1206.25 1511.2109,1206.9531 Q1509.7656,1207.6563 1508.6328,1209.2188 Q1507.5,1210.7813 1507.5,1212.9297 L1507.5,1215.2344 Q1507.5,1217.8125 1509.6094,1219.5313 Q1511.7188,1221.25 1515.4688,1221.25 Q1517.6953,1221.25 1519.2578,1220.7422 Q1520.1563,1220.4688 1521.1719,1219.5703 Q1521.8359,1219.0625 1522.1875,1218.9063 Q1522.5391,1218.75 1522.9688,1218.75 Q1523.7891,1218.75 1524.375,1219.4141 Q1525,1220.0391 1525,1220.9375 Q1525,1221.7969 1524.1406,1222.8125 Q1522.8906,1224.2969 1520.8984,1225.1172 Q1518.2813,1226.25 1515.0781,1226.25 Q1511.3281,1226.25 1508.3203,1224.7656 Q1505.8984,1223.5938 1504.1797,1221.0547 Q1502.5,1218.5156 1502.5,1215.5078 L1502.5,1212.7734 Q1502.5,1209.6484 1503.9844,1206.9141 Q1505.5078,1204.1797 1508.125,1202.7344 Q1510.7813,1201.25 1513.75,1201.25 Q1515.5469,1201.25 1517.1094,1201.875 Q1518.6719,1202.5 1520,1203.75 Z "/><text fill="#000000" font-family="sans-serif" font-size="30" lengthAdjust="spacingAndGlyphs" textLength="227.5" x="1550" y="1224.7754">PhysicalProperty</text><line style="stroke: #383838; stroke-width: 3.75;" x1="1480" x2="1782.5" y1="1252.5" y2="1252.5"/><ellipse cx="1505" cy="1280" fill="none" rx="7.5" ry="7.5" style="stroke: #545454; stroke-width: 2.5;"/><text fill="#000000" font-family="sans-serif" font-size="27.5" lengthAdjust="spacingAndGlyphs" textLength="155" x="1527.5" y="1291.0474">triple : Triple*</text><line style="stroke: #383838; stroke-width: 3.75;" x1="1480" x2="1782.5" y1="1307.0898" y2="1307.0898"/><!--MD5=[be996cdb8e6bf2fc7cb89c555f2cd144]
class Entity--><rect fill="#F8F8F8" filter="url(#f1h5wplkde2nga)" height="154.5898" id="Entity" style="stroke: #383838; stroke-width: 3.75;" width="210" x="2166.25" y="1172.5"/><ellipse cx="2228.5" cy="1212.5" fill="#B1B1B1" rx="27.5" ry="27.5" style="stroke: #383838; stroke-width: 2.5;"/><path d="M2231,1205 L2231,1220 L2236,1220 L2237.2109,1220 L2238.5,1221.5625 L2238.5,1222.5 L2238.5,1223.4375 L2237.2109,1225 L2236,1225 L2221,1225 L2219.7891,1225 L2218.5,1223.4375 L2218.5,1222.5 L2218.5,1221.5625 L2219.7891,1220 L2221,1220 L2226,1220 L2226,1205 L2221,1205 L2219.7891,1205 L2218.5,1203.4375 L2218.5,1202.5 L2218.5,1201.5625 L2219.7891,1200 L2221,1200 L2236,1200 L2237.2109,1200 L2238.5,1201.5625 L2238.5,1202.5 L2238.5,1203.4375 L2237.2109,1205 L2236,1205 L2231,1205 Z "/><text fill="#000000" font-family="sans-serif" font-size="30" font-style="italic" lengthAdjust="spacingAndGlyphs" textLength="75" x="2269" y="1224.7754">Entity</text><line style="stroke: #383838; stroke-width: 3.75;" x1="2168.75" x2="2373.75" y1="1252.5" y2="1252.5"/><ellipse cx="2193.75" cy="1280" fill="none" rx="7.5" ry="7.5" style="stroke: #545454; stroke-width: 2.5;"/><text fill="#000000" font-family="sans-serif" font-size="27.5" lengthAdjust="spacingAndGlyphs" textLength="145" x="2216.25" y="1291.0474">triple : Triple</text><line style="stroke: #383838; stroke-width: 3.75;" x1="2168.75" x2="2373.75" y1="1307.0898" y2="1307.0898"/><!--MD5=[df581eb0b2d7aded84449964112700d9]
class PhysicalEntity--><rect fill="#F8F8F8" filter="url(#f1h5wplkde2nga)" height="120" id="PhysicalEntity" style="stroke: #383838; stroke-width: 3.75;" width="267.5" x="2747.5" y="1547.5"/><ellipse cx="2785" cy="1587.5" fill="#C2C2C2" rx="27.5" ry="27.5" style="stroke: #383838; stroke-width: 2.5;"/><path d="M2790,1578.75 Q2790.5078,1577.5 2791.0938,1576.875 Q2791.6797,1576.25 2792.3438,1576.25 Q2793.5156,1576.25 2794.2578,1576.9531 Q2795,1577.6563 2795,1579.2969 L2795,1583.2031 Q2795,1584.8438 2794.2969,1585.5469 Q2793.5938,1586.25 2792.5,1586.25 Q2791.5234,1586.25 2790.8984,1585.8203 Q2790.2734,1585.3906 2790,1584.2578 Q2789.8828,1583.4766 2789.4531,1583.0469 Q2788.6719,1582.2266 2787.2656,1581.7578 Q2785.8594,1581.25 2784.4531,1581.25 Q2782.6953,1581.25 2781.2109,1581.9531 Q2779.7656,1582.6563 2778.6328,1584.2188 Q2777.5,1585.7813 2777.5,1587.9297 L2777.5,1590.2344 Q2777.5,1592.8125 2779.6094,1594.5313 Q2781.7188,1596.25 2785.4688,1596.25 Q2787.6953,1596.25 2789.2578,1595.7422 Q2790.1563,1595.4688 2791.1719,1594.5703 Q2791.8359,1594.0625 2792.1875,1593.9063 Q2792.5391,1593.75 2792.9688,1593.75 Q2793.7891,1593.75 2794.375,1594.4141 Q2795,1595.0391 2795,1595.9375 Q2795,1596.7969 2794.1406,1597.8125 Q2792.8906,1599.2969 2790.8984,1600.1172 Q2788.2813,1601.25 2785.0781,1601.25 Q2781.3281,1601.25 2778.3203,1599.7656 Q2775.8984,1598.5938 2774.1797,1596.0547 Q2772.5,1593.5156 2772.5,1590.5078 L2772.5,1587.7734 Q2772.5,1584.6484 2773.9844,1581.9141 Q2775.5078,1579.1797 2778.125,1577.7344 Q2780.7813,1576.25 2783.75,1576.25 Q2785.5469,1576.25 2787.1094,1576.875 Q2788.6719,1577.5 2790,1578.75 Z "/><text fill="#000000" font-family="sans-serif" font-size="30" lengthAdjust="spacingAndGlyphs" textLength="187.5" x="2820" y="1599.7754">PhysicalEntity</text><line style="stroke: #383838; stroke-width: 3.75;" x1="2750" x2="3012.5" y1="1627.5" y2="1627.5"/><line style="stroke: #383838; stroke-width: 3.75;" x1="2750" x2="3012.5" y1="1647.5" y2="1647.5"/><!--MD5=[48d70057fbcb13305256da8ebb6052ce]
class PhysicalProcess--><rect fill="#F8F8F8" filter="url(#f1h5wplkde2nga)" height="120" id="PhysicalProcess" style="stroke: #383838; stroke-width: 3.75;" width="310" x="3103.75" y="1547.5"/><ellipse cx="3141.25" cy="1587.5" fill="#C2C2C2" rx="27.5" ry="27.5" style="stroke: #383838; stroke-width: 2.5;"/><path d="M3146.25,1578.75 Q3146.7578,1577.5 3147.3438,1576.875 Q3147.9297,1576.25 3148.5938,1576.25 Q3149.7656,1576.25 3150.5078,1576.9531 Q3151.25,1577.6563 3151.25,1579.2969 L3151.25,1583.2031 Q3151.25,1584.8438 3150.5469,1585.5469 Q3149.8438,1586.25 3148.75,1586.25 Q3147.7734,1586.25 3147.1484,1585.8203 Q3146.5234,1585.3906 3146.25,1584.2578 Q3146.1328,1583.4766 3145.7031,1583.0469 Q3144.9219,1582.2266 3143.5156,1581.7578 Q3142.1094,1581.25 3140.7031,1581.25 Q3138.9453,1581.25 3137.4609,1581.9531 Q3136.0156,1582.6563 3134.8828,1584.2188 Q3133.75,1585.7813 3133.75,1587.9297 L3133.75,1590.2344 Q3133.75,1592.8125 3135.8594,1594.5313 Q3137.9688,1596.25 3141.7188,1596.25 Q3143.9453,1596.25 3145.5078,1595.7422 Q3146.4063,1595.4688 3147.4219,1594.5703 Q3148.0859,1594.0625 3148.4375,1593.9063 Q3148.7891,1593.75 3149.2188,1593.75 Q3150.0391,1593.75 3150.625,1594.4141 Q3151.25,1595.0391 3151.25,1595.9375 Q3151.25,1596.7969 3150.3906,1597.8125 Q3149.1406,1599.2969 3147.1484,1600.1172 Q3144.5313,1601.25 3141.3281,1601.25 Q3137.5781,1601.25 3134.5703,1599.7656 Q3132.1484,1598.5938 3130.4297,1596.0547 Q3128.75,1593.5156 3128.75,1590.5078 L3128.75,1587.7734 Q3128.75,1584.6484 3130.2344,1581.9141 Q3131.7578,1579.1797 3134.375,1577.7344 Q3137.0313,1576.25 3140,1576.25 Q3141.7969,1576.25 3143.3594,1576.875 Q3144.9219,1577.5 3146.25,1578.75 Z "/><text fill="#000000" font-family="sans-serif" font-size="30" lengthAdjust="spacingAndGlyphs" textLength="230" x="3176.25" y="1599.7754">PhysicalProcess</text><line style="stroke: #383838; stroke-width: 3.75;" x1="3106.25" x2="3411.25" y1="1627.5" y2="1627.5"/><line style="stroke: #383838; stroke-width: 3.75;" x1="3106.25" x2="3411.25" y1="1647.5" y2="1647.5"/><!--MD5=[7891b59bb27f0174c8b8c465458d50ca]
class PhysicalForce--><rect fill="#F8F8F8" filter="url(#f1h5wplkde2nga)" height="120" id="PhysicalForce" style="stroke: #383838; stroke-width: 3.75;" width="272.5" x="1932.5" y="1547.5"/><ellipse cx="1970" cy="1587.5" fill="#C2C2C2" rx="27.5" ry="27.5" style="stroke: #383838; stroke-width: 2.5;"/><path d="M1975,1578.75 Q1975.5078,1577.5 1976.0938,1576.875 Q1976.6797,1576.25 1977.3438,1576.25 Q1978.5156,1576.25 1979.2578,1576.9531 Q1980,1577.6563 1980,1579.2969 L1980,1583.2031 Q1980,1584.8438 1979.2969,1585.5469 Q1978.5938,1586.25 1977.5,1586.25 Q1976.5234,1586.25 1975.8984,1585.8203 Q1975.2734,1585.3906 1975,1584.2578 Q1974.8828,1583.4766 1974.4531,1583.0469 Q1973.6719,1582.2266 1972.2656,1581.7578 Q1970.8594,1581.25 1969.4531,1581.25 Q1967.6953,1581.25 1966.2109,1581.9531 Q1964.7656,1582.6563 1963.6328,1584.2188 Q1962.5,1585.7813 1962.5,1587.9297 L1962.5,1590.2344 Q1962.5,1592.8125 1964.6094,1594.5313 Q1966.7188,1596.25 1970.4688,1596.25 Q1972.6953,1596.25 1974.2578,1595.7422 Q1975.1563,1595.4688 1976.1719,1594.5703 Q1976.8359,1594.0625 1977.1875,1593.9063 Q1977.5391,1593.75 1977.9688,1593.75 Q1978.7891,1593.75 1979.375,1594.4141 Q1980,1595.0391 1980,1595.9375 Q1980,1596.7969 1979.1406,1597.8125 Q1977.8906,1599.2969 1975.8984,1600.1172 Q1973.2813,1601.25 1970.0781,1601.25 Q1966.3281,1601.25 1963.3203,1599.7656 Q1960.8984,1598.5938 1959.1797,1596.0547 Q1957.5,1593.5156 1957.5,1590.5078 L1957.5,1587.7734 Q1957.5,1584.6484 1958.9844,1581.9141 Q1960.5078,1579.1797 1963.125,1577.7344 Q1965.7813,1576.25 1968.75,1576.25 Q1970.5469,1576.25 1972.1094,1576.875 Q1973.6719,1577.5 1975,1578.75 Z "/><text fill="#000000" font-family="sans-serif" font-size="30" lengthAdjust="spacingAndGlyphs" textLength="192.5" x="2005" y="1599.7754">PhysicalForce</text><line style="stroke: #383838; stroke-width: 3.75;" x1="1935" x2="2202.5" y1="1627.5" y2="1627.5"/><line style="stroke: #383838; stroke-width: 3.75;" x1="1935" x2="2202.5" y1="1647.5" y2="1647.5"/><!--MD5=[e514f18440047e307342ce332512f54c]
class PhysicalDependency--><rect fill="#F8F8F8" filter="url(#f1h5wplkde2nga)" height="120" id="PhysicalDependency" style="stroke: #383838; stroke-width: 3.75;" width="367.5" x="2292.5" y="1547.5"/><ellipse cx="2330" cy="1587.5" fill="#C2C2C2" rx="27.5" ry="27.5" style="stroke: #383838; stroke-width: 2.5;"/><path d="M2335,1578.75 Q2335.5078,1577.5 2336.0938,1576.875 Q2336.6797,1576.25 2337.3438,1576.25 Q2338.5156,1576.25 2339.2578,1576.9531 Q2340,1577.6563 2340,1579.2969 L2340,1583.2031 Q2340,1584.8438 2339.2969,1585.5469 Q2338.5938,1586.25 2337.5,1586.25 Q2336.5234,1586.25 2335.8984,1585.8203 Q2335.2734,1585.3906 2335,1584.2578 Q2334.8828,1583.4766 2334.4531,1583.0469 Q2333.6719,1582.2266 2332.2656,1581.7578 Q2330.8594,1581.25 2329.4531,1581.25 Q2327.6953,1581.25 2326.2109,1581.9531 Q2324.7656,1582.6563 2323.6328,1584.2188 Q2322.5,1585.7813 2322.5,1587.9297 L2322.5,1590.2344 Q2322.5,1592.8125 2324.6094,1594.5313 Q2326.7188,1596.25 2330.4688,1596.25 Q2332.6953,1596.25 2334.2578,1595.7422 Q2335.1563,1595.4688 2336.1719,1594.5703 Q2336.8359,1594.0625 2337.1875,1593.9063 Q2337.5391,1593.75 2337.9688,1593.75 Q2338.7891,1593.75 2339.375,1594.4141 Q2340,1595.0391 2340,1595.9375 Q2340,1596.7969 2339.1406,1597.8125 Q2337.8906,1599.2969 2335.8984,1600.1172 Q2333.2813,1601.25 2330.0781,1601.25 Q2326.3281,1601.25 2323.3203,1599.7656 Q2320.8984,1598.5938 2319.1797,1596.0547 Q2317.5,1593.5156 2317.5,1590.5078 L2317.5,1587.7734 Q2317.5,1584.6484 2318.9844,1581.9141 Q2320.5078,1579.1797 2323.125,1577.7344 Q2325.7813,1576.25 2328.75,1576.25 Q2330.5469,1576.25 2332.1094,1576.875 Q2333.6719,1577.5 2335,1578.75 Z "/><text fill="#000000" font-family="sans-serif" font-size="30" lengthAdjust="spacingAndGlyphs" textLength="287.5" x="2365" y="1599.7754">PhysicalDependency</text><line style="stroke: #383838; stroke-width: 3.75;" x1="2295" x2="2657.5" y1="1627.5" y2="1627.5"/><line style="stroke: #383838; stroke-width: 3.75;" x1="2295" x2="2657.5" y1="1647.5" y2="1647.5"/><!--MD5=[29ebed7ad3b16d5f9a8dddad3daedb57]
class AnnotationList--><rect fill="#F8F8F8" filter="url(#f1h5wplkde2nga)" height="223.7695" id="AnnotationList" style="stroke: #383838; stroke-width: 3.75;" width="567.5" x="1125" y="2210"/><ellipse cx="1300.625" cy="2250" fill="#C2C2C2" rx="27.5" ry="27.5" style="stroke: #383838; stroke-width: 2.5;"/><path d="M1305.625,2241.25 Q1306.1328,2240 1306.7188,2239.375 Q1307.3047,2238.75 1307.9688,2238.75 Q1309.1406,2238.75 1309.8828,2239.4531 Q1310.625,2240.1563 1310.625,2241.7969 L1310.625,2245.7031 Q1310.625,2247.3438 1309.9219,2248.0469 Q1309.2188,2248.75 1308.125,2248.75 Q1307.1484,2248.75 1306.5234,2248.3203 Q1305.8984,2247.8906 1305.625,2246.7578 Q1305.5078,2245.9766 1305.0781,2245.5469 Q1304.2969,2244.7266 1302.8906,2244.2578 Q1301.4844,2243.75 1300.0781,2243.75 Q1298.3203,2243.75 1296.8359,2244.4531 Q1295.3906,2245.1563 1294.2578,2246.7188 Q1293.125,2248.2813 1293.125,2250.4297 L1293.125,2252.7344 Q1293.125,2255.3125 1295.2344,2257.0313 Q1297.3438,2258.75 1301.0938,2258.75 Q1303.3203,2258.75 1304.8828,2258.2422 Q1305.7813,2257.9688 1306.7969,2257.0703 Q1307.4609,2256.5625 1307.8125,2256.4063 Q1308.1641,2256.25 1308.5938,2256.25 Q1309.4141,2256.25 1310,2256.9141 Q1310.625,2257.5391 1310.625,2258.4375 Q1310.625,2259.2969 1309.7656,2260.3125 Q1308.5156,2261.7969 1306.5234,2262.6172 Q1303.9063,2263.75 1300.7031,2263.75 Q1296.9531,2263.75 1293.9453,2262.2656 Q1291.5234,2261.0938 1289.8047,2258.5547 Q1288.125,2256.0156 1288.125,2253.0078 L1288.125,2250.2734 Q1288.125,2247.1484 1289.6094,2244.4141 Q1291.1328,2241.6797 1293.75,2240.2344 Q1296.4063,2238.75 1299.375,2238.75 Q1301.1719,2238.75 1302.7344,2239.375 Q1304.2969,2240 1305.625,2241.25 Z "/><text fill="#000000" font-family="sans-serif" font-size="30" lengthAdjust="spacingAndGlyphs" textLength="195" x="1351.875" y="2262.2754">AnnotationList</text><line style="stroke: #383838; stroke-width: 3.75;" x1="1127.5" x2="1690" y1="2290" y2="2290"/><ellipse cx="1152.5" cy="2317.5" fill="none" rx="7.5" ry="7.5" style="stroke: #545454; stroke-width: 2.5;"/><text fill="#000000" font-family="sans-serif" font-size="27.5" lengthAdjust="spacingAndGlyphs" textLength="502.5" x="1175" y="2328.5474">annotations : std::unique_ptr&lt;Annotation&gt;</text><line style="stroke: #383838; stroke-width: 3.75;" x1="1127.5" x2="1690" y1="2344.5898" y2="2344.5898"/><ellipse cx="1152.5" cy="2372.0898" fill="#A6A6A6" rx="7.5" ry="7.5" style="stroke: #545454; stroke-width: 2.5;"/><text fill="#000000" font-family="sans-serif" font-size="27.5" lengthAdjust="spacingAndGlyphs" textLength="412.5" x="1175" y="2383.1372">fromSBML() : static AnnotationList</text><ellipse cx="1152.5" cy="2406.6797" fill="#A6A6A6" rx="7.5" ry="7.5" style="stroke: #545454; stroke-width: 2.5;"/><text fill="#000000" font-family="sans-serif" font-size="27.5" lengthAdjust="spacingAndGlyphs" textLength="420" x="1175" y="2417.7271">fromCellML() : static AnnotationList</text><!--MD5=[d14c96fd2506c0979f1476f48aa34f9b]
link SingularAnnotation to Annotation--><path d="M1230.9775,1345.1875 C1244.85,1440.47 1270.615,1592.51 1308.75,1720 C1318.9225,1754.005 1332.1675,1789.78 1345.675,1823.0975 " fill="none" id="SingularAnnotation-&gt;Annotation" style="stroke: #383838; stroke-width: 2.5;"/><polygon fill="none" points="1362.0075,1816.7875,1365.3225,1869.6575,1329.76,1830.395,1362.0075,1816.7875" style="stroke: #383838; stroke-width: 2.5;"/><!--MD5=[e1ddfe6ef85240fcb09b546a7aadca5c]
link CompositeAnnotation to Annotation--><path d="M1539.155,1720.565 C1521.4975,1753.325 1501.935,1789.6175 1483.4475,1823.915 " fill="none" id="CompositeAnnotation-&gt;Annotation" style="stroke: #383838; stroke-width: 2.5;"/><polygon fill="none" points="1498.315,1833.215,1459.1875,1868.925,1467.505,1816.61,1498.315,1833.215" style="stroke: #383838; stroke-width: 2.5;"/><!--MD5=[36279575142f99ec0a74e3b418bc6072]
reverse link Triple to SingularAnnotation--><path d="M1491.935,1014.0525 C1438.31,1059.875 1377.915,1111.485 1327.575,1154.505 " fill="none" id="Triple&lt;-SingularAnnotation" style="stroke: #383838; stroke-width: 2.5;"/><polygon fill="#383838" points="1501.865,1005.565,1478.2618,1012.575,1492.3604,1013.6837,1491.2518,1027.7823,1501.865,1005.565" style="stroke: #383838; stroke-width: 2.5;"/><!--MD5=[2f0b0662f5e86165810c123f89c9e73c]
link GMN4992 to Subject--><path d="M954.11,359.69 C999.325,329.14 1050.4575,301.0225 1102.5,285 C1191.7025,257.54 1224.6125,253.5875 1312.5,285 C1377.495,308.23 1437.8625,355.825 1483.66,399.8375 " fill="none" id="GMN4992-Subject" style="stroke: #383838; stroke-width: 2.5; stroke-dasharray: 7.0,7.0;"/><!--MD5=[731f18e9b4c431563528285376e43efb]
reverse link Resource to ResourceUrl--><path d="M2115.4625,609.2125 C2188.2475,681.9975 2280.215,773.965 2338.6525,832.4025 " fill="none" id="Resource&lt;-ResourceUrl" style="stroke: #383838; stroke-width: 2.5;"/><polygon fill="none" points="2102.41,620.9075,2079.4275,573.1775,2127.1575,596.16,2102.41,620.9075" style="stroke: #383838; stroke-width: 2.5;"/><!--MD5=[5d54d5b14e07f2e17008693f68d75b47]
reverse link Resource to ResourceLiteral--><path d="M2012.575,623.46 C2017.495,693.6725 2023.3825,777.7175 2027.215,832.4025 " fill="none" id="Resource&lt;-ResourceLiteral" style="stroke: #383838; stroke-width: 2.5;"/><polygon fill="none" points="1995.09,624.28,2009.0525,573.1775,2030.005,621.8325,1995.09,624.28" style="stroke: #383838; stroke-width: 2.5;"/><!--MD5=[848da78ca757c817d883dc16b1ab0063]
reverse link Subject to Triple--><path d="M1585.6125,603.39 C1594.2925,657.915 1604.8725,724.345 1613.6575,779.515 " fill="none" id="Subject&lt;-Triple" style="stroke: #383838; stroke-width: 2.5;"/><polygon fill="#383838" points="1583.5625,590.5175,1577.2297,614.3113,1585.5306,602.8616,1596.9803,611.1624,1583.5625,590.5175" style="stroke: #383838; stroke-width: 2.5;"/><!--MD5=[ebe945fa2670b5bb38f4f06f89f500ee]
reverse link Predicate to Triple--><path d="M1281.0175,564.635 C1344.5175,623.6275 1438.1375,710.6 1512.6125,779.785 " fill="none" id="Predicate&lt;-Triple" style="stroke: #383838; stroke-width: 2.5;"/><polygon fill="#383838" points="1271.0925,555.415,1280.7704,578.0554,1280.2504,563.9228,1294.383,563.4028,1271.0925,555.415" style="stroke: #383838; stroke-width: 2.5;"/><!--MD5=[9315d82e453b838ec3ef847af8999d5e]
reverse link Resource to Triple--><path d="M1923.29,582.28 C1868.4625,640.0525 1795.335,717.105 1735.9725,779.655 " fill="none" id="Resource&lt;-Triple" style="stroke: #383838; stroke-width: 2.5;"/><polygon fill="#383838" points="1931.9275,573.1775,1909.1846,582.6121,1923.322,582.2436,1923.6905,596.381,1931.9275,573.1775" style="stroke: #383838; stroke-width: 2.5;"/><!--MD5=[98e266842c3e48f15a046e7d19679034]
reverse link Uri to Subject--><path d="M1568.75,223.2975 C1568.75,278.7775 1568.75,346.1175 1568.75,399.57 " fill="none" id="Uri&lt;-Subject" style="stroke: #383838; stroke-width: 2.5;"/><polygon fill="#383838" points="1568.75,210.1975,1558.75,232.6975,1568.75,222.6975,1578.75,232.6975,1568.75,210.1975" style="stroke: #383838; stroke-width: 2.5;"/><!--MD5=[c1d4be14cada825c1127f21270c8b4f7]
reverse link Uri to Predicate--><path d="M1470.94,219.385 C1404.575,288.5175 1319.225,377.4225 1264.2475,434.69 " fill="none" id="Uri&lt;-Predicate" style="stroke: #383838; stroke-width: 2.5;"/><polygon fill="#383838" points="1479.76,210.1975,1456.9642,219.5034,1471.1034,219.2148,1471.3919,233.354,1479.76,210.1975" style="stroke: #383838; stroke-width: 2.5;"/><!--MD5=[ca2e9e656a72845ca180a9211d6f4a9c]
reverse link Uri to Resource--><path d="M1685.9375,218.5225 C1758.53,281.105 1850.2175,360.1425 1916.4325,417.225 " fill="none" id="Uri&lt;-Resource" style="stroke: #383838; stroke-width: 2.5;"/><polygon fill="#383838" points="1676.2775,210.1975,1686.7915,232.462,1685.7457,218.3585,1699.8492,217.3128,1676.2775,210.1975" style="stroke: #383838; stroke-width: 2.5;"/><!--MD5=[239b129b400e2fa387dd8b43f966587c]
reverse link Predicate to BiomodelsQualifier--><path d="M1208.75,605.4675 C1208.75,678.855 1208.75,773.0475 1208.75,832.4875 " fill="none" id="Predicate&lt;-BiomodelsQualifier" style="stroke: #383838; stroke-width: 2.5;"/><polygon fill="none" points="1191.25,605.415,1208.75,555.415,1226.25,605.415,1191.25,605.415" style="stroke: #383838; stroke-width: 2.5;"/><!--MD5=[43444d6799fe93ab176cb4c7f4c20268]
reverse link Predicate to DublinCoreMetadataQualifier--><path d="M1117.625,589.1775 C1099.2025,604.37 1079.1825,618.7975 1058.75,630 C846.9025,746.1575 765.17,702.7525 536.25,780 C489.6225,795.735 439.37,814.6475 394.36,832.32 " fill="none" id="Predicate&lt;-DublinCoreMetadataQualifier" style="stroke: #383838; stroke-width: 2.5;"/><polygon fill="none" points="1106.0525,576.05,1154.9425,555.6525,1129.445,602.085,1106.0525,576.05" style="stroke: #383838; stroke-width: 2.5;"/><!--MD5=[61686d946222dd69ee04e537b5443b1f]
reverse link Predicate to OPB--><path d="M1112.365,588.84 C1095.1,603.375 1076.8325,617.6625 1058.75,630 C938.0625,712.335 885.2825,695.29 766.25,780 C745.09,795.0575 723.965,813.89 705.7025,831.6925 " fill="none" id="Predicate&lt;-OPB" style="stroke: #383838; stroke-width: 2.5;"/><polygon fill="none" points="1101.235,575.3225,1150.275,555.29,1124.4325,601.5325,1101.235,575.3225" style="stroke: #383838; stroke-width: 2.5;"/><!--MD5=[b33f9611dd68681a10c692db93bd180b]
reverse link Predicate to FMA--><path d="M1127.7475,593.8425 C1064.8575,668.645 979.76,769.8575 927.105,832.4875 " fill="none" id="Predicate&lt;-FMA" style="stroke: #383838; stroke-width: 2.5;"/><polygon fill="none" points="1114.485,582.4225,1160.0575,555.415,1141.275,604.9475,1114.485,582.4225" style="stroke: #383838; stroke-width: 2.5;"/><!--MD5=[421c2439504af32964c21a0fb04c2d46]
reverse link Triple to PhysicalProperty--><path d="M1631.25,1018.4125 C1631.25,1069.545 1631.25,1127.215 1631.25,1171.9 " fill="none" id="Triple&lt;-PhysicalProperty" style="stroke: #383838; stroke-width: 2.5;"/><polygon fill="#383838" points="1631.25,1005.565,1621.25,1028.065,1631.25,1018.065,1641.25,1028.065,1631.25,1005.565" style="stroke: #383838; stroke-width: 2.5;"/><!--MD5=[e36ff2c80ec3f1f58d051df1c65c4402]
reverse link Triple to Entity--><path d="M1805.4475,990.945 C1920.6125,1054.375 2067.8225,1135.4575 2165.6025,1189.3125 " fill="none" id="Triple&lt;-Entity" style="stroke: #383838; stroke-width: 2.5;"/><polygon fill="#383838" points="1794.405,984.8625,1809.2874,1004.4779,1805.3536,990.8939,1818.9376,986.9601,1794.405,984.8625" style="stroke: #383838; stroke-width: 2.5;"/><!--MD5=[8db00ee4c716fc989f46726569a4cc42]
reverse link Entity to PhysicalEntity--><path d="M2420.8525,1334.2725 C2504.565,1380.555 2610.525,1440.0175 2703.75,1495 C2731.85,1511.5775 2762.125,1530.0925 2789.6,1547.1375 " fill="none" id="Entity&lt;-PhysicalEntity" style="stroke: #383838; stroke-width: 2.5;"/><polygon fill="none" points="2412.2025,1349.485,2376.8575,1310.0275,2429.095,1318.8325,2412.2025,1349.485" style="stroke: #383838; stroke-width: 2.5;"/><!--MD5=[f6b3b3381aa735fe8085b70aa6607242]
reverse link Entity to PhysicalProcess--><path d="M2425.5825,1290.0275 C2586.775,1331.52 2845.4,1404.6025 3058.75,1495 C3093.775,1509.8425 3130.65,1529.02 3163.075,1547.1975 " fill="none" id="Entity&lt;-PhysicalProcess" style="stroke: #383838; stroke-width: 2.5;"/><polygon fill="none" points="2421.0225,1306.925,2376.85,1277.685,2429.615,1272.9975,2421.0225,1306.925" style="stroke: #383838; stroke-width: 2.5;"/><!--MD5=[5aaa58e6fd284856adc3a536a7f8cd51]
reverse link Entity to PhysicalForce--><path d="M2202.675,1371.8725 C2168.7525,1430.9225 2129.35,1499.5125 2102.1075,1546.935 " fill="none" id="Entity&lt;-PhysicalForce" style="stroke: #383838; stroke-width: 2.5;"/><polygon fill="none" points="2187.7275,1362.7575,2227.8075,1328.12,2218.0775,1380.1925,2187.7275,1362.7575" style="stroke: #383838; stroke-width: 2.5;"/><!--MD5=[3fc7464a8cebe6c29256c4f856fea699]
reverse link Entity to PhysicalDependency--><path d="M2340.6725,1371.8725 C2375.0125,1430.9225 2414.9025,1499.5125 2442.48,1546.935 " fill="none" id="Entity&lt;-PhysicalDependency" style="stroke: #383838; stroke-width: 2.5;"/><polygon fill="none" points="2325.2375,1380.14,2315.2275,1328.12,2355.4925,1362.545,2325.2375,1380.14" style="stroke: #383838; stroke-width: 2.5;"/><!--MD5=[e2381f687189425ff0431e5b4b96753a]
reverse link Entity to CompositeAnnotation--><path d="M2154.7875,1313.545 C2059.7025,1363.385 1922.8875,1435.1 1808.7675,1494.9175 " fill="none" id="Entity&lt;-CompositeAnnotation" style="stroke: #383838; stroke-width: 2.5;"/><polygon fill="#383838" points="2166.1725,1307.5775,2141.6017,1309.1667,2155.1014,1313.3809,2150.8872,1326.8806,2166.1725,1307.5775" style="stroke: #383838; stroke-width: 2.5;"/><!--MD5=[b7b5e6016eb31463fb5b0b2ef2da2ca1]
reverse link PhysicalProperty to CompositeAnnotation--><path d="M1623.095,1340.96 C1618.795,1387.5775 1613.4825,1445.1975 1608.92,1494.705 " fill="none" id="PhysicalProperty&lt;-CompositeAnnotation" style="stroke: #383838; stroke-width: 2.5;"/><polygon fill="#383838" points="1624.2775,1328.12,1612.2504,1349.6048,1623.1278,1340.567,1632.1656,1351.4444,1624.2775,1328.12" style="stroke: #383838; stroke-width: 2.5;"/><!--MD5=[2a816da6b7108938dcb276eb1aed6c01]
reverse link Annotation to AnnotationList--><path d="M1408.75,2073.27 C1408.75,2116.3975 1408.75,2166.265 1408.75,2209.8338 " fill="none" id="Annotation&lt;-AnnotationList" style="stroke: #383838; stroke-width: 2.5;"/><polygon fill="#383838" points="1408.75,2060.115,1398.75,2082.615,1408.75,2072.615,1418.75,2082.615,1408.75,2060.115" style="stroke: #383838; stroke-width: 2.5;"/><!--MD5=[7af863da7b88acb125e6668f706daeb6]
@startuml
skinparam monochrome true

class Annotation {
    + serialize() : std::string
    + iscomposite() : bool
}


class SingularAnnotation {
    + triple : Triple
    + serialize() :std::string
}

class CompositeAnnotation {
    + physicalProperty : PhysicalProperty
    + physicalEntity : Entity*
    + serialize() :std::string
}

SingularAnnotation - -|> Annotation
CompositeAnnotation - -|> Annotation
Triple <- - SingularAnnotation




class Uri {
    - uri_str : std::string
    + parse() : void
}

class Subject {
    + metaId : std::string
    + uri : Uri
}
note left of Subject
    Should subject have
    a reference to the
    model elemenet it
    represents? I'd argue
    that this is what the metaid
    is for.
end note

interface Predicate {}

class Resource {
    + url : Uri
}

class ResourceUrl {}

class ResourceLiteral {}

Resource <|- - ResourceUrl
Resource <|- - ResourceLiteral

note top of Resource
    Object part of rdf.
end note


class Triple {
    + subject : Subject
    + predicate : Predicate
    + resource : Resource*
}

Subject <- - Triple
Predicate <- - Triple
Resource <- - Triple


Uri <- - Subject
Uri <- - Predicate
Uri <- - Resource


class BiomodelsQualifier {

}

class DublinCoreMetadataQualifier {

}

class OPB {

}

class FMA {

}

Predicate <|- - BiomodelsQualifier
Predicate <|- - DublinCoreMetadataQualifier
Predicate <|- - OPB
Predicate <|- - FMA



class PhysicalProperty {
    + triple : Triple*
}
Triple <- - PhysicalProperty

interface Entity {
    + triple : Triple
}
Triple <- - Entity

class PhysicalEntity {}
class PhysicalProcess {}
class PhysicalForce {}
class PhysicalDependency {}

Entity <|- - PhysicalEntity
Entity <|- - PhysicalProcess
Entity <|- - PhysicalForce
Entity <|- - PhysicalDependency

Entity <- - CompositeAnnotation
PhysicalProperty <- - CompositeAnnotation


class AnnotationList {
    + annotations : std::unique_ptr<Annotation>
    + fromSBML() : static AnnotationList
    + fromCellML() : static AnnotationList
}

Annotation <- - AnnotationList





@enduml

PlantUML version 1.2020.03beta6(Unknown compile time)
(GPL source distribution)
Java Runtime: OpenJDK Runtime Environment
JVM: OpenJDK 64-Bit Server VM
Java Version: 11.0.5+10-b520.38
Operating System: Windows 10
Default Encoding: Cp1252
Language: en
Country: US
--></g></svg>