<?xml version="1.0" encoding="UTF-8" standalone="no"?><svg xmlns="http://www.w3.org/2000/svg" xmlns:xlink="http://www.w3.org/1999/xlink" contentScriptType="application/ecmascript" contentStyleType="text/css" height="1265px" preserveAspectRatio="none" style="width:1247px;height:1265px;" version="1.1" viewBox="0 0 1247 1265" width="1247px" zoomAndPan="magnify"><defs><filter height="300%" id="f1p5xtvkgh82tb" width="300%" x="-1" y="-1"><feGaussianBlur result="blurOut" stdDeviation="2.0"/><feColorMatrix in="blurOut" result="blurOut2" type="matrix" values="0 0 0 0 0 0 0 0 0 0 0 0 0 0 0 0 0 0 .4 0"/><feOffset dx="4.0" dy="4.0" in="blurOut2" result="blurOut3"/><feBlend in="SourceGraphic" in2="blurOut3" mode="normal"/></filter></defs><g><!--MD5=[faebc81c07309c527f2fda51bf6b78ab]
class Annotation--><rect fill="#F8F8F8" filter="url(#f1p5xtvkgh82tb)" height="75.6719" id="Annotation" style="stroke: #383838; stroke-width: 1.5;" width="131" x="368.5" y="1001"/><ellipse cx="401.95" cy="1017" fill="#C2C2C2" rx="11" ry="11" style="stroke: #383838; stroke-width: 1.0;"/><path d="M404.7156,1012.875 Q404.8719,1012.6563 405.0594,1012.5469 Q405.2469,1012.4375 405.4656,1012.4375 Q405.8406,1012.4375 406.075,1012.6953 Q406.3094,1012.9531 406.3094,1013.5625 L406.3094,1015.0156 Q406.3094,1015.625 406.075,1015.8906 Q405.8406,1016.1563 405.4656,1016.1563 Q405.1219,1016.1563 404.9188,1015.9531 Q404.7156,1015.7656 404.6063,1015.25 Q404.5594,1014.8906 404.3719,1014.7031 Q404.0438,1014.3281 403.4344,1014.1094 Q402.825,1013.8906 402.2,1013.8906 Q401.4344,1013.8906 400.8016,1014.2188 Q400.1688,1014.5469 399.6766,1015.2969 Q399.1844,1016.0469 399.1844,1017.0781 L399.1844,1018.1719 Q399.1844,1019.4063 400.075,1020.2266 Q400.9656,1021.0469 402.5594,1021.0469 Q403.4969,1021.0469 404.1531,1020.7969 Q404.5438,1020.6406 404.9656,1020.2031 Q405.2313,1019.9375 405.3797,1019.8594 Q405.5281,1019.7813 405.7313,1019.7813 Q406.0594,1019.7813 406.3172,1020.0391 Q406.575,1020.2969 406.575,1020.6406 Q406.575,1020.9844 406.2313,1021.3906 Q405.7313,1021.9688 404.9344,1022.2969 Q403.8563,1022.75 402.5594,1022.75 Q401.0438,1022.75 399.8406,1022.125 Q398.8563,1021.625 398.1688,1020.5547 Q397.4813,1019.4844 397.4813,1018.2031 L397.4813,1017.0469 Q397.4813,1015.7188 398.0984,1014.5703 Q398.7156,1013.4219 399.8094,1012.8047 Q400.9031,1012.1875 402.1375,1012.1875 Q402.8719,1012.1875 403.5203,1012.3516 Q404.1688,1012.5156 404.7156,1012.875 Z "/><text fill="#000000" font-family="sans-serif" font-size="12" lengthAdjust="spacingAndGlyphs" textLength="58" x="420.05" y="1021.9102">Annotation</text><line style="stroke: #383838; stroke-width: 1.5;" x1="369.5" x2="498.5" y1="1033" y2="1033"/><line style="stroke: #383838; stroke-width: 1.5;" x1="369.5" x2="498.5" y1="1041" y2="1041"/><ellipse cx="379.5" cy="1052" fill="#A6A6A6" rx="3" ry="3" style="stroke: #545454; stroke-width: 1.0;"/><text fill="#000000" font-family="sans-serif" font-size="11" lengthAdjust="spacingAndGlyphs" textLength="105" x="388.5" y="1056.4189">serialize() : std::string</text><ellipse cx="379.5" cy="1065.8359" fill="#A6A6A6" rx="3" ry="3" style="stroke: #545454; stroke-width: 1.0;"/><text fill="#000000" font-family="sans-serif" font-size="11" lengthAdjust="spacingAndGlyphs" textLength="94" x="388.5" y="1070.2549">iscomposite() : bool</text><!--MD5=[3c11629c5314607dcae72425f0c11ee0]
class SingularAnnotation--><rect fill="#F8F8F8" filter="url(#f1p5xtvkgh82tb)" height="75.6719" id="SingularAnnotation" style="stroke: #383838; stroke-width: 1.5;" width="136" x="290" y="699"/><ellipse cx="305" cy="715" fill="#C2C2C2" rx="11" ry="11" style="stroke: #383838; stroke-width: 1.0;"/><path d="M307.7656,710.875 Q307.9219,710.6563 308.1094,710.5469 Q308.2969,710.4375 308.5156,710.4375 Q308.8906,710.4375 309.125,710.6953 Q309.3594,710.9531 309.3594,711.5625 L309.3594,713.0156 Q309.3594,713.625 309.125,713.8906 Q308.8906,714.1563 308.5156,714.1563 Q308.1719,714.1563 307.9688,713.9531 Q307.7656,713.7656 307.6563,713.25 Q307.6094,712.8906 307.4219,712.7031 Q307.0938,712.3281 306.4844,712.1094 Q305.875,711.8906 305.25,711.8906 Q304.4844,711.8906 303.8516,712.2188 Q303.2188,712.5469 302.7266,713.2969 Q302.2344,714.0469 302.2344,715.0781 L302.2344,716.1719 Q302.2344,717.4063 303.125,718.2266 Q304.0156,719.0469 305.6094,719.0469 Q306.5469,719.0469 307.2031,718.7969 Q307.5938,718.6406 308.0156,718.2031 Q308.2813,717.9375 308.4297,717.8594 Q308.5781,717.7813 308.7813,717.7813 Q309.1094,717.7813 309.3672,718.0391 Q309.625,718.2969 309.625,718.6406 Q309.625,718.9844 309.2813,719.3906 Q308.7813,719.9688 307.9844,720.2969 Q306.9063,720.75 305.6094,720.75 Q304.0938,720.75 302.8906,720.125 Q301.9063,719.625 301.2188,718.5547 Q300.5313,717.4844 300.5313,716.2031 L300.5313,715.0469 Q300.5313,713.7188 301.1484,712.5703 Q301.7656,711.4219 302.8594,710.8047 Q303.9531,710.1875 305.1875,710.1875 Q305.9219,710.1875 306.5703,710.3516 Q307.2188,710.5156 307.7656,710.875 Z "/><text fill="#000000" font-family="sans-serif" font-size="12" lengthAdjust="spacingAndGlyphs" textLength="104" x="319" y="719.9102">SingularAnnotation</text><line style="stroke: #383838; stroke-width: 1.5;" x1="291" x2="425" y1="731" y2="731"/><ellipse cx="301" cy="742" fill="none" rx="3" ry="3" style="stroke: #545454; stroke-width: 1.0;"/><text fill="#000000" font-family="sans-serif" font-size="11" lengthAdjust="spacingAndGlyphs" textLength="58" x="310" y="746.4189">triple : Triple</text><line style="stroke: #383838; stroke-width: 1.5;" x1="291" x2="425" y1="752.8359" y2="752.8359"/><ellipse cx="301" cy="763.8359" fill="#A6A6A6" rx="3" ry="3" style="stroke: #545454; stroke-width: 1.0;"/><text fill="#000000" font-family="sans-serif" font-size="11" lengthAdjust="spacingAndGlyphs" textLength="102" x="310" y="768.2549">serialize() :std::string</text><path d="M298.5,540.5 L298.5,615.9063 A0,0 0 0 0 298.5,615.9063 L354.766,615.9063 L358.236,698.877 L362.766,615.9063 L419.5,615.9063 A0,0 0 0 0 419.5,615.9063 L419.5,550.5 L409.5,540.5 L298.5,540.5 A0,0 0 0 0 298.5,540.5 " fill="#ECECEC" filter="url(#f1p5xtvkgh82tb)" style="stroke: #383838; stroke-width: 1.0;"/><path d="M409.5,540.5 L409.5,550.5 L419.5,550.5 L409.5,540.5 " fill="#ECECEC" style="stroke: #383838; stroke-width: 1.0;"/><text fill="#000000" font-family="sans-serif" font-size="13" lengthAdjust="spacingAndGlyphs" textLength="88" x="304.5" y="558.9951">Should I have a</text><text fill="#000000" font-family="sans-serif" font-size="13" lengthAdjust="spacingAndGlyphs" textLength="97" x="304.5" y="575.3467">RDF interface for</text><text fill="#000000" font-family="sans-serif" font-size="13" lengthAdjust="spacingAndGlyphs" textLength="100" x="304.5" y="591.6982">methods such as</text><text fill="#000000" font-family="sans-serif" font-size="13" lengthAdjust="spacingAndGlyphs" textLength="55" x="304.5" y="608.0498">serialize?</text><path d="M117.5,683 L117.5,791.1094 A0,0 0 0 0 117.5,791.1094 L254.5,791.1094 A0,0 0 0 0 254.5,791.1094 L254.5,741 L289.694,737 L254.5,733 L254.5,693 L244.5,683 L117.5,683 A0,0 0 0 0 117.5,683 " fill="#ECECEC" filter="url(#f1p5xtvkgh82tb)" style="stroke: #383838; stroke-width: 1.0;"/><path d="M244.5,683 L244.5,693 L254.5,693 L244.5,683 " fill="#ECECEC" style="stroke: #383838; stroke-width: 1.0;"/><text fill="#000000" font-family="sans-serif" font-size="13" lengthAdjust="spacingAndGlyphs" textLength="104" x="123.5" y="701.4951">Q) Can we use an</text><text fill="#000000" font-family="sans-serif" font-size="13" lengthAdjust="spacingAndGlyphs" textLength="101" x="123.5" y="717.8467">"is-a" relationship</text><text fill="#000000" font-family="sans-serif" font-size="13" lengthAdjust="spacingAndGlyphs" textLength="108" x="123.5" y="734.1982">between Triple and</text><text fill="#000000" font-family="sans-serif" font-size="13" lengthAdjust="spacingAndGlyphs" textLength="116" x="123.5" y="750.5498">SingularAnnotation?</text><text fill="#000000" font-family="sans-serif" font-size="13" lengthAdjust="spacingAndGlyphs" textLength="103" x="123.5" y="766.9014">i.e inheritance not</text><text fill="#000000" font-family="sans-serif" font-size="13" lengthAdjust="spacingAndGlyphs" textLength="74" x="123.5" y="783.2529">composition.</text><!--MD5=[bd5a7c6ba0e5b7af461c7d0f99591f68]
class CompositeAnnotation--><rect fill="#F8F8F8" filter="url(#f1p5xtvkgh82tb)" height="89.5078" id="CompositeAnnotation" style="stroke: #383838; stroke-width: 1.5;" width="197" x="411.5" y="851"/><ellipse cx="447.2" cy="867" fill="#C2C2C2" rx="11" ry="11" style="stroke: #383838; stroke-width: 1.0;"/><path d="M449.9656,862.875 Q450.1219,862.6563 450.3094,862.5469 Q450.4969,862.4375 450.7156,862.4375 Q451.0906,862.4375 451.325,862.6953 Q451.5594,862.9531 451.5594,863.5625 L451.5594,865.0156 Q451.5594,865.625 451.325,865.8906 Q451.0906,866.1563 450.7156,866.1563 Q450.3719,866.1563 450.1688,865.9531 Q449.9656,865.7656 449.8563,865.25 Q449.8094,864.8906 449.6219,864.7031 Q449.2938,864.3281 448.6844,864.1094 Q448.075,863.8906 447.45,863.8906 Q446.6844,863.8906 446.0516,864.2188 Q445.4188,864.5469 444.9266,865.2969 Q444.4344,866.0469 444.4344,867.0781 L444.4344,868.1719 Q444.4344,869.4063 445.325,870.2266 Q446.2156,871.0469 447.8094,871.0469 Q448.7469,871.0469 449.4031,870.7969 Q449.7938,870.6406 450.2156,870.2031 Q450.4813,869.9375 450.6297,869.8594 Q450.7781,869.7813 450.9813,869.7813 Q451.3094,869.7813 451.5672,870.0391 Q451.825,870.2969 451.825,870.6406 Q451.825,870.9844 451.4813,871.3906 Q450.9813,871.9688 450.1844,872.2969 Q449.1063,872.75 447.8094,872.75 Q446.2938,872.75 445.0906,872.125 Q444.1063,871.625 443.4188,870.5547 Q442.7313,869.4844 442.7313,868.2031 L442.7313,867.0469 Q442.7313,865.7188 443.3484,864.5703 Q443.9656,863.4219 445.0594,862.8047 Q446.1531,862.1875 447.3875,862.1875 Q448.1219,862.1875 448.7703,862.3516 Q449.4188,862.5156 449.9656,862.875 Z "/><text fill="#000000" font-family="sans-serif" font-size="12" lengthAdjust="spacingAndGlyphs" textLength="119" x="465.8" y="871.9102">CompositeAnnotation</text><line style="stroke: #383838; stroke-width: 1.5;" x1="412.5" x2="607.5" y1="883" y2="883"/><ellipse cx="422.5" cy="894" fill="none" rx="3" ry="3" style="stroke: #545454; stroke-width: 1.0;"/><text fill="#000000" font-family="sans-serif" font-size="11" lengthAdjust="spacingAndGlyphs" textLength="171" x="431.5" y="898.4189">physicalProperty : PhysicalProperty</text><ellipse cx="422.5" cy="907.8359" fill="none" rx="3" ry="3" style="stroke: #545454; stroke-width: 1.0;"/><text fill="#000000" font-family="sans-serif" font-size="11" lengthAdjust="spacingAndGlyphs" textLength="105" x="431.5" y="912.2549">physicalEntity : Entity*</text><line style="stroke: #383838; stroke-width: 1.5;" x1="412.5" x2="607.5" y1="918.6719" y2="918.6719"/><ellipse cx="422.5" cy="929.6719" fill="#A6A6A6" rx="3" ry="3" style="stroke: #545454; stroke-width: 1.0;"/><text fill="#000000" font-family="sans-serif" font-size="11" lengthAdjust="spacingAndGlyphs" textLength="102" x="431.5" y="934.0908">serialize() :std::string</text><!--MD5=[83cb7b9a61729069b453c40304caf896]
class Triple--><rect fill="#F8F8F8" filter="url(#f1p5xtvkgh82tb)" height="89.5078" id="Triple" style="stroke: #383838; stroke-width: 1.5;" width="130" x="457" y="533"/><ellipse cx="502.25" cy="549" fill="#C2C2C2" rx="11" ry="11" style="stroke: #383838; stroke-width: 1.0;"/><path d="M505.0156,544.875 Q505.1719,544.6563 505.3594,544.5469 Q505.5469,544.4375 505.7656,544.4375 Q506.1406,544.4375 506.375,544.6953 Q506.6094,544.9531 506.6094,545.5625 L506.6094,547.0156 Q506.6094,547.625 506.375,547.8906 Q506.1406,548.1563 505.7656,548.1563 Q505.4219,548.1563 505.2188,547.9531 Q505.0156,547.7656 504.9063,547.25 Q504.8594,546.8906 504.6719,546.7031 Q504.3438,546.3281 503.7344,546.1094 Q503.125,545.8906 502.5,545.8906 Q501.7344,545.8906 501.1016,546.2188 Q500.4688,546.5469 499.9766,547.2969 Q499.4844,548.0469 499.4844,549.0781 L499.4844,550.1719 Q499.4844,551.4063 500.375,552.2266 Q501.2656,553.0469 502.8594,553.0469 Q503.7969,553.0469 504.4531,552.7969 Q504.8438,552.6406 505.2656,552.2031 Q505.5313,551.9375 505.6797,551.8594 Q505.8281,551.7813 506.0313,551.7813 Q506.3594,551.7813 506.6172,552.0391 Q506.875,552.2969 506.875,552.6406 Q506.875,552.9844 506.5313,553.3906 Q506.0313,553.9688 505.2344,554.2969 Q504.1563,554.75 502.8594,554.75 Q501.3438,554.75 500.1406,554.125 Q499.1563,553.625 498.4688,552.5547 Q497.7813,551.4844 497.7813,550.2031 L497.7813,549.0469 Q497.7813,547.7188 498.3984,546.5703 Q499.0156,545.4219 500.1094,544.8047 Q501.2031,544.1875 502.4375,544.1875 Q503.1719,544.1875 503.8203,544.3516 Q504.4688,544.5156 505.0156,544.875 Z "/><text fill="#000000" font-family="sans-serif" font-size="12" lengthAdjust="spacingAndGlyphs" textLength="31" x="522.75" y="553.9102">Triple</text><line style="stroke: #383838; stroke-width: 1.5;" x1="458" x2="586" y1="565" y2="565"/><ellipse cx="468" cy="576" fill="none" rx="3" ry="3" style="stroke: #545454; stroke-width: 1.0;"/><text fill="#000000" font-family="sans-serif" font-size="11" lengthAdjust="spacingAndGlyphs" textLength="80" x="477" y="580.4189">subject : Subject</text><ellipse cx="468" cy="589.8359" fill="none" rx="3" ry="3" style="stroke: #545454; stroke-width: 1.0;"/><text fill="#000000" font-family="sans-serif" font-size="11" lengthAdjust="spacingAndGlyphs" textLength="99" x="477" y="594.2549">predicate : Predicate</text><ellipse cx="468" cy="603.6719" fill="none" rx="3" ry="3" style="stroke: #545454; stroke-width: 1.0;"/><text fill="#000000" font-family="sans-serif" font-size="11" lengthAdjust="spacingAndGlyphs" textLength="104" x="477" y="608.0908">resource : Resource*</text><line style="stroke: #383838; stroke-width: 1.5;" x1="458" x2="586" y1="614.5078" y2="614.5078"/><!--MD5=[54966a871ed9594cfed77a625bb7d0e7]
class Uri--><rect fill="#F8F8F8" filter="url(#f1p5xtvkgh82tb)" height="75.6719" id="Uri" style="stroke: #383838; stroke-width: 1.5;" width="114" x="464" y="8"/><ellipse cx="508.75" cy="24" fill="#C2C2C2" rx="11" ry="11" style="stroke: #383838; stroke-width: 1.0;"/><path d="M511.5156,19.875 Q511.6719,19.6563 511.8594,19.5469 Q512.0469,19.4375 512.2656,19.4375 Q512.6406,19.4375 512.875,19.6953 Q513.1094,19.9531 513.1094,20.5625 L513.1094,22.0156 Q513.1094,22.625 512.875,22.8906 Q512.6406,23.1563 512.2656,23.1563 Q511.9219,23.1563 511.7188,22.9531 Q511.5156,22.7656 511.4063,22.25 Q511.3594,21.8906 511.1719,21.7031 Q510.8438,21.3281 510.2344,21.1094 Q509.625,20.8906 509,20.8906 Q508.2344,20.8906 507.6016,21.2188 Q506.9688,21.5469 506.4766,22.2969 Q505.9844,23.0469 505.9844,24.0781 L505.9844,25.1719 Q505.9844,26.4063 506.875,27.2266 Q507.7656,28.0469 509.3594,28.0469 Q510.2969,28.0469 510.9531,27.7969 Q511.3438,27.6406 511.7656,27.2031 Q512.0313,26.9375 512.1797,26.8594 Q512.3281,26.7813 512.5313,26.7813 Q512.8594,26.7813 513.1172,27.0391 Q513.375,27.2969 513.375,27.6406 Q513.375,27.9844 513.0313,28.3906 Q512.5313,28.9688 511.7344,29.2969 Q510.6563,29.75 509.3594,29.75 Q507.8438,29.75 506.6406,29.125 Q505.6563,28.625 504.9688,27.5547 Q504.2813,26.4844 504.2813,25.2031 L504.2813,24.0469 Q504.2813,22.7188 504.8984,21.5703 Q505.5156,20.4219 506.6094,19.8047 Q507.7031,19.1875 508.9375,19.1875 Q509.6719,19.1875 510.3203,19.3516 Q510.9688,19.5156 511.5156,19.875 Z "/><text fill="#000000" font-family="sans-serif" font-size="12" lengthAdjust="spacingAndGlyphs" textLength="16" x="529.25" y="28.9102">Uri</text><line style="stroke: #383838; stroke-width: 1.5;" x1="465" x2="577" y1="40" y2="40"/><rect fill="none" height="6" style="stroke: #595959; stroke-width: 1.0;" width="6" x="472" y="48"/><text fill="#000000" font-family="sans-serif" font-size="11" lengthAdjust="spacingAndGlyphs" textLength="88" x="484" y="55.4189">uri_str : std::string</text><line style="stroke: #383838; stroke-width: 1.5;" x1="465" x2="577" y1="61.8359" y2="61.8359"/><ellipse cx="475" cy="72.8359" fill="#A6A6A6" rx="3" ry="3" style="stroke: #545454; stroke-width: 1.0;"/><text fill="#000000" font-family="sans-serif" font-size="11" lengthAdjust="spacingAndGlyphs" textLength="65" x="484" y="77.2549">parse() : void</text><path d="M613.5,16.5 L613.5,42 L578.281,46 L613.5,50 L613.5,75.5547 A0,0 0 0 0 613.5,75.5547 L804.5,75.5547 A0,0 0 0 0 804.5,75.5547 L804.5,26.5 L794.5,16.5 L613.5,16.5 A0,0 0 0 0 613.5,16.5 " fill="#ECECEC" filter="url(#f1p5xtvkgh82tb)" style="stroke: #383838; stroke-width: 1.0;"/><path d="M794.5,16.5 L794.5,26.5 L804.5,26.5 L794.5,16.5 " fill="#ECECEC" style="stroke: #383838; stroke-width: 1.0;"/><text fill="#000000" font-family="sans-serif" font-size="13" lengthAdjust="spacingAndGlyphs" textLength="147" x="619.5" y="34.9951">This class is overkill now.</text><text fill="#000000" font-family="sans-serif" font-size="13" lengthAdjust="spacingAndGlyphs" textLength="170" x="619.5" y="51.3467">May be better to reimplement</text><text fill="#000000" font-family="sans-serif" font-size="13" lengthAdjust="spacingAndGlyphs" textLength="60" x="619.5" y="67.6982">or remove.</text><!--MD5=[d0da0a299942266ebd64acf2b2e95fa4]
class Subject--><rect fill="#F8F8F8" filter="url(#f1p5xtvkgh82tb)" height="61.8359" id="Subject" style="stroke: #383838; stroke-width: 1.5;" width="79" x="481.5" y="169"/><ellipse cx="499.2" cy="185" fill="#C2C2C2" rx="11" ry="11" style="stroke: #383838; stroke-width: 1.0;"/><path d="M501.9656,180.875 Q502.1219,180.6563 502.3094,180.5469 Q502.4969,180.4375 502.7156,180.4375 Q503.0906,180.4375 503.325,180.6953 Q503.5594,180.9531 503.5594,181.5625 L503.5594,183.0156 Q503.5594,183.625 503.325,183.8906 Q503.0906,184.1563 502.7156,184.1563 Q502.3719,184.1563 502.1688,183.9531 Q501.9656,183.7656 501.8563,183.25 Q501.8094,182.8906 501.6219,182.7031 Q501.2938,182.3281 500.6844,182.1094 Q500.075,181.8906 499.45,181.8906 Q498.6844,181.8906 498.0516,182.2188 Q497.4188,182.5469 496.9266,183.2969 Q496.4344,184.0469 496.4344,185.0781 L496.4344,186.1719 Q496.4344,187.4063 497.325,188.2266 Q498.2156,189.0469 499.8094,189.0469 Q500.7469,189.0469 501.4031,188.7969 Q501.7938,188.6406 502.2156,188.2031 Q502.4813,187.9375 502.6297,187.8594 Q502.7781,187.7813 502.9813,187.7813 Q503.3094,187.7813 503.5672,188.0391 Q503.825,188.2969 503.825,188.6406 Q503.825,188.9844 503.4813,189.3906 Q502.9813,189.9688 502.1844,190.2969 Q501.1063,190.75 499.8094,190.75 Q498.2938,190.75 497.0906,190.125 Q496.1063,189.625 495.4188,188.5547 Q494.7313,187.4844 494.7313,186.2031 L494.7313,185.0469 Q494.7313,183.7188 495.3484,182.5703 Q495.9656,181.4219 497.0594,180.8047 Q498.1531,180.1875 499.3875,180.1875 Q500.1219,180.1875 500.7703,180.3516 Q501.4188,180.5156 501.9656,180.875 Z "/><text fill="#000000" font-family="sans-serif" font-size="12" lengthAdjust="spacingAndGlyphs" textLength="41" x="513.8" y="189.9102">Subject</text><line style="stroke: #383838; stroke-width: 1.5;" x1="482.5" x2="559.5" y1="201" y2="201"/><ellipse cx="492.5" cy="212" fill="none" rx="3" ry="3" style="stroke: #545454; stroke-width: 1.0;"/><text fill="#000000" font-family="sans-serif" font-size="11" lengthAdjust="spacingAndGlyphs" textLength="53" x="501.5" y="216.4189">metaId : Uri</text><line style="stroke: #383838; stroke-width: 1.5;" x1="482.5" x2="559.5" y1="222.8359" y2="222.8359"/><!--MD5=[e6dc55dd324d6a8c189f3ada02b144fc]
class Predicate--><rect fill="#F8F8F8" filter="url(#f1p5xtvkgh82tb)" height="61.8359" id="Predicate" style="stroke: #383838; stroke-width: 1.5;" width="155" x="574.5" y="363.5"/><ellipse cx="621.75" cy="379.5" fill="#B1B1B1" rx="11" ry="11" style="stroke: #383838; stroke-width: 1.0;"/><path d="M622.7031,376.1406 L622.7031,382.7969 L624.4219,382.7969 Q625.0313,382.7969 625.2969,383.0313 Q625.5625,383.2656 625.5625,383.6563 Q625.5625,384.0313 625.2969,384.2656 Q625.0313,384.5 624.4219,384.5 L619.2813,384.5 Q618.6719,384.5 618.4063,384.2656 Q618.1406,384.0313 618.1406,383.6406 Q618.1406,383.2656 618.4063,383.0313 Q618.6719,382.7969 619.2813,382.7969 L621,382.7969 L621,376.1406 L619.2813,376.1406 Q618.6719,376.1406 618.4063,375.9063 Q618.1406,375.6719 618.1406,375.2813 Q618.1406,374.9063 618.4063,374.6719 Q618.6719,374.4375 619.2813,374.4375 L624.4219,374.4375 Q625.0313,374.4375 625.2969,374.6719 Q625.5625,374.9063 625.5625,375.2813 Q625.5625,375.6719 625.2969,375.9063 Q625.0313,376.1406 624.4219,376.1406 L622.7031,376.1406 Z "/><text fill="#000000" font-family="sans-serif" font-size="12" font-style="italic" lengthAdjust="spacingAndGlyphs" textLength="52" x="642.25" y="384.4102">Predicate</text><line style="stroke: #383838; stroke-width: 1.5;" x1="575.5" x2="728.5" y1="395.5" y2="395.5"/><ellipse cx="585.5" cy="406.5" fill="none" rx="3" ry="3" style="stroke: #545454; stroke-width: 1.0;"/><text fill="#000000" font-family="sans-serif" font-size="11" lengthAdjust="spacingAndGlyphs" textLength="129" x="594.5" y="410.9189">cv : ControlledVocabulary*</text><line style="stroke: #383838; stroke-width: 1.5;" x1="575.5" x2="728.5" y1="417.3359" y2="417.3359"/><!--MD5=[0d35f644389b7e36709ef73f4e5b1de7]
class ControlledVocabulary--><rect fill="#F8F8F8" filter="url(#f1p5xtvkgh82tb)" height="111.5313" id="ControlledVocabulary" style="stroke: #383838; stroke-width: 1.5;" width="149" x="796.5" y="144"/><ellipse cx="811.5" cy="164.0938" fill="#C2C2C2" rx="11" ry="11" style="stroke: #383838; stroke-width: 1.0;"/><path d="M814.2656,159.9688 Q814.4219,159.75 814.6094,159.6406 Q814.7969,159.5313 815.0156,159.5313 Q815.3906,159.5313 815.625,159.7891 Q815.8594,160.0469 815.8594,160.6563 L815.8594,162.1094 Q815.8594,162.7188 815.625,162.9844 Q815.3906,163.25 815.0156,163.25 Q814.6719,163.25 814.4688,163.0469 Q814.2656,162.8594 814.1563,162.3438 Q814.1094,161.9844 813.9219,161.7969 Q813.5938,161.4219 812.9844,161.2031 Q812.375,160.9844 811.75,160.9844 Q810.9844,160.9844 810.3516,161.3125 Q809.7188,161.6406 809.2266,162.3906 Q808.7344,163.1406 808.7344,164.1719 L808.7344,165.2656 Q808.7344,166.5 809.625,167.3203 Q810.5156,168.1406 812.1094,168.1406 Q813.0469,168.1406 813.7031,167.8906 Q814.0938,167.7344 814.5156,167.2969 Q814.7813,167.0313 814.9297,166.9531 Q815.0781,166.875 815.2813,166.875 Q815.6094,166.875 815.8672,167.1328 Q816.125,167.3906 816.125,167.7344 Q816.125,168.0781 815.7813,168.4844 Q815.2813,169.0625 814.4844,169.3906 Q813.4063,169.8438 812.1094,169.8438 Q810.5938,169.8438 809.3906,169.2188 Q808.4063,168.7188 807.7188,167.6484 Q807.0313,166.5781 807.0313,165.2969 L807.0313,164.1406 Q807.0313,162.8125 807.6484,161.6641 Q808.2656,160.5156 809.3594,159.8984 Q810.4531,159.2813 811.6875,159.2813 Q812.4219,159.2813 813.0703,159.4453 Q813.7188,159.6094 814.2656,159.9688 Z "/><text fill="#000000" font-family="sans-serif" font-size="12" font-style="italic" lengthAdjust="spacingAndGlyphs" textLength="73" x="847.5" y="161.457">«BaseClass»</text><text fill="#000000" font-family="sans-serif" font-size="12" lengthAdjust="spacingAndGlyphs" textLength="117" x="825.5" y="176.5508">ControlledVocabulary</text><line style="stroke: #383838; stroke-width: 1.5;" x1="797.5" x2="944.5" y1="184.1875" y2="184.1875"/><ellipse cx="807.5" cy="195.1875" fill="none" rx="3" ry="3" style="stroke: #545454; stroke-width: 1.0;"/><text fill="#000000" font-family="sans-serif" font-size="11" lengthAdjust="spacingAndGlyphs" textLength="113" x="816.5" y="199.6064">namespace : std::string</text><ellipse cx="807.5" cy="209.0234" fill="none" rx="3" ry="3" style="stroke: #545454; stroke-width: 1.0;"/><text fill="#000000" font-family="sans-serif" font-size="11" lengthAdjust="spacingAndGlyphs" textLength="91" x="816.5" y="213.4424">root      : std::string</text><ellipse cx="807.5" cy="222.8594" fill="none" rx="3" ry="3" style="stroke: #545454; stroke-width: 1.0;"/><text fill="#000000" font-family="sans-serif" font-size="11" lengthAdjust="spacingAndGlyphs" textLength="95" x="816.5" y="227.2783">qualifier : std::string</text><line style="stroke: #383838; stroke-width: 1.5;" x1="797.5" x2="944.5" y1="233.6953" y2="233.6953"/><ellipse cx="807.5" cy="244.6953" fill="#A6A6A6" rx="3" ry="3" style="stroke: #545454; stroke-width: 1.0;"/><text fill="#000000" font-family="sans-serif" font-size="11" lengthAdjust="spacingAndGlyphs" textLength="58" x="816.5" y="249.1143">getUri() : Uri</text><path d="M840,33 L840,59.3516 A0,0 0 0 0 840,59.3516 L901.955,59.3516 L884.829,143.69 L909.955,59.3516 L978,59.3516 A0,0 0 0 0 978,59.3516 L978,43 L968,33 L840,33 A0,0 0 0 0 840,33 " fill="#ECECEC" filter="url(#f1p5xtvkgh82tb)" style="stroke: #383838; stroke-width: 1.0;"/><path d="M968,33 L968,43 L978,43 L968,33 " fill="#ECECEC" style="stroke: #383838; stroke-width: 1.0;"/><text fill="#000000" font-family="sans-serif" font-size="13" lengthAdjust="spacingAndGlyphs" textLength="117" x="846" y="51.4951">Rename to Term???</text><!--MD5=[2f380d99272917c9afe1e0d649b0631c]
class BiomodelsBiologyQualifier--><rect fill="#F8F8F8" filter="url(#f1p5xtvkgh82tb)" height="48" id="BiomodelsBiologyQualifier" style="stroke: #383838; stroke-width: 1.5;" width="138" x="765" y="370.5"/><ellipse cx="780" cy="386.5" fill="#C2C2C2" rx="11" ry="11" style="stroke: #383838; stroke-width: 1.0;"/><path d="M782.7656,382.375 Q782.9219,382.1563 783.1094,382.0469 Q783.2969,381.9375 783.5156,381.9375 Q783.8906,381.9375 784.125,382.1953 Q784.3594,382.4531 784.3594,383.0625 L784.3594,384.5156 Q784.3594,385.125 784.125,385.3906 Q783.8906,385.6563 783.5156,385.6563 Q783.1719,385.6563 782.9688,385.4531 Q782.7656,385.2656 782.6563,384.75 Q782.6094,384.3906 782.4219,384.2031 Q782.0938,383.8281 781.4844,383.6094 Q780.875,383.3906 780.25,383.3906 Q779.4844,383.3906 778.8516,383.7188 Q778.2188,384.0469 777.7266,384.7969 Q777.2344,385.5469 777.2344,386.5781 L777.2344,387.6719 Q777.2344,388.9063 778.125,389.7266 Q779.0156,390.5469 780.6094,390.5469 Q781.5469,390.5469 782.2031,390.2969 Q782.5938,390.1406 783.0156,389.7031 Q783.2813,389.4375 783.4297,389.3594 Q783.5781,389.2813 783.7813,389.2813 Q784.1094,389.2813 784.3672,389.5391 Q784.625,389.7969 784.625,390.1406 Q784.625,390.4844 784.2813,390.8906 Q783.7813,391.4688 782.9844,391.7969 Q781.9063,392.25 780.6094,392.25 Q779.0938,392.25 777.8906,391.625 Q776.9063,391.125 776.2188,390.0547 Q775.5313,388.9844 775.5313,387.7031 L775.5313,386.5469 Q775.5313,385.2188 776.1484,384.0703 Q776.7656,382.9219 777.8594,382.3047 Q778.9531,381.6875 780.1875,381.6875 Q780.9219,381.6875 781.5703,381.8516 Q782.2188,382.0156 782.7656,382.375 Z "/><text fill="#000000" font-family="sans-serif" font-size="12" lengthAdjust="spacingAndGlyphs" textLength="106" x="794" y="391.4102">BiomodelsBiologyQualifier</text><line style="stroke: #383838; stroke-width: 1.5;" x1="766" x2="902" y1="402.5" y2="402.5"/><line style="stroke: #383838; stroke-width: 1.5;" x1="766" x2="902" y1="410.5" y2="410.5"/><!--MD5=[96aab87f93b31f41f8a03d502514a3ef]
class OPB--><rect fill="#F8F8F8" filter="url(#f1p5xtvkgh82tb)" height="48" id="OPB" style="stroke: #383838; stroke-width: 1.5;" width="57" x="938.5" y="370.5"/><ellipse cx="953.5" cy="386.5" fill="#C2C2C2" rx="11" ry="11" style="stroke: #383838; stroke-width: 1.0;"/><path d="M956.2656,382.375 Q956.4219,382.1563 956.6094,382.0469 Q956.7969,381.9375 957.0156,381.9375 Q957.3906,381.9375 957.625,382.1953 Q957.8594,382.4531 957.8594,383.0625 L957.8594,384.5156 Q957.8594,385.125 957.625,385.3906 Q957.3906,385.6563 957.0156,385.6563 Q956.6719,385.6563 956.4688,385.4531 Q956.2656,385.2656 956.1563,384.75 Q956.1094,384.3906 955.9219,384.2031 Q955.5938,383.8281 954.9844,383.6094 Q954.375,383.3906 953.75,383.3906 Q952.9844,383.3906 952.3516,383.7188 Q951.7188,384.0469 951.2266,384.7969 Q950.7344,385.5469 950.7344,386.5781 L950.7344,387.6719 Q950.7344,388.9063 951.625,389.7266 Q952.5156,390.5469 954.1094,390.5469 Q955.0469,390.5469 955.7031,390.2969 Q956.0938,390.1406 956.5156,389.7031 Q956.7813,389.4375 956.9297,389.3594 Q957.0781,389.2813 957.2813,389.2813 Q957.6094,389.2813 957.8672,389.5391 Q958.125,389.7969 958.125,390.1406 Q958.125,390.4844 957.7813,390.8906 Q957.2813,391.4688 956.4844,391.7969 Q955.4063,392.25 954.1094,392.25 Q952.5938,392.25 951.3906,391.625 Q950.4063,391.125 949.7188,390.0547 Q949.0313,388.9844 949.0313,387.7031 L949.0313,386.5469 Q949.0313,385.2188 949.6484,384.0703 Q950.2656,382.9219 951.3594,382.3047 Q952.4531,381.6875 953.6875,381.6875 Q954.4219,381.6875 955.0703,381.8516 Q955.7188,382.0156 956.2656,382.375 Z "/><text fill="#000000" font-family="sans-serif" font-size="12" lengthAdjust="spacingAndGlyphs" textLength="25" x="967.5" y="391.4102">OPB</text><line style="stroke: #383838; stroke-width: 1.5;" x1="939.5" x2="994.5" y1="402.5" y2="402.5"/><line style="stroke: #383838; stroke-width: 1.5;" x1="939.5" x2="994.5" y1="410.5" y2="410.5"/><!--MD5=[ae0223919bf1c3ee5ad2a6b785502df5]
class CHEBI--><rect fill="#F8F8F8" filter="url(#f1p5xtvkgh82tb)" height="48" id="CHEBI" style="stroke: #383838; stroke-width: 1.5;" width="69" x="1030.5" y="370.5"/><ellipse cx="1045.5" cy="386.5" fill="#C2C2C2" rx="11" ry="11" style="stroke: #383838; stroke-width: 1.0;"/><path d="M1048.2656,382.375 Q1048.4219,382.1563 1048.6094,382.0469 Q1048.7969,381.9375 1049.0156,381.9375 Q1049.3906,381.9375 1049.625,382.1953 Q1049.8594,382.4531 1049.8594,383.0625 L1049.8594,384.5156 Q1049.8594,385.125 1049.625,385.3906 Q1049.3906,385.6563 1049.0156,385.6563 Q1048.6719,385.6563 1048.4688,385.4531 Q1048.2656,385.2656 1048.1563,384.75 Q1048.1094,384.3906 1047.9219,384.2031 Q1047.5938,383.8281 1046.9844,383.6094 Q1046.375,383.3906 1045.75,383.3906 Q1044.9844,383.3906 1044.3516,383.7188 Q1043.7188,384.0469 1043.2266,384.7969 Q1042.7344,385.5469 1042.7344,386.5781 L1042.7344,387.6719 Q1042.7344,388.9063 1043.625,389.7266 Q1044.5156,390.5469 1046.1094,390.5469 Q1047.0469,390.5469 1047.7031,390.2969 Q1048.0938,390.1406 1048.5156,389.7031 Q1048.7813,389.4375 1048.9297,389.3594 Q1049.0781,389.2813 1049.2813,389.2813 Q1049.6094,389.2813 1049.8672,389.5391 Q1050.125,389.7969 1050.125,390.1406 Q1050.125,390.4844 1049.7813,390.8906 Q1049.2813,391.4688 1048.4844,391.7969 Q1047.4063,392.25 1046.1094,392.25 Q1044.5938,392.25 1043.3906,391.625 Q1042.4063,391.125 1041.7188,390.0547 Q1041.0313,388.9844 1041.0313,387.7031 L1041.0313,386.5469 Q1041.0313,385.2188 1041.6484,384.0703 Q1042.2656,382.9219 1043.3594,382.3047 Q1044.4531,381.6875 1045.6875,381.6875 Q1046.4219,381.6875 1047.0703,381.8516 Q1047.7188,382.0156 1048.2656,382.375 Z "/><text fill="#000000" font-family="sans-serif" font-size="12" lengthAdjust="spacingAndGlyphs" textLength="37" x="1059.5" y="391.4102">CHEBI</text><line style="stroke: #383838; stroke-width: 1.5;" x1="1031.5" x2="1098.5" y1="402.5" y2="402.5"/><line style="stroke: #383838; stroke-width: 1.5;" x1="1031.5" x2="1098.5" y1="410.5" y2="410.5"/><!--MD5=[6b13f1b330d33795af281e5c1dfe1e98]
class Resource--><rect fill="#F8F8F8" filter="url(#f1p5xtvkgh82tb)" height="89.5078" id="Resource" style="stroke: #383838; stroke-width: 1.5;" width="157" x="124.5" y="349.5"/><ellipse cx="171.75" cy="365.5" fill="#C2C2C2" rx="11" ry="11" style="stroke: #383838; stroke-width: 1.0;"/><path d="M174.5156,361.375 Q174.6719,361.1563 174.8594,361.0469 Q175.0469,360.9375 175.2656,360.9375 Q175.6406,360.9375 175.875,361.1953 Q176.1094,361.4531 176.1094,362.0625 L176.1094,363.5156 Q176.1094,364.125 175.875,364.3906 Q175.6406,364.6563 175.2656,364.6563 Q174.9219,364.6563 174.7188,364.4531 Q174.5156,364.2656 174.4063,363.75 Q174.3594,363.3906 174.1719,363.2031 Q173.8438,362.8281 173.2344,362.6094 Q172.625,362.3906 172,362.3906 Q171.2344,362.3906 170.6016,362.7188 Q169.9688,363.0469 169.4766,363.7969 Q168.9844,364.5469 168.9844,365.5781 L168.9844,366.6719 Q168.9844,367.9063 169.875,368.7266 Q170.7656,369.5469 172.3594,369.5469 Q173.2969,369.5469 173.9531,369.2969 Q174.3438,369.1406 174.7656,368.7031 Q175.0313,368.4375 175.1797,368.3594 Q175.3281,368.2813 175.5313,368.2813 Q175.8594,368.2813 176.1172,368.5391 Q176.375,368.7969 176.375,369.1406 Q176.375,369.4844 176.0313,369.8906 Q175.5313,370.4688 174.7344,370.7969 Q173.6563,371.25 172.3594,371.25 Q170.8438,371.25 169.6406,370.625 Q168.6563,370.125 167.9688,369.0547 Q167.2813,367.9844 167.2813,366.7031 L167.2813,365.5469 Q167.2813,364.2188 167.8984,363.0703 Q168.5156,361.9219 169.6094,361.3047 Q170.7031,360.6875 171.9375,360.6875 Q172.6719,360.6875 173.3203,360.8516 Q173.9688,361.0156 174.5156,361.375 Z "/><text fill="#000000" font-family="sans-serif" font-size="12" lengthAdjust="spacingAndGlyphs" textLength="54" x="192.25" y="370.4102">Resource</text><line style="stroke: #383838; stroke-width: 1.5;" x1="125.5" x2="280.5" y1="381.5" y2="381.5"/><rect fill="none" height="6" style="stroke: #595959; stroke-width: 1.0;" width="6" x="132.5" y="389.5"/><text fill="#000000" font-family="sans-serif" font-size="11" lengthAdjust="spacingAndGlyphs" textLength="131" x="144.5" y="396.9189">identifiers_base: std::string</text><rect fill="none" height="6" style="stroke: #595959; stroke-width: 1.0;" width="6" x="132.5" y="403.3359"/><text fill="#000000" font-family="sans-serif" font-size="11" lengthAdjust="spacingAndGlyphs" textLength="113" x="144.5" y="410.7549">namespace : std::string</text><rect fill="none" height="6" style="stroke: #595959; stroke-width: 1.0;" width="6" x="132.5" y="417.1719"/><text fill="#000000" font-family="sans-serif" font-size="11" lengthAdjust="spacingAndGlyphs" textLength="98" x="144.5" y="424.5908">identifier : std::string</text><line style="stroke: #383838; stroke-width: 1.5;" x1="125.5" x2="280.5" y1="431.0078" y2="431.0078"/><path d="M316.5,316 L316.5,390.5 L281.627,394.5 L316.5,398.5 L316.5,473.1641 A0,0 0 0 0 316.5,473.1641 L467.5,473.1641 A0,0 0 0 0 467.5,473.1641 L467.5,326 L457.5,316 L316.5,316 A0,0 0 0 0 316.5,316 " fill="#ECECEC" filter="url(#f1p5xtvkgh82tb)" style="stroke: #383838; stroke-width: 1.0;"/><path d="M457.5,316 L457.5,326 L467.5,326 L457.5,316 " fill="#ECECEC" style="stroke: #383838; stroke-width: 1.0;"/><text fill="#000000" font-family="sans-serif" font-size="13" lengthAdjust="spacingAndGlyphs" textLength="130" x="322.5" y="334.4951">This class implements</text><text fill="#000000" font-family="sans-serif" font-size="13" lengthAdjust="spacingAndGlyphs" textLength="122" x="322.5" y="350.8467">a Resource as a web</text><text fill="#000000" font-family="sans-serif" font-size="13" lengthAdjust="spacingAndGlyphs" textLength="129" x="322.5" y="367.1982">resource resolvable by</text><text fill="#000000" font-family="sans-serif" font-size="13" lengthAdjust="spacingAndGlyphs" textLength="99" x="322.5" y="383.5498">identifiers.org but</text><text fill="#000000" font-family="sans-serif" font-size="13" lengthAdjust="spacingAndGlyphs" textLength="123" x="322.5" y="399.9014">not a resource from a</text><text fill="#000000" font-family="sans-serif" font-size="13" lengthAdjust="spacingAndGlyphs" textLength="91" x="322.5" y="416.2529">literal. However,</text><text fill="#000000" font-family="sans-serif" font-size="13" lengthAdjust="spacingAndGlyphs" textLength="102" x="322.5" y="432.6045">might be better to</text><text fill="#000000" font-family="sans-serif" font-size="13" lengthAdjust="spacingAndGlyphs" textLength="111" x="322.5" y="448.9561">just use a string for</text><text fill="#000000" font-family="sans-serif" font-size="13" lengthAdjust="spacingAndGlyphs" textLength="38" x="322.5" y="465.3076">literal?</text><!--MD5=[d08268a25748bbb06aac7cc2e0517ce6]
class ResourceUrl--><rect fill="#F8F8F8" filter="url(#f1p5xtvkgh82tb)" height="48" id="ResourceUrl" style="stroke: #383838; stroke-width: 1.5;" width="102" x="6" y="554"/><ellipse cx="21" cy="570" fill="#C2C2C2" rx="11" ry="11" style="stroke: #383838; stroke-width: 1.0;"/><path d="M23.7656,565.875 Q23.9219,565.6563 24.1094,565.5469 Q24.2969,565.4375 24.5156,565.4375 Q24.8906,565.4375 25.125,565.6953 Q25.3594,565.9531 25.3594,566.5625 L25.3594,568.0156 Q25.3594,568.625 25.125,568.8906 Q24.8906,569.1563 24.5156,569.1563 Q24.1719,569.1563 23.9688,568.9531 Q23.7656,568.7656 23.6563,568.25 Q23.6094,567.8906 23.4219,567.7031 Q23.0938,567.3281 22.4844,567.1094 Q21.875,566.8906 21.25,566.8906 Q20.4844,566.8906 19.8516,567.2188 Q19.2188,567.5469 18.7266,568.2969 Q18.2344,569.0469 18.2344,570.0781 L18.2344,571.1719 Q18.2344,572.4063 19.125,573.2266 Q20.0156,574.0469 21.6094,574.0469 Q22.5469,574.0469 23.2031,573.7969 Q23.5938,573.6406 24.0156,573.2031 Q24.2813,572.9375 24.4297,572.8594 Q24.5781,572.7813 24.7813,572.7813 Q25.1094,572.7813 25.3672,573.0391 Q25.625,573.2969 25.625,573.6406 Q25.625,573.9844 25.2813,574.3906 Q24.7813,574.9688 23.9844,575.2969 Q22.9063,575.75 21.6094,575.75 Q20.0938,575.75 18.8906,575.125 Q17.9063,574.625 17.2188,573.5547 Q16.5313,572.4844 16.5313,571.2031 L16.5313,570.0469 Q16.5313,568.7188 17.1484,567.5703 Q17.7656,566.4219 18.8594,565.8047 Q19.9531,565.1875 21.1875,565.1875 Q21.9219,565.1875 22.5703,565.3516 Q23.2188,565.5156 23.7656,565.875 Z "/><text fill="#000000" font-family="sans-serif" font-size="12" lengthAdjust="spacingAndGlyphs" textLength="70" x="35" y="574.9102">ResourceUrl</text><line style="stroke: #383838; stroke-width: 1.5;" x1="7" x2="107" y1="586" y2="586"/><line style="stroke: #383838; stroke-width: 1.5;" x1="7" x2="107" y1="594" y2="594"/><!--MD5=[625411352648d5aa1ffede7006df4e31]
class ResourceLiteral--><rect fill="#F8F8F8" filter="url(#f1p5xtvkgh82tb)" height="48" id="ResourceLiteral" style="stroke: #383838; stroke-width: 1.5;" width="120" x="143" y="554"/><ellipse cx="158" cy="570" fill="#C2C2C2" rx="11" ry="11" style="stroke: #383838; stroke-width: 1.0;"/><path d="M160.7656,565.875 Q160.9219,565.6563 161.1094,565.5469 Q161.2969,565.4375 161.5156,565.4375 Q161.8906,565.4375 162.125,565.6953 Q162.3594,565.9531 162.3594,566.5625 L162.3594,568.0156 Q162.3594,568.625 162.125,568.8906 Q161.8906,569.1563 161.5156,569.1563 Q161.1719,569.1563 160.9688,568.9531 Q160.7656,568.7656 160.6563,568.25 Q160.6094,567.8906 160.4219,567.7031 Q160.0938,567.3281 159.4844,567.1094 Q158.875,566.8906 158.25,566.8906 Q157.4844,566.8906 156.8516,567.2188 Q156.2188,567.5469 155.7266,568.2969 Q155.2344,569.0469 155.2344,570.0781 L155.2344,571.1719 Q155.2344,572.4063 156.125,573.2266 Q157.0156,574.0469 158.6094,574.0469 Q159.5469,574.0469 160.2031,573.7969 Q160.5938,573.6406 161.0156,573.2031 Q161.2813,572.9375 161.4297,572.8594 Q161.5781,572.7813 161.7813,572.7813 Q162.1094,572.7813 162.3672,573.0391 Q162.625,573.2969 162.625,573.6406 Q162.625,573.9844 162.2813,574.3906 Q161.7813,574.9688 160.9844,575.2969 Q159.9063,575.75 158.6094,575.75 Q157.0938,575.75 155.8906,575.125 Q154.9063,574.625 154.2188,573.5547 Q153.5313,572.4844 153.5313,571.2031 L153.5313,570.0469 Q153.5313,568.7188 154.1484,567.5703 Q154.7656,566.4219 155.8594,565.8047 Q156.9531,565.1875 158.1875,565.1875 Q158.9219,565.1875 159.5703,565.3516 Q160.2188,565.5156 160.7656,565.875 Z "/><text fill="#000000" font-family="sans-serif" font-size="12" lengthAdjust="spacingAndGlyphs" textLength="88" x="172" y="574.9102">ResourceLiteral</text><line style="stroke: #383838; stroke-width: 1.5;" x1="144" x2="262" y1="586" y2="586"/><line style="stroke: #383838; stroke-width: 1.5;" x1="144" x2="262" y1="594" y2="594"/><path d="M142.5,187 L142.5,213.3516 A0,0 0 0 0 142.5,213.3516 L199,213.3516 L203,349.163 L207,213.3516 L263.5,213.3516 A0,0 0 0 0 263.5,213.3516 L263.5,197 L253.5,187 L142.5,187 A0,0 0 0 0 142.5,187 " fill="#ECECEC" filter="url(#f1p5xtvkgh82tb)" style="stroke: #383838; stroke-width: 1.0;"/><path d="M253.5,187 L253.5,197 L263.5,197 L253.5,187 " fill="#ECECEC" style="stroke: #383838; stroke-width: 1.0;"/><text fill="#000000" font-family="sans-serif" font-size="13" lengthAdjust="spacingAndGlyphs" textLength="100" x="148.5" y="205.4951">Object part of rdf.</text><!--MD5=[fa40dda412b6b247aa26dc2693ea2d81]
class PhysicalProperty--><rect fill="#F8F8F8" filter="url(#f1p5xtvkgh82tb)" height="61.8359" id="PhysicalProperty" style="stroke: #383838; stroke-width: 1.5;" width="123" x="461.5" y="706"/><ellipse cx="476.5" cy="722" fill="#C2C2C2" rx="11" ry="11" style="stroke: #383838; stroke-width: 1.0;"/><path d="M479.2656,717.875 Q479.4219,717.6563 479.6094,717.5469 Q479.7969,717.4375 480.0156,717.4375 Q480.3906,717.4375 480.625,717.6953 Q480.8594,717.9531 480.8594,718.5625 L480.8594,720.0156 Q480.8594,720.625 480.625,720.8906 Q480.3906,721.1563 480.0156,721.1563 Q479.6719,721.1563 479.4688,720.9531 Q479.2656,720.7656 479.1563,720.25 Q479.1094,719.8906 478.9219,719.7031 Q478.5938,719.3281 477.9844,719.1094 Q477.375,718.8906 476.75,718.8906 Q475.9844,718.8906 475.3516,719.2188 Q474.7188,719.5469 474.2266,720.2969 Q473.7344,721.0469 473.7344,722.0781 L473.7344,723.1719 Q473.7344,724.4063 474.625,725.2266 Q475.5156,726.0469 477.1094,726.0469 Q478.0469,726.0469 478.7031,725.7969 Q479.0938,725.6406 479.5156,725.2031 Q479.7813,724.9375 479.9297,724.8594 Q480.0781,724.7813 480.2813,724.7813 Q480.6094,724.7813 480.8672,725.0391 Q481.125,725.2969 481.125,725.6406 Q481.125,725.9844 480.7813,726.3906 Q480.2813,726.9688 479.4844,727.2969 Q478.4063,727.75 477.1094,727.75 Q475.5938,727.75 474.3906,727.125 Q473.4063,726.625 472.7188,725.5547 Q472.0313,724.4844 472.0313,723.2031 L472.0313,722.0469 Q472.0313,720.7188 472.6484,719.5703 Q473.2656,718.4219 474.3594,717.8047 Q475.4531,717.1875 476.6875,717.1875 Q477.4219,717.1875 478.0703,717.3516 Q478.7188,717.5156 479.2656,717.875 Z "/><text fill="#000000" font-family="sans-serif" font-size="12" lengthAdjust="spacingAndGlyphs" textLength="91" x="490.5" y="726.9102">PhysicalProperty</text><line style="stroke: #383838; stroke-width: 1.5;" x1="462.5" x2="583.5" y1="738" y2="738"/><ellipse cx="472.5" cy="749" fill="none" rx="3" ry="3" style="stroke: #545454; stroke-width: 1.0;"/><text fill="#000000" font-family="sans-serif" font-size="11" lengthAdjust="spacingAndGlyphs" textLength="62" x="481.5" y="753.4189">triple : Triple*</text><line style="stroke: #383838; stroke-width: 1.5;" x1="462.5" x2="583.5" y1="759.8359" y2="759.8359"/><!--MD5=[be996cdb8e6bf2fc7cb89c555f2cd144]
class Entity--><rect fill="#F8F8F8" filter="url(#f1p5xtvkgh82tb)" height="61.8359" id="Entity" style="stroke: #383838; stroke-width: 1.5;" width="84" x="730" y="706"/><ellipse cx="754.9" cy="722" fill="#B1B1B1" rx="11" ry="11" style="stroke: #383838; stroke-width: 1.0;"/><path d="M755.8531,718.6406 L755.8531,725.2969 L757.5719,725.2969 Q758.1813,725.2969 758.4469,725.5313 Q758.7125,725.7656 758.7125,726.1563 Q758.7125,726.5313 758.4469,726.7656 Q758.1813,727 757.5719,727 L752.4313,727 Q751.8219,727 751.5563,726.7656 Q751.2906,726.5313 751.2906,726.1406 Q751.2906,725.7656 751.5563,725.5313 Q751.8219,725.2969 752.4313,725.2969 L754.15,725.2969 L754.15,718.6406 L752.4313,718.6406 Q751.8219,718.6406 751.5563,718.4063 Q751.2906,718.1719 751.2906,717.7813 Q751.2906,717.4063 751.5563,717.1719 Q751.8219,716.9375 752.4313,716.9375 L757.5719,716.9375 Q758.1813,716.9375 758.4469,717.1719 Q758.7125,717.4063 758.7125,717.7813 Q758.7125,718.1719 758.4469,718.4063 Q758.1813,718.6406 757.5719,718.6406 L755.8531,718.6406 Z "/><text fill="#000000" font-family="sans-serif" font-size="12" font-style="italic" lengthAdjust="spacingAndGlyphs" textLength="30" x="771.1" y="726.9102">Entity</text><line style="stroke: #383838; stroke-width: 1.5;" x1="731" x2="813" y1="738" y2="738"/><ellipse cx="741" cy="749" fill="none" rx="3" ry="3" style="stroke: #545454; stroke-width: 1.0;"/><text fill="#000000" font-family="sans-serif" font-size="11" lengthAdjust="spacingAndGlyphs" textLength="58" x="750" y="753.4189">triple : Triple</text><line style="stroke: #383838; stroke-width: 1.5;" x1="731" x2="813" y1="759.8359" y2="759.8359"/><!--MD5=[df581eb0b2d7aded84449964112700d9]
class PhysicalEntity--><rect fill="#F8F8F8" filter="url(#f1p5xtvkgh82tb)" height="48" id="PhysicalEntity" style="stroke: #383838; stroke-width: 1.5;" width="107" x="643.5" y="872"/><ellipse cx="658.5" cy="888" fill="#C2C2C2" rx="11" ry="11" style="stroke: #383838; stroke-width: 1.0;"/><path d="M661.2656,883.875 Q661.4219,883.6563 661.6094,883.5469 Q661.7969,883.4375 662.0156,883.4375 Q662.3906,883.4375 662.625,883.6953 Q662.8594,883.9531 662.8594,884.5625 L662.8594,886.0156 Q662.8594,886.625 662.625,886.8906 Q662.3906,887.1563 662.0156,887.1563 Q661.6719,887.1563 661.4688,886.9531 Q661.2656,886.7656 661.1563,886.25 Q661.1094,885.8906 660.9219,885.7031 Q660.5938,885.3281 659.9844,885.1094 Q659.375,884.8906 658.75,884.8906 Q657.9844,884.8906 657.3516,885.2188 Q656.7188,885.5469 656.2266,886.2969 Q655.7344,887.0469 655.7344,888.0781 L655.7344,889.1719 Q655.7344,890.4063 656.625,891.2266 Q657.5156,892.0469 659.1094,892.0469 Q660.0469,892.0469 660.7031,891.7969 Q661.0938,891.6406 661.5156,891.2031 Q661.7813,890.9375 661.9297,890.8594 Q662.0781,890.7813 662.2813,890.7813 Q662.6094,890.7813 662.8672,891.0391 Q663.125,891.2969 663.125,891.6406 Q663.125,891.9844 662.7813,892.3906 Q662.2813,892.9688 661.4844,893.2969 Q660.4063,893.75 659.1094,893.75 Q657.5938,893.75 656.3906,893.125 Q655.4063,892.625 654.7188,891.5547 Q654.0313,890.4844 654.0313,889.2031 L654.0313,888.0469 Q654.0313,886.7188 654.6484,885.5703 Q655.2656,884.4219 656.3594,883.8047 Q657.4531,883.1875 658.6875,883.1875 Q659.4219,883.1875 660.0703,883.3516 Q660.7188,883.5156 661.2656,883.875 Z "/><text fill="#000000" font-family="sans-serif" font-size="12" lengthAdjust="spacingAndGlyphs" textLength="75" x="672.5" y="892.9102">PhysicalEntity</text><line style="stroke: #383838; stroke-width: 1.5;" x1="644.5" x2="749.5" y1="904" y2="904"/><line style="stroke: #383838; stroke-width: 1.5;" x1="644.5" x2="749.5" y1="912" y2="912"/><!--MD5=[48d70057fbcb13305256da8ebb6052ce]
class PhysicalProcess--><rect fill="#F8F8F8" filter="url(#f1p5xtvkgh82tb)" height="48" id="PhysicalProcess" style="stroke: #383838; stroke-width: 1.5;" width="124" x="786" y="872"/><ellipse cx="801" cy="888" fill="#C2C2C2" rx="11" ry="11" style="stroke: #383838; stroke-width: 1.0;"/><path d="M803.7656,883.875 Q803.9219,883.6563 804.1094,883.5469 Q804.2969,883.4375 804.5156,883.4375 Q804.8906,883.4375 805.125,883.6953 Q805.3594,883.9531 805.3594,884.5625 L805.3594,886.0156 Q805.3594,886.625 805.125,886.8906 Q804.8906,887.1563 804.5156,887.1563 Q804.1719,887.1563 803.9688,886.9531 Q803.7656,886.7656 803.6563,886.25 Q803.6094,885.8906 803.4219,885.7031 Q803.0938,885.3281 802.4844,885.1094 Q801.875,884.8906 801.25,884.8906 Q800.4844,884.8906 799.8516,885.2188 Q799.2188,885.5469 798.7266,886.2969 Q798.2344,887.0469 798.2344,888.0781 L798.2344,889.1719 Q798.2344,890.4063 799.125,891.2266 Q800.0156,892.0469 801.6094,892.0469 Q802.5469,892.0469 803.2031,891.7969 Q803.5938,891.6406 804.0156,891.2031 Q804.2813,890.9375 804.4297,890.8594 Q804.5781,890.7813 804.7813,890.7813 Q805.1094,890.7813 805.3672,891.0391 Q805.625,891.2969 805.625,891.6406 Q805.625,891.9844 805.2813,892.3906 Q804.7813,892.9688 803.9844,893.2969 Q802.9063,893.75 801.6094,893.75 Q800.0938,893.75 798.8906,893.125 Q797.9063,892.625 797.2188,891.5547 Q796.5313,890.4844 796.5313,889.2031 L796.5313,888.0469 Q796.5313,886.7188 797.1484,885.5703 Q797.7656,884.4219 798.8594,883.8047 Q799.9531,883.1875 801.1875,883.1875 Q801.9219,883.1875 802.5703,883.3516 Q803.2188,883.5156 803.7656,883.875 Z "/><text fill="#000000" font-family="sans-serif" font-size="12" lengthAdjust="spacingAndGlyphs" textLength="92" x="815" y="892.9102">PhysicalProcess</text><line style="stroke: #383838; stroke-width: 1.5;" x1="787" x2="909" y1="904" y2="904"/><line style="stroke: #383838; stroke-width: 1.5;" x1="787" x2="909" y1="912" y2="912"/><!--MD5=[7891b59bb27f0174c8b8c465458d50ca]
class PhysicalForce--><rect fill="#F8F8F8" filter="url(#f1p5xtvkgh82tb)" height="48" id="PhysicalForce" style="stroke: #383838; stroke-width: 1.5;" width="109" x="945.5" y="872"/><ellipse cx="960.5" cy="888" fill="#C2C2C2" rx="11" ry="11" style="stroke: #383838; stroke-width: 1.0;"/><path d="M963.2656,883.875 Q963.4219,883.6563 963.6094,883.5469 Q963.7969,883.4375 964.0156,883.4375 Q964.3906,883.4375 964.625,883.6953 Q964.8594,883.9531 964.8594,884.5625 L964.8594,886.0156 Q964.8594,886.625 964.625,886.8906 Q964.3906,887.1563 964.0156,887.1563 Q963.6719,887.1563 963.4688,886.9531 Q963.2656,886.7656 963.1563,886.25 Q963.1094,885.8906 962.9219,885.7031 Q962.5938,885.3281 961.9844,885.1094 Q961.375,884.8906 960.75,884.8906 Q959.9844,884.8906 959.3516,885.2188 Q958.7188,885.5469 958.2266,886.2969 Q957.7344,887.0469 957.7344,888.0781 L957.7344,889.1719 Q957.7344,890.4063 958.625,891.2266 Q959.5156,892.0469 961.1094,892.0469 Q962.0469,892.0469 962.7031,891.7969 Q963.0938,891.6406 963.5156,891.2031 Q963.7813,890.9375 963.9297,890.8594 Q964.0781,890.7813 964.2813,890.7813 Q964.6094,890.7813 964.8672,891.0391 Q965.125,891.2969 965.125,891.6406 Q965.125,891.9844 964.7813,892.3906 Q964.2813,892.9688 963.4844,893.2969 Q962.4063,893.75 961.1094,893.75 Q959.5938,893.75 958.3906,893.125 Q957.4063,892.625 956.7188,891.5547 Q956.0313,890.4844 956.0313,889.2031 L956.0313,888.0469 Q956.0313,886.7188 956.6484,885.5703 Q957.2656,884.4219 958.3594,883.8047 Q959.4531,883.1875 960.6875,883.1875 Q961.4219,883.1875 962.0703,883.3516 Q962.7188,883.5156 963.2656,883.875 Z "/><text fill="#000000" font-family="sans-serif" font-size="12" lengthAdjust="spacingAndGlyphs" textLength="77" x="974.5" y="892.9102">PhysicalForce</text><line style="stroke: #383838; stroke-width: 1.5;" x1="946.5" x2="1053.5" y1="904" y2="904"/><line style="stroke: #383838; stroke-width: 1.5;" x1="946.5" x2="1053.5" y1="912" y2="912"/><!--MD5=[e514f18440047e307342ce332512f54c]
class PhysicalDependency--><rect fill="#F8F8F8" filter="url(#f1p5xtvkgh82tb)" height="48" id="PhysicalDependency" style="stroke: #383838; stroke-width: 1.5;" width="147" x="1089.5" y="872"/><ellipse cx="1104.5" cy="888" fill="#C2C2C2" rx="11" ry="11" style="stroke: #383838; stroke-width: 1.0;"/><path d="M1107.2656,883.875 Q1107.4219,883.6563 1107.6094,883.5469 Q1107.7969,883.4375 1108.0156,883.4375 Q1108.3906,883.4375 1108.625,883.6953 Q1108.8594,883.9531 1108.8594,884.5625 L1108.8594,886.0156 Q1108.8594,886.625 1108.625,886.8906 Q1108.3906,887.1563 1108.0156,887.1563 Q1107.6719,887.1563 1107.4688,886.9531 Q1107.2656,886.7656 1107.1563,886.25 Q1107.1094,885.8906 1106.9219,885.7031 Q1106.5938,885.3281 1105.9844,885.1094 Q1105.375,884.8906 1104.75,884.8906 Q1103.9844,884.8906 1103.3516,885.2188 Q1102.7188,885.5469 1102.2266,886.2969 Q1101.7344,887.0469 1101.7344,888.0781 L1101.7344,889.1719 Q1101.7344,890.4063 1102.625,891.2266 Q1103.5156,892.0469 1105.1094,892.0469 Q1106.0469,892.0469 1106.7031,891.7969 Q1107.0938,891.6406 1107.5156,891.2031 Q1107.7813,890.9375 1107.9297,890.8594 Q1108.0781,890.7813 1108.2813,890.7813 Q1108.6094,890.7813 1108.8672,891.0391 Q1109.125,891.2969 1109.125,891.6406 Q1109.125,891.9844 1108.7813,892.3906 Q1108.2813,892.9688 1107.4844,893.2969 Q1106.4063,893.75 1105.1094,893.75 Q1103.5938,893.75 1102.3906,893.125 Q1101.4063,892.625 1100.7188,891.5547 Q1100.0313,890.4844 1100.0313,889.2031 L1100.0313,888.0469 Q1100.0313,886.7188 1100.6484,885.5703 Q1101.2656,884.4219 1102.3594,883.8047 Q1103.4531,883.1875 1104.6875,883.1875 Q1105.4219,883.1875 1106.0703,883.3516 Q1106.7188,883.5156 1107.2656,883.875 Z "/><text fill="#000000" font-family="sans-serif" font-size="12" lengthAdjust="spacingAndGlyphs" textLength="115" x="1118.5" y="892.9102">PhysicalDependency</text><line style="stroke: #383838; stroke-width: 1.5;" x1="1090.5" x2="1235.5" y1="904" y2="904"/><line style="stroke: #383838; stroke-width: 1.5;" x1="1090.5" x2="1235.5" y1="912" y2="912"/><!--MD5=[cc0b0b3c73a04f7a77a5782e13bc5baa]
class ListOfAnnotations--><rect fill="#F8F8F8" filter="url(#f1p5xtvkgh82tb)" height="117.1797" id="ListOfAnnotations" style="stroke: #383838; stroke-width: 1.5;" width="227" x="320.5" y="1137"/><ellipse cx="381.25" cy="1153" fill="#C2C2C2" rx="11" ry="11" style="stroke: #383838; stroke-width: 1.0;"/><path d="M384.0156,1148.875 Q384.1719,1148.6563 384.3594,1148.5469 Q384.5469,1148.4375 384.7656,1148.4375 Q385.1406,1148.4375 385.375,1148.6953 Q385.6094,1148.9531 385.6094,1149.5625 L385.6094,1151.0156 Q385.6094,1151.625 385.375,1151.8906 Q385.1406,1152.1563 384.7656,1152.1563 Q384.4219,1152.1563 384.2188,1151.9531 Q384.0156,1151.7656 383.9063,1151.25 Q383.8594,1150.8906 383.6719,1150.7031 Q383.3438,1150.3281 382.7344,1150.1094 Q382.125,1149.8906 381.5,1149.8906 Q380.7344,1149.8906 380.1016,1150.2188 Q379.4688,1150.5469 378.9766,1151.2969 Q378.4844,1152.0469 378.4844,1153.0781 L378.4844,1154.1719 Q378.4844,1155.4063 379.375,1156.2266 Q380.2656,1157.0469 381.8594,1157.0469 Q382.7969,1157.0469 383.4531,1156.7969 Q383.8438,1156.6406 384.2656,1156.2031 Q384.5313,1155.9375 384.6797,1155.8594 Q384.8281,1155.7813 385.0313,1155.7813 Q385.3594,1155.7813 385.6172,1156.0391 Q385.875,1156.2969 385.875,1156.6406 Q385.875,1156.9844 385.5313,1157.3906 Q385.0313,1157.9688 384.2344,1158.2969 Q383.1563,1158.75 381.8594,1158.75 Q380.3438,1158.75 379.1406,1158.125 Q378.1563,1157.625 377.4688,1156.5547 Q376.7813,1155.4844 376.7813,1154.2031 L376.7813,1153.0469 Q376.7813,1151.7188 377.3984,1150.5703 Q378.0156,1149.4219 379.1094,1148.8047 Q380.2031,1148.1875 381.4375,1148.1875 Q382.1719,1148.1875 382.8203,1148.3516 Q383.4688,1148.5156 384.0156,1148.875 Z "/><text fill="#000000" font-family="sans-serif" font-size="12" lengthAdjust="spacingAndGlyphs" textLength="97" x="401.75" y="1157.9102">ListOfAnnotations</text><line style="stroke: #383838; stroke-width: 1.5;" x1="321.5" x2="546.5" y1="1169" y2="1169"/><ellipse cx="331.5" cy="1180" fill="none" rx="3" ry="3" style="stroke: #545454; stroke-width: 1.0;"/><text fill="#000000" font-family="sans-serif" font-size="11" lengthAdjust="spacingAndGlyphs" textLength="201" x="340.5" y="1184.4189">annotations : std::unique_ptr&lt;Annotation&gt;</text><line style="stroke: #383838; stroke-width: 1.5;" x1="321.5" x2="546.5" y1="1190.8359" y2="1190.8359"/><ellipse cx="331.5" cy="1201.8359" fill="#A6A6A6" rx="3" ry="3" style="stroke: #545454; stroke-width: 1.0;"/><text fill="#000000" font-family="sans-serif" font-size="11" lengthAdjust="spacingAndGlyphs" textLength="183" x="340.5" y="1206.2549">fromSBML() : static ListOfAnnotations</text><ellipse cx="331.5" cy="1215.6719" fill="#A6A6A6" rx="3" ry="3" style="stroke: #545454; stroke-width: 1.0;"/><text fill="#000000" font-family="sans-serif" font-size="11" lengthAdjust="spacingAndGlyphs" textLength="186" x="340.5" y="1220.0908">fromCellML() : static ListOfAnnotations</text><ellipse cx="331.5" cy="1229.5078" fill="#A6A6A6" rx="3" ry="3" style="stroke: #545454; stroke-width: 1.0;"/><text fill="#000000" font-family="sans-serif" font-size="11" lengthAdjust="spacingAndGlyphs" textLength="83" x="340.5" y="1233.9268">toSBML() :    void</text><ellipse cx="331.5" cy="1243.3438" fill="#A6A6A6" rx="3" ry="3" style="stroke: #545454; stroke-width: 1.0;"/><text fill="#000000" font-family="sans-serif" font-size="11" lengthAdjust="spacingAndGlyphs" textLength="80" x="340.5" y="1247.7627">toCellML() :  void</text><!--MD5=[d14c96fd2506c0979f1476f48aa34f9b]
link SingularAnnotation to Annotation--><path d="M362.154,775.221 C367.308,816.357 377.491,884.296 394,941 C397.969,954.631 403.228,968.953 408.625,982.281 " fill="none" id="SingularAnnotation-&gt;Annotation" style="stroke: #383838; stroke-width: 1.0;"/><polygon fill="none" points="415.157,979.755,416.496,1000.902,402.261,985.206,415.157,979.755" style="stroke: #383838; stroke-width: 1.0;"/><!--MD5=[e1ddfe6ef85240fcb09b546a7aadca5c]
link CompositeAnnotation to Annotation--><path d="M486.162,941.226 C479.099,954.33 471.274,968.847 463.879,982.566 " fill="none" id="CompositeAnnotation-&gt;Annotation" style="stroke: #383838; stroke-width: 1.0;"/><polygon fill="none" points="469.826,986.286,454.175,1000.57,457.502,979.644,469.826,986.286" style="stroke: #383838; stroke-width: 1.0;"/><!--MD5=[36279575142f99ec0a74e3b418bc6072]
reverse link Triple to SingularAnnotation--><path d="M472.044,626.824 C447.891,649.946 419.338,677.28 396.844,698.814 " fill="none" id="Triple&lt;-SingularAnnotation" style="stroke: #383838; stroke-width: 1.0;"/><polygon fill="#383838" points="475.88,623.151,466.6133,626.487,472.2689,626.6093,472.1466,632.2648,475.88,623.151" style="stroke: #383838; stroke-width: 1.0;"/><!--MD5=[6180e25dd7ab72326c31098116cc99a4]
reverse link ControlledVocabulary to Predicate--><path d="M804.021,259.874 C765.077,294.106 717.637,335.805 686.221,363.42 " fill="none" id="ControlledVocabulary&lt;-Predicate" style="stroke: #383838; stroke-width: 1.0;"/><polygon fill="#383838" points="808.243,256.163,798.8418,259.0987,804.4869,259.4633,804.1223,265.1084,808.243,256.163" style="stroke: #383838; stroke-width: 1.0;"/><!--MD5=[2186e85aeee156c92a5f0a592b6e8471]
reverse link Uri to ControlledVocabulary--><path d="M582.937,77.93 C587.343,80.01 591.73,82.06 596,84 C663.116,114.55 740.721,146.72 796.343,169.25 " fill="none" id="Uri&lt;-ControlledVocabulary" style="stroke: #383838; stroke-width: 1.0;"/><polygon fill="#383838" points="578.153,75.65,584.5586,83.1312,582.6672,77.7999,587.9985,75.9086,578.153,75.65" style="stroke: #383838; stroke-width: 1.0;"/><!--MD5=[00b0bbe5972f4eec2cdb0177d3ad25e1]
reverse link ControlledVocabulary to BiomodelsBiologyQualifier--><path d="M856.597,275.933 C850.135,309.552 842.971,346.825 838.477,370.205 " fill="none" id="ControlledVocabulary&lt;-BiomodelsBiologyQualifier" style="stroke: #383838; stroke-width: 1.0;"/><polygon fill="none" points="849.748,274.482,860.397,256.163,863.496,277.125,849.748,274.482" style="stroke: #383838; stroke-width: 1.0;"/><!--MD5=[ecc73549cb39c172bfa6729372244eee]
reverse link ControlledVocabulary to OPB--><path d="M907.662,274.514 C924.61,308.5 943.559,346.496 955.383,370.205 " fill="none" id="ControlledVocabulary&lt;-OPB" style="stroke: #383838; stroke-width: 1.0;"/><polygon fill="none" points="901.171,277.185,898.51,256.163,913.7,270.937,901.171,277.185" style="stroke: #383838; stroke-width: 1.0;"/><!--MD5=[7a767412de4e5051d6048d2a17691963]
reverse link ControlledVocabulary to CHEBI--><path d="M961.503,267.501 C979.458,282.524 997.522,299.067 1013,316 C1028.3,332.743 1042.42,354.352 1052.07,370.497 " fill="none" id="ControlledVocabulary&lt;-CHEBI" style="stroke: #383838; stroke-width: 1.0;"/><polygon fill="none" points="956.901,272.781,945.82,254.72,965.746,261.929,956.901,272.781" style="stroke: #383838; stroke-width: 1.0;"/><!--MD5=[731f18e9b4c431563528285376e43efb]
reverse link Resource to ResourceUrl--><path d="M154.51,455.781 C127.504,489.352 95.4361,529.218 75.6503,553.815 " fill="none" id="Resource&lt;-ResourceUrl" style="stroke: #383838; stroke-width: 1.0;"/><polygon fill="none" points="149.294,451.096,167.284,439.9,160.203,459.871,149.294,451.096" style="stroke: #383838; stroke-width: 1.0;"/><!--MD5=[5d54d5b14e07f2e17008693f68d75b47]
reverse link Resource to ResourceLiteral--><path d="M203,459.931 C203,492.589 203,530.224 203,553.815 " fill="none" id="Resource&lt;-ResourceLiteral" style="stroke: #383838; stroke-width: 1.0;"/><polygon fill="none" points="196,459.9,203,439.9,210,459.9,196,459.9" style="stroke: #383838; stroke-width: 1.0;"/><!--MD5=[848da78ca757c817d883dc16b1ab0063]
reverse link Subject to Triple--><path d="M521.094,236.35 C521.277,305.245 521.682,457.345 521.882,532.786 " fill="none" id="Subject&lt;-Triple" style="stroke: #383838; stroke-width: 1.0;"/><polygon fill="#383838" points="521.08,231.13,517.1057,240.1414,521.0943,236.13,525.1057,240.1185,521.08,231.13" style="stroke: #383838; stroke-width: 1.0;"/><!--MD5=[ebe945fa2670b5bb38f4f06f89f500ee]
reverse link Predicate to Triple--><path d="M627.223,430.093 C606.303,459.3 576.224,501.295 553.58,532.91 " fill="none" id="Predicate&lt;-Triple" style="stroke: #383838; stroke-width: 1.0;"/><polygon fill="#383838" points="630.241,425.879,621.7481,430.8661,627.3293,429.9437,628.2517,435.5249,630.241,425.879" style="stroke: #383838; stroke-width: 1.0;"/><!--MD5=[9315d82e453b838ec3ef847af8999d5e]
reverse link Resource to Triple--><path d="M256.539,442.904 C269.902,453.538 284.555,464.25 299,473 C356.203,507.652 376.602,504.278 437,533 C443.453,536.069 450.136,539.348 456.79,542.68 " fill="none" id="Resource&lt;-Triple" style="stroke: #383838; stroke-width: 1.0;"/><polygon fill="#383838" points="252.435,439.608,256.9488,448.3616,256.3339,442.7383,261.9572,442.1234,252.435,439.608" style="stroke: #383838; stroke-width: 1.0;"/><!--MD5=[98e266842c3e48f15a046e7d19679034]
reverse link Uri to Subject--><path d="M521,89.47 C521,114.71 521,146.12 521,168.83 " fill="none" id="Uri&lt;-Subject" style="stroke: #383838; stroke-width: 1.0;"/><polygon fill="#383838" points="521,84.18,517,93.18,521,89.18,525,93.18,521,84.18" style="stroke: #383838; stroke-width: 1.0;"/><!--MD5=[421c2439504af32964c21a0fb04c2d46]
reverse link Triple to PhysicalProperty--><path d="M522.313,628.154 C522.475,653.506 522.666,683.627 522.806,705.585 " fill="none" id="Triple&lt;-PhysicalProperty" style="stroke: #383838; stroke-width: 1.0;"/><polygon fill="#383838" points="522.281,623.151,518.3376,632.176,522.3124,628.1509,526.3375,632.1257,522.281,623.151" style="stroke: #383838; stroke-width: 1.0;"/><!--MD5=[e36ff2c80ec3f1f58d051df1c65c4402]
reverse link Triple to Entity--><path d="M591.289,622.513 C635.668,650.384 691.826,685.651 729.665,709.414 " fill="none" id="Triple&lt;-Entity" style="stroke: #383838; stroke-width: 1.0;"/><polygon fill="#383838" points="587.032,619.84,592.5272,628.0133,591.2665,622.4987,596.7811,621.2381,587.032,619.84" style="stroke: #383838; stroke-width: 1.0;"/><!--MD5=[8db00ee4c716fc989f46726569a4cc42]
reverse link Entity to PhysicalEntity--><path d="M748.913,786.329 C735.305,814.814 718.711,849.551 708.006,871.961 " fill="none" id="Entity&lt;-PhysicalEntity" style="stroke: #383838; stroke-width: 1.0;"/><polygon fill="none" points="742.602,783.3,757.539,768.271,755.235,789.335,742.602,783.3" style="stroke: #383838; stroke-width: 1.0;"/><!--MD5=[f6b3b3381aa735fe8085b70aa6607242]
reverse link Entity to PhysicalProcess--><path d="M795.395,786.329 C809.184,814.814 825.999,849.551 836.847,871.961 " fill="none" id="Entity&lt;-PhysicalProcess" style="stroke: #383838; stroke-width: 1.0;"/><polygon fill="none" points="789.067,789.323,786.654,768.271,801.668,783.223,789.067,789.323" style="stroke: #383838; stroke-width: 1.0;"/><!--MD5=[5aaa58e6fd284856adc3a536a7f8cd51]
reverse link Entity to PhysicalForce--><path d="M830.703,778.423 C873.751,808.065 930.681,847.267 966.321,871.809 " fill="none" id="Entity&lt;-PhysicalForce" style="stroke: #383838; stroke-width: 1.0;"/><polygon fill="none" points="826.587,784.087,814.084,766.979,834.527,772.557,826.587,784.087" style="stroke: #383838; stroke-width: 1.0;"/><!--MD5=[3fc7464a8cebe6c29256c4f856fea699]
reverse link Entity to PhysicalDependency--><path d="M833.122,759.197 C894.199,780.804 990.488,816.027 1072,851 C1086.84,857.366 1102.76,864.839 1117.08,871.801 " fill="none" id="Entity&lt;-PhysicalDependency" style="stroke: #383838; stroke-width: 1.0;"/><polygon fill="none" points="830.755,765.785,814.211,752.545,835.401,752.578,830.755,765.785" style="stroke: #383838; stroke-width: 1.0;"/><!--MD5=[e2381f687189425ff0431e5b4b96753a]
reverse link Entity to CompositeAnnotation--><path d="M725.195,766.047 C685.839,789.631 628.89,823.757 583.462,850.979 " fill="none" id="Entity&lt;-CompositeAnnotation" style="stroke: #383838; stroke-width: 1.0;"/><polygon fill="#383838" points="729.905,763.225,720.1289,764.4202,725.6161,765.7952,724.2412,771.2824,729.905,763.225" style="stroke: #383838; stroke-width: 1.0;"/><!--MD5=[b7b5e6016eb31463fb5b0b2ef2da2ca1]
reverse link PhysicalProperty to CompositeAnnotation--><path d="M520.073,773.348 C518.174,796.286 515.684,826.357 513.655,850.862 " fill="none" id="PhysicalProperty&lt;-CompositeAnnotation" style="stroke: #383838; stroke-width: 1.0;"/><polygon fill="#383838" points="520.493,768.271,515.7635,776.91,520.0801,773.2539,523.7362,777.5706,520.493,768.271" style="stroke: #383838; stroke-width: 1.0;"/><!--MD5=[1bc727df80fdadd0b5ec81d3be961f3b]
reverse link Annotation to ListOfAnnotations--><path d="M434,1082.154 C434,1099.052 434,1118.794 434,1136.974 " fill="none" id="Annotation&lt;-ListOfAnnotations" style="stroke: #383838; stroke-width: 1.0;"/><polygon fill="#383838" points="434,1077.007,430,1086.007,434,1082.007,438,1086.007,434,1077.007" style="stroke: #383838; stroke-width: 1.0;"/><!--MD5=[3a408b9ddcae58e97f43d3b226bf7690]
@startuml
skinparam monochrome true



class Annotation {
    + serialize() : std::string
    + iscomposite() : bool
}

class SingularAnnotation {
    + triple : Triple
    + serialize() :std::string
}
note top of SingularAnnotation
    Should I have a
    RDF interface for
    methods such as
    serialize?
end note

note left of SingularAnnotation
    Q) Can we use an
    "is-a" relationship
    between Triple and
    SingularAnnotation?
    i.e inheritance not
    composition.
end note
class CompositeAnnotation {
    + physicalProperty : PhysicalProperty
    + physicalEntity : Entity*
    + serialize() :std::string
}

SingularAnnotation - -|> Annotation
CompositeAnnotation - -|> Annotation
Triple <- - SingularAnnotation

class Uri {
    - uri_str : std::string
    + parse() : void
}
note right of Uri
    This class is overkill now.
    May be better to reimplement
    or remove.
end note
class Subject {
    + metaId : Uri
}

interface Predicate {
    + cv : ControlledVocabulary*
}
class ControlledVocabulary <<BaseClass>> {
    + namespace : std::string
    + root      : std::string
    + qualifier : std::string
    + getUri() : Uri
}
note top of ControlledVocabulary
    Rename to Term???
end note
ControlledVocabulary <- - Predicate
Uri <- - ControlledVocabulary

class BiomodelsBiologyQualifier {}
class OPB {}
class CHEBI {}
ControlledVocabulary <|- - BiomodelsBiologyQualifier
ControlledVocabulary <|- - OPB
ControlledVocabulary <|- - CHEBI


class Resource {
    - identifiers_base: std::string
    - namespace : std::string
    - identifier : std::string
}
note right of Resource
    This class implements
    a Resource as a web
    resource resolvable by
    identifiers.org but
    not a resource from a
    literal. However,
    might be better to
    just use a string for
    literal?
end note
class ResourceUrl {}

class ResourceLiteral {}

Resource <|- - ResourceUrl
Resource <|- - ResourceLiteral

note top of Resource
    Object part of rdf.
end note


class Triple {
    + subject : Subject
    + predicate : Predicate
    + resource : Resource*
}

Subject <- - Triple
Predicate <- - Triple
Resource <- - Triple


Uri <- - Subject

class PhysicalProperty {
    + triple : Triple*
}
Triple <- - PhysicalProperty

interface Entity {
    + triple : Triple
}
Triple <- - Entity

class PhysicalEntity {}
class PhysicalProcess {}
class PhysicalForce {}
class PhysicalDependency {}

Entity <|- - PhysicalEntity
Entity <|- - PhysicalProcess
Entity <|- - PhysicalForce
Entity <|- - PhysicalDependency

Entity <- - CompositeAnnotation
PhysicalProperty <- - CompositeAnnotation


class ListOfAnnotations {
    + annotations : std::unique_ptr<Annotation>
    + fromSBML() : static ListOfAnnotations
    + fromCellML() : static ListOfAnnotations
    + toSBML() :    void
    + toCellML() :  void
}

Annotation <- - ListOfAnnotations





@enduml

PlantUML version 1.2020.05(Thu Mar 19 21:17:32 GMT 2020)
(GPL source distribution)
Java Runtime: Java(TM) SE Runtime Environment
JVM: Java HotSpot(TM) Client VM
Java Version: 1.8.0_241-b07
Operating System: Windows 10
Default Encoding: Cp1252
Language: en
Country: US
--></g></svg>