<?xml version="1.0" encoding="iso-8859-1" standalone="no"?> 
<?xml-stylesheet href="composite-annotation1.css" type="text/css"?> 
<svg xmlns="http://www.w3.org/2000/svg" xmlns:xlink="http://www.w3.org/1999/xlink" width="317.02258pt" height="115.37212pt" viewBox="102.27998 -100.78325 317.02258 115.37212 "> 
<g transform="translate(0, 14.58887 ) scale(1,-1) translate(0,100.78325 )"> 
<g>
 <g stroke="rgb(0.0%,0.0%,0.0%)">
 <g fill="rgb(0.0%,0.0%,0.0%)">
 <g stroke-width="0.4pt">
 <g>
 <g>
 <g fill="rgb(100.0%,100.0%,100.0%)">
 <g stroke="rgb(32.99103%,33.43048%,33.57849%)">
 <g>
 <g fill="rgb(100.0%,100.0%,100.0%)">
 <g stroke="rgb(32.99103%,33.43048%,33.57849%)">
 <path d=" M  226.44398 -14.38887 h  116.1669 v  28.77774 h  -116.1669 Z  " />
 </g>
 </g>
 </g>
 <g>
 <g transform="matrix(1.0,0.0,0.0,1.0,236.44398,-2.44444)">
 <g fill="rgb(19.04907%,33.33282%,47.61963%)">
 <text style="stroke:none" transform="scale(1,-1) translate(48.08345,0)" text-anchor="middle"  font-size="10"> 
<a 
href="../cppapi/composite_annotation.html" target="_parent">CompositeAnnotation</a></text> 
</g>
 </g>
 </g>
 </g>
 </g>
 </g>
 <g>
 <g fill="rgb(100.0%,100.0%,100.0%)">
 <g stroke="rgb(32.99103%,33.43048%,33.57849%)">
 <g>
 <g fill="rgb(100.0%,100.0%,100.0%)">
 <g stroke="rgb(32.99103%,33.43048%,33.57849%)">
 <path d=" M  102.47998 -100.58325 h  95.11127 v  28.88889 h  -95.11127 Z  " />
 </g>
 </g>
 </g>
 <g>
 <g transform="matrix(1.0,0.0,0.0,1.0,112.47998,-88.63881)">
 <g fill="rgb(19.04907%,33.33282%,47.61963%)">
 <text style="stroke:none" transform="scale(1,-1) translate(37.55563,0)" text-anchor="middle"  font-size="10"> 
<a 
href="../cppapi/physical_property.html" target="_parent">PhysicalProperty</a></text> 
</g>
 </g>
 </g>
 </g>
 </g>
 </g>
 <g>
 <g fill="rgb(100.0%,100.0%,100.0%)">
 <g stroke="rgb(32.99103%,33.43048%,33.57849%)">
 <g>
 <g fill="rgb(100.0%,100.0%,100.0%)">
 <g stroke="rgb(32.99103%,33.43048%,33.57849%)">
 <path d=" M  371.46362 -100.4721 h  47.63895 v  28.77774 h  -47.63895 Z  " />
 </g>
 </g>
 </g>
 <g>
 <g transform="matrix(1.0,0.0,0.0,1.0,381.46362,-88.52768)">
 <g fill="rgb(19.04907%,33.33282%,47.61963%)">
 <text style="stroke:none" transform="scale(1,-1) translate(13.81947,0)" text-anchor="middle"  font-size="10"> 
<a 
href="../cppapi/entity.html" target="_parent">Entity</a></text> 
</g>
 </g>
 </g>
 </g>
 </g>
 </g>
 <path d=" M  284.52744 -14.58887 C  284.52744 -71.7038 150.03561 -14.37944 150.03561 -63.15855  " style="fill:none"/>
 <g>
 <g transform="matrix(0.0,-1.0,1.0,0.0,150.03561,-63.15855)">
 <g>
 <g stroke-dasharray="none" stroke-dashoffset="0.0pt">
 <g stroke-linejoin="miter">
 <path d=" M  7.51122 0.0 C  6.5888 0.22232 2.53418 1.48212 0.0 2.85306 L  0.0 -2.85306 C  2.53418 -1.48212 6.5888 -0.22232 7.51122 0.0 Z  " />
 </g>
 </g>
 </g>
  </g>
 </g>
 <path d=" M  284.52744 -14.58887 C  284.52744 -63.27405 395.2831 -22.80919 395.2831 -63.15855  " style="fill:none"/>
 <g>
 <g transform="matrix(0.0,-1.0,1.0,0.0,395.2831,-63.15855)">
 <g>
 <g stroke-dasharray="none" stroke-dashoffset="0.0pt">
 <g stroke-linejoin="miter">
 <path d=" M  7.51122 0.0 C  6.5888 0.22232 2.53418 1.48212 0.0 2.85306 L  0.0 -2.85306 C  2.53418 -1.48212 6.5888 -0.22232 7.51122 0.0 Z  " />
 </g>
 </g>
 </g>
  </g>
 </g>
 </g>
 </g>
 </g>
 </g>
 </g>
 
                                                                                               </g> 
</svg> 
